<svg width="245" height="41" viewBox="0 0 245 41" fill="none" xmlns="http://www.w3.org/2000/svg">
<path d="M59.9997 33.206C59.2317 33.206 58.6771 33.0886 58.3357 32.854C57.9944 32.6193 57.7811 32.31 57.6957 31.926C57.6317 31.542 57.5997 31.1473 57.5997 30.742V13.238C57.5997 12.8326 57.6317 12.4486 57.6957 12.086C57.7811 11.7233 57.9944 11.4246 58.3357 11.19C58.6771 10.9553 59.2424 10.838 60.0317 10.838H66.6877C67.5624 10.838 68.4584 10.998 69.3757 11.318C70.2931 11.638 71.1357 12.1286 71.9037 12.79C72.6717 13.4513 73.2904 14.2726 73.7597 15.254C74.2291 16.2353 74.4637 17.398 74.4637 18.742C74.4637 19.638 74.3251 20.502 74.0477 21.334C73.7917 22.166 73.3971 22.934 72.8637 23.638C72.3304 24.342 71.6691 24.95 70.8797 25.462C70.0904 25.9526 69.1837 26.3046 68.1597 26.518H62.4637V30.774C62.4637 31.1793 62.4211 31.574 62.3357 31.958C62.2504 32.3206 62.0371 32.6193 61.6957 32.854C61.3544 33.0886 60.7891 33.206 59.9997 33.206ZM73.5037 32.566C72.7144 33.142 72.0851 33.366 71.6157 33.238C71.1464 33.11 70.6557 32.694 70.1437 31.99L64.5117 23.926L69.9837 23.222L74.1117 29.142C74.4744 29.654 74.6984 30.0913 74.7837 30.454C74.8904 30.8166 74.8371 31.158 74.6237 31.478C74.4317 31.798 74.0584 32.1606 73.5037 32.566ZM62.4637 21.718H66.9117C67.2104 21.718 67.5197 21.6646 67.8397 21.558C68.1597 21.43 68.4477 21.2486 68.7037 21.014C68.9597 20.7793 69.1731 20.47 69.3437 20.086C69.5144 19.702 69.5997 19.2433 69.5997 18.71C69.5997 18.0913 69.4717 17.558 69.2157 17.11C68.9811 16.662 68.6397 16.3206 68.1917 16.086C67.7437 15.83 67.2211 15.702 66.6237 15.702H62.4637V21.718ZM84.2172 33.494C82.7239 33.494 81.4332 33.2486 80.3452 32.758C79.2786 32.2673 78.4039 31.6273 77.7212 30.838C77.0386 30.0273 76.5266 29.1313 76.1852 28.15C75.8652 27.1686 75.7052 26.1873 75.7052 25.206C75.7052 23.606 76.0679 22.1873 76.7932 20.95C77.5186 19.7126 78.5212 18.742 79.8012 18.038C81.0812 17.3126 82.5532 16.95 84.2172 16.95C85.4546 16.95 86.5212 17.1526 87.4172 17.558C88.3346 17.942 89.0812 18.454 89.6572 19.094C90.2546 19.7126 90.6919 20.3846 90.9692 21.11C91.2679 21.8353 91.4172 22.5286 91.4172 23.19C91.4172 24.3633 91.1292 25.238 90.5532 25.814C89.9986 26.3686 89.2839 26.646 88.4092 26.646H80.7932C80.8359 27.2006 81.0279 27.67 81.3692 28.054C81.7319 28.438 82.1799 28.7366 82.7132 28.95C83.2466 29.1633 83.8119 29.27 84.4092 29.27C84.9212 29.27 85.3692 29.2486 85.7532 29.206C86.1372 29.142 86.4679 29.0673 86.7452 28.982C87.0226 28.8753 87.2786 28.7793 87.5132 28.694C87.7479 28.5873 87.9506 28.502 88.1212 28.438C88.3132 28.374 88.4946 28.3313 88.6652 28.31C88.9852 28.2886 89.2732 28.3846 89.5292 28.598C89.8066 28.79 90.0519 29.0886 90.2652 29.494C90.4146 29.7286 90.5106 29.9526 90.5532 30.166C90.6172 30.3793 90.6492 30.5926 90.6492 30.806C90.6492 31.318 90.3826 31.7766 89.8492 32.182C89.3372 32.5873 88.6012 32.9073 87.6412 33.142C86.7026 33.3766 85.5612 33.494 84.2172 33.494ZM80.7932 24.022H85.8492C86.1906 24.022 86.4359 23.9686 86.5852 23.862C86.7559 23.734 86.8412 23.4993 86.8412 23.158C86.8412 22.774 86.7239 22.4433 86.4892 22.166C86.2546 21.8673 85.9346 21.6433 85.5292 21.494C85.1452 21.3233 84.6972 21.238 84.1852 21.238C83.5239 21.238 82.9372 21.366 82.4252 21.622C81.9132 21.878 81.5079 22.2193 81.2092 22.646C80.9319 23.0726 80.7932 23.5313 80.7932 24.022ZM106.525 33.174C105.735 33.174 105.149 33.0353 104.765 32.758C104.402 32.4806 104.221 32.1393 104.221 31.734L104.541 31.19C104.413 31.4033 104.167 31.67 103.805 31.99C103.442 32.2886 102.973 32.566 102.397 32.822C101.821 33.0566 101.106 33.174 100.253 33.174C99.2714 33.174 98.3327 32.9606 97.4367 32.534C96.5621 32.1073 95.7834 31.5206 95.1007 30.774C94.4181 30.006 93.8741 29.142 93.4687 28.182C93.0847 27.222 92.8927 26.2086 92.8927 25.142C92.8927 24.0966 93.0847 23.1046 93.4687 22.166C93.8741 21.206 94.4181 20.3633 95.1007 19.638C95.8047 18.8913 96.5941 18.3046 97.4687 17.878C98.3434 17.4513 99.2714 17.238 100.253 17.238C101.042 17.238 101.714 17.3553 102.269 17.59C102.823 17.8033 103.282 18.0593 103.645 18.358C104.029 18.6566 104.317 18.9446 104.509 19.222L104.253 18.774C104.231 18.262 104.402 17.878 104.765 17.622C105.149 17.3446 105.746 17.206 106.557 17.206C107.325 17.206 107.869 17.3233 108.189 17.558C108.53 17.7926 108.733 18.102 108.797 18.486C108.882 18.87 108.925 19.2753 108.925 19.702V30.742C108.925 31.1473 108.882 31.542 108.797 31.926C108.733 32.31 108.53 32.6193 108.189 32.854C107.869 33.0673 107.314 33.174 106.525 33.174ZM100.957 28.406C101.511 28.406 102.013 28.2673 102.461 27.99C102.93 27.6913 103.293 27.2966 103.549 26.806C103.826 26.3153 103.965 25.7713 103.965 25.174C103.965 24.5553 103.826 24.0113 103.549 23.542C103.271 23.0513 102.898 22.6673 102.429 22.39C101.959 22.0913 101.447 21.942 100.893 21.942C100.274 21.942 99.7194 22.0913 99.2287 22.39C98.7594 22.6886 98.3754 23.0833 98.0767 23.574C97.7994 24.0646 97.6607 24.6193 97.6607 25.238C97.6607 25.814 97.7994 26.3473 98.0767 26.838C98.3754 27.3073 98.7701 27.6913 99.2607 27.99C99.7727 28.2673 100.338 28.406 100.957 28.406ZM117.644 33.206C116.769 33.206 115.991 33.1526 115.308 33.046C114.647 32.9606 114.071 32.79 113.58 32.534C113.111 32.278 112.727 31.926 112.428 31.478C112.129 31.03 111.905 30.454 111.756 29.75C111.628 29.0246 111.564 28.1393 111.564 27.094V12.31C111.564 11.8833 111.596 11.4886 111.66 11.126C111.745 10.7633 111.959 10.4646 112.3 10.23C112.641 9.9953 113.196 9.87797 113.964 9.87797C114.732 9.87797 115.276 9.9953 115.596 10.23C115.937 10.4646 116.151 10.7633 116.236 11.126C116.321 11.4886 116.364 11.8833 116.364 12.31V26.87C116.364 27.2113 116.375 27.4993 116.396 27.734C116.439 27.9473 116.503 28.118 116.588 28.246C116.695 28.374 116.833 28.4593 117.004 28.502C117.175 28.5446 117.399 28.566 117.676 28.566C117.932 28.566 118.188 28.598 118.444 28.662C118.721 28.726 118.956 28.918 119.148 29.238C119.34 29.558 119.436 30.0913 119.436 30.838C119.436 31.606 119.34 32.1606 119.148 32.502C118.956 32.8433 118.721 33.046 118.444 33.11C118.188 33.174 117.921 33.206 117.644 33.206ZM144.908 33.206C144.118 33.206 143.553 33.0886 143.212 32.854C142.892 32.6193 142.689 32.31 142.604 31.926C142.518 31.542 142.476 31.1473 142.476 30.742V13.27C142.476 12.8433 142.518 12.4486 142.604 12.086C142.689 11.7233 142.902 11.4246 143.244 11.19C143.585 10.9553 144.15 10.838 144.94 10.838C145.729 10.838 146.284 10.9553 146.604 11.19C146.945 11.4246 147.148 11.7233 147.212 12.086C147.297 12.4486 147.34 12.854 147.34 13.302V30.774C147.34 31.1793 147.297 31.574 147.212 31.958C147.148 32.3206 146.945 32.6193 146.604 32.854C146.262 33.0886 145.697 33.206 144.908 33.206ZM131.34 33.206C130.55 33.206 129.985 33.0886 129.644 32.854C129.302 32.6193 129.089 32.31 129.004 31.926C128.94 31.542 128.908 31.1473 128.908 30.742V13.27C128.908 12.8433 128.95 12.4486 129.036 12.086C129.121 11.7233 129.324 11.4246 129.644 11.19C129.985 10.9553 130.561 10.838 131.372 10.838C132.161 10.838 132.716 10.9553 133.036 11.19C133.377 11.4246 133.58 11.7233 133.644 12.086C133.729 12.4486 133.772 12.854 133.772 13.302V30.774C133.772 31.1793 133.729 31.574 133.644 31.958C133.58 32.3206 133.377 32.6193 133.036 32.854C132.694 33.0886 132.129 33.206 131.34 33.206ZM133.004 24.054V19.83H142.988V24.054H133.004ZM157.711 33.462C156.709 33.462 155.706 33.27 154.703 32.886C153.722 32.4806 152.826 31.9153 152.015 31.19C151.205 30.4646 150.565 29.6006 150.095 28.598C149.626 27.574 149.391 26.4433 149.391 25.206C149.391 24.054 149.605 22.9873 150.031 22.006C150.458 21.0033 151.055 20.118 151.823 19.35C152.591 18.582 153.466 17.9846 154.447 17.558C155.45 17.11 156.517 16.886 157.647 16.886C159.183 16.886 160.57 17.2593 161.807 18.006C163.066 18.7313 164.069 19.7233 164.815 20.982C165.562 22.2406 165.935 23.638 165.935 25.174C165.935 26.4753 165.69 27.638 165.199 28.662C164.73 29.6646 164.09 30.5286 163.279 31.254C162.49 31.9793 161.605 32.534 160.623 32.918C159.663 33.2806 158.693 33.462 157.711 33.462ZM157.647 28.63C158.159 28.63 158.682 28.502 159.215 28.246C159.749 27.99 160.197 27.606 160.559 27.094C160.922 26.582 161.103 25.9313 161.103 25.142C161.103 24.4593 160.954 23.862 160.655 23.35C160.357 22.838 159.941 22.4433 159.407 22.166C158.895 21.8673 158.298 21.718 157.615 21.718C156.975 21.718 156.399 21.8673 155.887 22.166C155.397 22.4646 154.991 22.8806 154.671 23.414C154.373 23.926 154.223 24.5126 154.223 25.174C154.223 25.942 154.394 26.5926 154.735 27.126C155.098 27.638 155.546 28.022 156.079 28.278C156.613 28.5126 157.135 28.63 157.647 28.63ZM174.786 33.174C173.805 33.174 172.877 32.982 172.002 32.598C171.149 32.214 170.402 31.6806 169.762 30.998C169.122 30.294 168.621 29.4726 168.258 28.534C167.917 27.574 167.746 26.5286 167.746 25.398V19.606C167.746 19.1793 167.789 18.7846 167.874 18.422C167.96 18.0593 168.162 17.7606 168.482 17.526C168.824 17.2913 169.389 17.174 170.178 17.174C170.968 17.174 171.522 17.2913 171.842 17.526C172.184 17.7606 172.386 18.07 172.45 18.454C172.536 18.8166 172.578 19.2113 172.578 19.638V25.398C172.578 26.0166 172.685 26.5606 172.898 27.03C173.133 27.478 173.464 27.8193 173.89 28.054C174.338 28.2886 174.861 28.406 175.458 28.406C176.077 28.406 176.6 28.2886 177.026 28.054C177.474 27.798 177.816 27.446 178.05 26.998C178.306 26.55 178.434 26.0166 178.434 25.398V19.574C178.434 19.1473 178.477 18.7526 178.562 18.39C178.648 18.0273 178.85 17.7393 179.17 17.526C179.512 17.2913 180.077 17.174 180.866 17.174C181.656 17.174 182.21 17.2913 182.53 17.526C182.872 17.7606 183.074 18.07 183.138 18.454C183.224 18.8166 183.266 19.2006 183.266 19.606V30.87C183.266 31.2753 183.224 31.6593 183.138 32.022C183.074 32.3633 182.872 32.6406 182.53 32.854C182.189 33.0673 181.634 33.174 180.866 33.174C180.29 33.174 179.842 33.11 179.522 32.982C179.202 32.854 178.968 32.694 178.818 32.502C178.669 32.31 178.573 32.1073 178.53 31.894C178.509 31.6806 178.498 31.4886 178.498 31.318L178.914 30.966C178.85 31.0513 178.712 31.2113 178.498 31.446C178.285 31.6806 177.997 31.9366 177.634 32.214C177.293 32.47 176.888 32.694 176.418 32.886C175.949 33.078 175.405 33.174 174.786 33.174ZM191.572 33.462C190.996 33.462 190.367 33.398 189.684 33.27C189.023 33.142 188.372 32.9606 187.732 32.726C187.092 32.47 186.559 32.182 186.132 31.862C185.706 31.5206 185.46 31.1366 185.396 30.71C185.354 30.4966 185.354 30.2726 185.396 30.038C185.46 29.782 185.567 29.526 185.716 29.27C185.866 28.9926 186.047 28.7046 186.26 28.406C186.431 28.1713 186.623 28.022 186.836 27.958C187.05 27.894 187.295 27.9046 187.572 27.99C187.914 28.054 188.255 28.1713 188.596 28.342C188.959 28.4913 189.311 28.662 189.652 28.854C190.015 29.0246 190.388 29.1846 190.772 29.334C191.156 29.462 191.551 29.526 191.956 29.526C192.554 29.526 193.012 29.4406 193.332 29.27C193.674 29.078 193.844 28.822 193.844 28.502C193.844 28.2673 193.77 28.0753 193.62 27.926C193.492 27.7766 193.3 27.6486 193.044 27.542C192.81 27.414 192.532 27.3073 192.212 27.222C191.892 27.1366 191.54 27.0513 191.156 26.966C190.794 26.8593 190.42 26.7526 190.036 26.646C189.503 26.4966 188.991 26.3046 188.5 26.07C188.01 25.8353 187.562 25.5366 187.156 25.174C186.751 24.79 186.431 24.3313 186.196 23.798C185.962 23.2433 185.844 22.5713 185.844 21.782C185.844 20.7366 186.09 19.862 186.58 19.158C187.071 18.454 187.786 17.9206 188.724 17.558C189.663 17.174 190.804 16.982 192.148 16.982C192.532 16.982 192.916 17.0033 193.3 17.046C193.684 17.0886 194.058 17.1633 194.42 17.27C194.804 17.3766 195.178 17.5046 195.54 17.654C195.903 17.8033 196.266 17.9846 196.628 18.198C197.268 18.4966 197.599 18.902 197.62 19.414C197.642 19.926 197.46 20.4486 197.076 20.982C196.842 21.3446 196.596 21.6113 196.34 21.782C196.084 21.9313 195.818 21.974 195.54 21.91C195.199 21.8246 194.826 21.686 194.42 21.494C194.036 21.302 193.62 21.1206 193.172 20.95C192.746 20.7793 192.319 20.694 191.892 20.694C191.53 20.694 191.22 20.7473 190.964 20.854C190.708 20.9393 190.516 21.0673 190.388 21.238C190.26 21.3873 190.196 21.5686 190.196 21.782C190.196 22.0593 190.271 22.2833 190.42 22.454C190.591 22.6033 190.815 22.7313 191.092 22.838C191.37 22.9446 191.69 23.0406 192.052 23.126C192.415 23.2113 192.81 23.2966 193.236 23.382C193.812 23.4886 194.399 23.638 194.996 23.83C195.615 24.0006 196.17 24.2566 196.66 24.598C197.172 24.9393 197.578 25.398 197.876 25.974C198.196 26.55 198.356 27.3073 198.356 28.246C198.356 29.9313 197.77 31.222 196.596 32.118C195.423 33.014 193.748 33.462 191.572 33.462ZM208.405 33.494C206.911 33.494 205.621 33.2486 204.533 32.758C203.466 32.2673 202.591 31.6273 201.909 30.838C201.226 30.0273 200.714 29.1313 200.373 28.15C200.053 27.1686 199.893 26.1873 199.893 25.206C199.893 23.606 200.255 22.1873 200.981 20.95C201.706 19.7126 202.709 18.742 203.989 18.038C205.269 17.3126 206.741 16.95 208.405 16.95C209.642 16.95 210.709 17.1526 211.605 17.558C212.522 17.942 213.269 18.454 213.845 19.094C214.442 19.7126 214.879 20.3846 215.157 21.11C215.455 21.8353 215.605 22.5286 215.605 23.19C215.605 24.3633 215.317 25.238 214.741 25.814C214.186 26.3686 213.471 26.646 212.597 26.646H204.981C205.023 27.2006 205.215 27.67 205.557 28.054C205.919 28.438 206.367 28.7366 206.901 28.95C207.434 29.1633 207.999 29.27 208.597 29.27C209.109 29.27 209.557 29.2486 209.941 29.206C210.325 29.142 210.655 29.0673 210.933 28.982C211.21 28.8753 211.466 28.7793 211.701 28.694C211.935 28.5873 212.138 28.502 212.309 28.438C212.501 28.374 212.682 28.3313 212.853 28.31C213.173 28.2886 213.461 28.3846 213.717 28.598C213.994 28.79 214.239 29.0886 214.453 29.494C214.602 29.7286 214.698 29.9526 214.741 30.166C214.805 30.3793 214.837 30.5926 214.837 30.806C214.837 31.318 214.57 31.7766 214.037 32.182C213.525 32.5873 212.789 32.9073 211.829 33.142C210.89 33.3766 209.749 33.494 208.405 33.494ZM204.981 24.022H210.037C210.378 24.022 210.623 23.9686 210.773 23.862C210.943 23.734 211.029 23.4993 211.029 23.158C211.029 22.774 210.911 22.4433 210.677 22.166C210.442 21.8673 210.122 21.6433 209.717 21.494C209.333 21.3233 208.885 21.238 208.373 21.238C207.711 21.238 207.125 21.366 206.613 21.622C206.101 21.878 205.695 22.2193 205.397 22.646C205.119 23.0726 204.981 23.5313 204.981 24.022Z" fill="black"/>
<path d="M12.1187 1.27246L15.5969 4.5768C16.9013 5.79419 17.5969 7.44637 17.5969 9.27246C17.5969 11.0116 18.2926 12.6638 19.51 13.8812L19.9447 14.3159L23.9447 1.35941" fill="black"/>
<path d="M0.29248 12.8376L5.07509 12.6637C6.81422 12.5767 8.55334 13.2724 9.77074 14.4898C10.9881 15.7072 12.6403 16.3159 14.3794 16.3159H14.9881L8.55335 4.40283" fill="black"/>
<path d="M0.29261 29.3597L3.51 25.8815C4.72739 24.5771 6.37957 23.7945 8.1187 23.7945C9.85783 23.7945 11.423 23.0119 12.6404 21.7945L13.0752 21.3597L0.0317383 17.6206" fill="black"/>
<path d="M12.1185 40.8378L11.8576 36.0552C11.7706 34.316 12.3793 32.5769 13.5967 31.2726C14.7272 30.0552 15.4228 28.316 15.3359 26.6639V26.0552L3.50977 32.7508" fill="black"/>
<path d="M28.6405 40.4901L25.0753 37.3597C23.7709 36.2292 22.9883 34.577 22.9014 32.751C22.8144 31.0118 22.0318 29.4466 20.8144 28.2292L20.3796 27.7944L16.9014 40.9249" fill="black"/>
<path d="M39.9448 28.4032L35.1621 28.751C33.423 28.9249 31.6839 28.3162 30.3795 27.0989C29.0752 25.9684 27.423 25.3597 25.6839 25.4467H25.0752L32.0317 37.0989" fill="black"/>
<path d="M39.1623 11.9683L36.1188 15.6204C34.9884 16.9248 33.3362 17.7944 31.5971 17.8813C29.8579 17.9683 28.2927 18.7509 27.1623 20.0552L26.8145 20.49L40.0318 23.6204" fill="black"/>
<path d="M26.9013 0.924805L27.336 5.70741C27.5099 7.44654 26.9882 9.18568 25.7708 10.577C24.6404 11.8813 24.1186 13.5335 24.2056 15.2726L24.2926 15.8813L35.7708 8.66394" fill="black"/>
</svg>
