<svg width="165" height="49" viewBox="0 0 165 49" fill="none" xmlns="http://www.w3.org/2000/svg">
<path d="M59.664 35.7446L68.144 13.3446H72.848L63.952 35.7446H59.664ZM59.184 35.7446L50.256 13.3446H54.96L63.472 35.7446H59.184ZM75.1738 35.7446V19.7446H79.3978V35.7446H75.1738ZM77.2858 17.1526C76.6458 17.1526 76.0804 16.918 75.5898 16.4486C75.0991 15.958 74.8538 15.382 74.8538 14.7206C74.8538 14.0593 75.0991 13.494 75.5898 13.0246C76.0804 12.534 76.6458 12.2886 77.2858 12.2886C77.9471 12.2886 78.5124 12.534 78.9818 13.0246C79.4724 13.494 79.7178 14.0593 79.7178 14.7206C79.7178 15.382 79.4724 15.958 78.9818 16.4486C78.5124 16.918 77.9471 17.1526 77.2858 17.1526ZM86.2688 27.3286C86.2688 25.6006 86.5994 24.1713 87.2608 23.0406C87.9434 21.91 88.8074 21.0673 89.8528 20.5126C90.9194 19.958 92.0288 19.6806 93.1808 19.6806V23.7766C92.1994 23.7766 91.2714 23.894 90.3968 24.1286C89.5434 24.3633 88.8501 24.7473 88.3168 25.2806C87.7834 25.814 87.5168 26.4966 87.5168 27.3286H86.2688ZM83.2928 35.7446V19.7446H87.5168V35.7446H83.2928ZM102.01 36.1286C100.239 36.1286 98.8951 35.6913 97.9778 34.8166C97.0818 33.942 96.6338 32.694 96.6338 31.0726V14.7526H100.858V30.1446C100.858 30.8273 101.007 31.35 101.306 31.7126C101.604 32.054 102.042 32.2246 102.618 32.2246C102.831 32.2246 103.066 32.182 103.322 32.0966C103.578 31.99 103.844 31.8406 104.122 31.6486L105.594 34.8166C105.082 35.2006 104.506 35.51 103.866 35.7446C103.247 36.0006 102.628 36.1286 102.01 36.1286ZM94.0418 23.3286V19.7446H104.858V23.3286H94.0418ZM118.853 35.7446L118.597 32.8006V19.7446H122.821V35.7446H118.853ZM108.005 27.9366V19.7446H112.229V27.9366H108.005ZM112.229 27.9366C112.229 29.0033 112.346 29.846 112.581 30.4646C112.837 31.062 113.189 31.4993 113.637 31.7766C114.106 32.0326 114.629 32.1606 115.205 32.1606C116.314 32.182 117.157 31.8513 117.733 31.1686C118.309 30.4646 118.597 29.4513 118.597 28.1286H120.037C120.037 29.8353 119.781 31.286 119.269 32.4806C118.757 33.654 118.053 34.5606 117.157 35.2006C116.261 35.8193 115.205 36.1286 113.989 36.1286C112.709 36.1286 111.621 35.8726 110.725 35.3606C109.829 34.8486 109.146 34.0593 108.677 32.9926C108.229 31.9046 108.005 30.5073 108.005 28.8006V27.9366H112.229ZM126.64 42.1446V19.7446H130.608L130.864 22.6886V42.1446H126.64ZM135.696 36.1286C134.352 36.1286 133.211 35.7873 132.272 35.1046C131.355 34.422 130.651 33.4513 130.16 32.1926C129.67 30.934 129.424 29.4513 129.424 27.7446C129.424 26.0166 129.67 24.534 130.16 23.2966C130.651 22.038 131.355 21.0673 132.272 20.3846C133.211 19.702 134.352 19.3606 135.696 19.3606C137.168 19.3606 138.438 19.702 139.504 20.3846C140.592 21.0673 141.435 22.038 142.032 23.2966C142.63 24.534 142.928 26.0166 142.928 27.7446C142.928 29.4513 142.63 30.934 142.032 32.1926C141.435 33.4513 140.592 34.422 139.504 35.1046C138.438 35.7873 137.168 36.1286 135.696 36.1286ZM134.608 32.2566C135.376 32.2566 136.048 32.0646 136.624 31.6806C137.222 31.2966 137.691 30.7633 138.032 30.0806C138.374 29.398 138.544 28.6193 138.544 27.7446C138.544 26.87 138.374 26.0913 138.032 25.4086C137.712 24.726 137.254 24.2033 136.656 23.8406C136.08 23.4566 135.408 23.2646 134.64 23.2646C133.915 23.2646 133.264 23.4566 132.688 23.8406C132.112 24.2246 131.664 24.758 131.344 25.4406C131.024 26.102 130.864 26.87 130.864 27.7446C130.864 28.6193 131.024 29.398 131.344 30.0806C131.664 30.7633 132.102 31.2966 132.656 31.6806C133.232 32.0646 133.883 32.2566 134.608 32.2566ZM151.683 36.1286C150.659 36.1286 149.699 35.9793 148.803 35.6806C147.907 35.3606 147.118 34.9126 146.435 34.3366C145.752 33.7393 145.219 33.014 144.835 32.1606L148.451 30.4966C148.771 31.0086 149.208 31.4566 149.763 31.8406C150.318 32.2033 150.958 32.3846 151.683 32.3846C152.387 32.3846 152.931 32.2886 153.315 32.0966C153.699 31.8833 153.891 31.5846 153.891 31.2006C153.891 30.8166 153.731 30.5393 153.411 30.3686C153.112 30.1766 152.696 30.0166 152.163 29.8886L150.691 29.5046C149.155 29.0993 147.939 28.4593 147.043 27.5846C146.168 26.6886 145.731 25.6646 145.731 24.5126C145.731 22.87 146.254 21.6006 147.299 20.7046C148.366 19.8086 149.87 19.3606 151.811 19.3606C152.814 19.3606 153.742 19.51 154.595 19.8086C155.47 20.1073 156.216 20.5233 156.835 21.0566C157.454 21.59 157.88 22.2086 158.115 22.9126L154.627 24.5126C154.478 24.086 154.115 23.7446 153.539 23.4886C152.963 23.2113 152.387 23.0726 151.811 23.0726C151.235 23.0726 150.787 23.2006 150.467 23.4566C150.168 23.6913 150.019 24.022 150.019 24.4486C150.019 24.726 150.168 24.9606 150.467 25.1526C150.766 25.3233 151.192 25.4726 151.747 25.6006L153.827 26.1126C154.872 26.3686 155.704 26.7846 156.323 27.3606C156.963 27.9153 157.422 28.5446 157.699 29.2486C157.998 29.9313 158.147 30.6033 158.147 31.2646C158.147 32.2246 157.859 33.078 157.283 33.8246C156.728 34.55 155.96 35.1153 154.979 35.5206C154.019 35.926 152.92 36.1286 151.683 36.1286Z" fill="black"/>
<g clip-path="url(#clip0_185_1017)">
<path d="M28.5745 11.5932L17.1436 0.924805V11.5932H0V38.2564L11.4309 48.9248V22.2564H28.5745V38.2564L40 48.9248V22.2564L28.5745 11.5932Z" fill="black"/>
</g>
<defs>
<clipPath id="clip0_185_1017">
<rect width="40" height="48" fill="white" transform="translate(0 0.924805)"/>
</clipPath>
</defs>
</svg>
