<svg width="247" height="41" viewBox="0 0 247 41" fill="none" xmlns="http://www.w3.org/2000/svg">
<path d="M67.8525 9.9653L60.8445 31.4693V31.4373C60.7165 31.7573 60.5351 32.024 60.3005 32.2373C60.0871 32.4293 59.8205 32.5253 59.5005 32.5253C59.3298 32.5253 59.1591 32.504 58.9885 32.4613C58.8391 32.44 58.6791 32.408 58.5085 32.3653H58.5405C57.3245 31.9813 56.8765 31.2986 57.1965 30.3173L64.4925 8.1413C64.5991 7.79997 64.7805 7.51197 65.0365 7.2773C65.3138 7.04264 65.6338 6.90397 65.9965 6.8613C66.3591 6.7973 66.7111 6.75464 67.0525 6.7333C67.3938 6.69064 67.6605 6.6693 67.8525 6.6693C68.0445 6.6693 68.3111 6.69064 68.6525 6.7333C68.9938 6.75464 69.3458 6.78664 69.7085 6.8293C70.0071 6.87197 70.2951 7.03197 70.5725 7.3093C70.8711 7.58664 71.0951 7.86397 71.2445 8.1413C72.4391 11.8106 73.6445 15.512 74.8605 19.2453C76.0978 22.9573 77.3138 26.648 78.5085 30.3173C78.8071 31.2986 78.3591 31.9813 77.1645 32.3653C76.9938 32.408 76.8338 32.44 76.6845 32.4613C76.5565 32.504 76.4071 32.5253 76.2365 32.5253C75.9378 32.5253 75.6605 32.4293 75.4045 32.2373C75.1698 32.024 74.9991 31.7573 74.8925 31.4373V31.4693L67.8525 9.9653ZM70.2525 24.5573C70.2525 25.24 70.0071 25.8266 69.5165 26.3173C69.0471 26.7866 68.4711 27.0213 67.7885 27.0213C67.1058 27.0213 66.5298 26.7866 66.0605 26.3173C65.5911 25.8266 65.3565 25.24 65.3565 24.5573C65.3565 23.8746 65.5911 23.2986 66.0605 22.8293C66.5298 22.3386 67.1058 22.0933 67.7885 22.0933C68.4711 22.0933 69.0471 22.3386 69.5165 22.8293C70.0071 23.2986 70.2525 23.8746 70.2525 24.5573ZM84.734 30.9893C84.734 31.992 84.1473 32.4933 82.974 32.4933C81.7793 32.4933 81.182 31.992 81.182 30.9893V8.0453C81.182 7.04264 81.7793 6.5413 82.974 6.5413C84.1473 6.5413 84.734 7.04264 84.734 8.0453V30.9893ZM95.6125 32.2373C94.8445 32.2373 94.4391 31.736 94.3965 30.7333C94.3965 29.7306 94.8018 29.2293 95.6125 29.2293H98.8445C99.6338 29.2293 100.188 29.0053 100.508 28.5573C100.85 28.1093 101.02 27.6293 101.02 27.1173V18.0933C101.02 17.56 100.85 17.0693 100.508 16.6213C100.188 16.152 99.6231 15.9386 98.8125 15.9813H92.6685V35.2133C92.6685 36.216 92.0818 36.7173 90.9085 36.7173C89.7351 36.7173 89.1485 36.2053 89.1485 35.1813V14.8613C89.1485 14.1146 89.3405 13.6133 89.7245 13.3573C90.1085 13.1013 90.5778 12.9733 91.1325 12.9733H99.4205C99.9751 12.9733 100.53 13.0693 101.084 13.2613C101.66 13.4533 102.247 13.72 102.844 14.0613C103.356 14.424 103.762 14.936 104.06 15.5973C104.38 16.2373 104.54 16.9946 104.54 17.8693V27.3413C104.54 29.0906 103.975 30.3386 102.844 31.0853C101.65 31.8533 100.508 32.2373 99.4205 32.2373H95.6125ZM112.075 30.8933C112.075 31.9173 111.488 32.4293 110.315 32.4293C109.141 32.4293 108.555 31.9173 108.555 30.8933V8.1733C108.555 7.1493 109.141 6.6373 110.315 6.6373C111.488 6.6373 112.075 7.1493 112.075 8.1733V12.9733H118.827C119.915 12.9733 121.045 13.3786 122.219 14.1893C123.371 15 123.947 16.28 123.947 18.0293V30.8933C123.947 31.9173 123.36 32.4293 122.187 32.4293C121.013 32.4293 120.427 31.9173 120.427 30.8933V18.3173C120.427 17.7626 120.256 17.2293 119.915 16.7173L119.947 16.7493C119.669 16.2373 119.104 15.9813 118.251 15.9813H112.075V30.8933ZM133.012 32.2373C132.35 32.2373 131.721 32.152 131.124 31.9813C130.526 31.7893 129.95 31.5226 129.396 31.1813V31.2133C128.35 30.552 127.828 29.336 127.828 27.5653V25.9973C127.828 25.1226 127.977 24.3653 128.276 23.7253C128.596 23.064 129.033 22.5413 129.588 22.1573H129.556C130.089 21.7946 130.654 21.528 131.252 21.3573C131.849 21.1653 132.425 21.0693 132.98 21.0693H140.052V18.0933C140.052 17.56 139.881 17.08 139.54 16.6533C139.22 16.2053 138.665 15.9813 137.876 15.9813H134.132C133.321 15.9813 132.756 16.184 132.436 16.5893C132.137 16.9733 131.988 17.432 131.988 17.9653V18.2213C131.988 19.3306 131.39 19.8853 130.196 19.8853C129.001 19.8853 128.404 19.3306 128.404 18.2213V17.9333C128.404 17.0586 128.553 16.3226 128.852 15.7253C129.172 15.128 129.598 14.6266 130.132 14.2213H130.1C130.654 13.8586 131.23 13.56 131.828 13.3253C132.446 13.0906 133.033 12.9733 133.588 12.9733H138.452C138.985 12.9733 139.55 13.0906 140.148 13.3253C140.766 13.56 141.342 13.8586 141.876 14.2213H141.844C142.398 14.6266 142.825 15.16 143.124 15.8213C143.422 16.4613 143.572 17.208 143.572 18.0613V30.8933C143.572 31.9173 142.985 32.4293 141.812 32.4293C141.577 32.4293 141.353 32.4186 141.14 32.3973C140.948 32.376 140.766 32.3226 140.596 32.2373C140.446 32.1306 140.318 31.992 140.212 31.8213C140.126 31.6293 140.084 31.384 140.084 31.0853L140.052 24.0773H133.588C133.118 24.0773 132.756 24.1306 132.5 24.2373C132.244 24.344 132.041 24.5146 131.892 24.7493C131.721 25.112 131.593 25.4 131.508 25.6133C131.444 25.8053 131.412 26.0293 131.412 26.2853V27.5333C131.412 28.088 131.572 28.5146 131.892 28.8133C132.233 29.0906 132.809 29.2293 133.62 29.2293H137.204C137.993 29.2293 138.388 29.7306 138.388 30.7333C138.388 31.16 138.292 31.5226 138.1 31.8213C137.908 32.0986 137.609 32.2373 137.204 32.2373H133.012ZM171.129 8.2053C171.129 7.1813 171.758 6.6693 173.017 6.6693C174.297 6.6693 174.937 7.1813 174.937 8.2053V30.8933C174.937 31.9173 174.297 32.4293 173.017 32.4293C171.758 32.4293 171.129 31.9173 171.129 30.8933V8.2053ZM161.401 30.8933C161.401 31.9173 160.761 32.4293 159.481 32.4293C158.222 32.4293 157.593 31.9173 157.593 30.8933V8.2053C157.593 7.1813 158.222 6.6693 159.481 6.6693C160.761 6.6693 161.401 7.1813 161.401 8.2053V30.8933ZM168.889 19.0213C168.889 19.768 168.633 20.3973 168.121 20.9093C167.609 21.4213 166.979 21.6773 166.233 21.6773C165.507 21.6773 164.889 21.4213 164.377 20.9093C163.865 20.3973 163.609 19.768 163.609 19.0213C163.609 18.2746 163.865 17.6453 164.377 17.1333C164.889 16.6213 165.507 16.3653 166.233 16.3653C166.979 16.3653 167.609 16.6213 168.121 17.1333C168.633 17.6453 168.889 18.2746 168.889 19.0213ZM189.576 12.9733C190.131 12.9733 190.696 13.0906 191.272 13.3253C191.869 13.56 192.445 13.8586 193 14.2213H192.968C193.523 14.6266 193.949 15.16 194.248 15.8213C194.547 16.4613 194.696 17.208 194.696 18.0613V27.1493C194.696 28.8986 194.12 30.1893 192.968 31.0213C191.837 31.832 190.707 32.2373 189.576 32.2373H184.456C183.901 32.2373 183.336 32.1413 182.76 31.9493C182.184 31.7573 181.619 31.448 181.064 31.0213C179.912 30.2106 179.336 28.92 179.336 27.1493V18.0613C179.336 17.208 179.485 16.4613 179.784 15.8213C180.083 15.16 180.509 14.6266 181.064 14.2213H181.032C181.565 13.8586 182.131 13.56 182.728 13.3253C183.325 13.0906 183.901 12.9733 184.456 12.9733H189.576ZM189 29.2293C189.789 29.2293 190.344 29.0053 190.664 28.5573C191.005 28.1093 191.176 27.6293 191.176 27.1173V18.0933C191.176 17.56 191.005 17.08 190.664 16.6533C190.344 16.2053 189.789 15.9813 189 15.9813H185.032C184.243 15.9813 183.677 16.2053 183.336 16.6533C183.016 17.08 182.856 17.56 182.856 18.0933V27.1173C182.856 27.6293 183.016 28.1093 183.336 28.5573C183.677 29.0053 184.243 29.2293 185.032 29.2293H189ZM208.662 18.3173C208.662 18.04 208.62 17.7733 208.534 17.5173C208.449 17.24 208.342 16.984 208.214 16.7493C207.937 16.2373 207.361 15.9813 206.486 15.9813H204.438C203.564 15.9813 202.977 16.2373 202.678 16.7493C202.422 17.24 202.294 17.7626 202.294 18.3173V30.9893C202.294 31.992 201.708 32.4933 200.534 32.4933C199.318 32.4933 198.71 31.992 198.71 30.9893V18.0293C198.71 16.28 199.286 15 200.438 14.1893C201.612 13.3786 202.753 12.9733 203.862 12.9733H207.094C207.585 12.9733 208.129 13.0693 208.726 13.2613C209.324 13.4533 209.9 13.752 210.454 14.1573C210.988 13.752 211.542 13.4533 212.118 13.2613C212.716 13.0693 213.281 12.9733 213.814 12.9733H217.014C218.145 12.9733 219.276 13.3786 220.406 14.1893C221.58 14.9786 222.166 16.2586 222.166 18.0293V30.9893C222.166 31.992 221.569 32.4933 220.374 32.4933C219.18 32.4933 218.582 31.992 218.582 30.9893V18.3173C218.582 18.04 218.55 17.7626 218.486 17.4853C218.422 17.208 218.305 16.952 218.134 16.7173L218.166 16.7493C217.996 16.472 217.782 16.28 217.526 16.1733C217.27 16.0453 216.897 15.9813 216.406 15.9813H214.39C213.494 15.9813 212.908 16.2373 212.63 16.7493C212.353 17.2186 212.214 17.7413 212.214 18.3173V30.9893C212.214 31.992 211.628 32.4933 210.454 32.4933C209.26 32.4933 208.662 31.992 208.662 30.9893V18.3173ZM229.575 27.1173C229.575 27.6293 229.735 28.1093 230.055 28.5573C230.396 29.0053 230.961 29.2293 231.751 29.2293H235.751C236.54 29.2293 237.095 29.0373 237.415 28.6533C237.756 28.248 237.927 27.7893 237.927 27.2773V26.9253C237.927 25.9226 238.513 25.4213 239.687 25.4213C240.86 25.4213 241.447 25.9226 241.447 26.9253V27.3093C241.447 28.2053 241.297 28.9413 240.999 29.5173C240.721 30.0933 240.295 30.5946 239.719 31.0213C238.588 31.832 237.457 32.2373 236.327 32.2373H230.951C229.82 32.2373 228.721 31.832 227.655 31.0213C227.143 30.5946 226.748 30.0613 226.471 29.4213C226.193 28.76 226.055 28.0026 226.055 27.1493V18.0293C226.055 16.3013 226.588 15.0213 227.655 14.1893C228.188 13.8053 228.732 13.5066 229.287 13.2933C229.863 13.0586 230.417 12.9413 230.951 12.9413H236.327C236.839 12.9413 237.404 13.048 238.023 13.2613C238.641 13.4533 239.217 13.72 239.751 14.0613C240.263 14.424 240.668 14.9253 240.967 15.5653C241.287 16.2053 241.447 16.9626 241.447 17.8373V22.1573C241.447 22.648 241.297 23.0853 240.999 23.4693C240.721 23.8533 240.199 24.0453 239.431 24.0453H232.519C231.751 24.0453 231.345 23.544 231.303 22.5413C231.303 21.5386 231.708 21.0373 232.519 21.0373H237.959L237.927 18.0613C237.927 17.528 237.756 17.048 237.415 16.6213C237.095 16.1733 236.54 15.9493 235.751 15.9493H231.751C230.961 15.9493 230.396 16.1733 230.055 16.6213C229.735 17.048 229.575 17.528 229.575 18.0613V27.1173Z" fill="black"/>
<path d="M28.5391 0.924805H13.2138L0.876465 13.2621V28.5874L13.2138 40.9248H28.5391L40.8765 28.5874V13.2621L28.5391 0.924805ZM15.3343 28.7802L7.4307 20.8766L15.3343 12.973C18.3222 9.98505 23.2379 9.98505 26.2259 12.973L34.1295 20.8766L26.2259 28.7802C23.2379 31.7682 18.4186 31.7682 15.3343 28.7802Z" fill="black"/>
</svg>
