<svg width="16" height="16" viewBox="0 0 16 16" fill="none" xmlns="http://www.w3.org/2000/svg">
<path d="M8.00781 11.3071L11.0078 8.30713L8.00781 5.30713L6.95781 6.35713L8.15781 7.55713H5.00781V9.05713H8.15781L6.95781 10.2571L8.00781 11.3071ZM8.00781 15.8071C6.97031 15.8071 5.99531 15.6103 5.08281 15.2165C4.17031 14.8228 3.37656 14.2884 2.70156 13.6134C2.02656 12.9384 1.49219 12.1446 1.09844 11.2321C0.704688 10.3196 0.507812 9.34463 0.507812 8.30713C0.507812 7.26963 0.704688 6.29463 1.09844 5.38213C1.49219 4.46963 2.02656 3.67588 2.70156 3.00088C3.37656 2.32588 4.17031 1.7915 5.08281 1.39775C5.99531 1.004 6.97031 0.807129 8.00781 0.807129C9.04531 0.807129 10.0203 1.004 10.9328 1.39775C11.8453 1.7915 12.6391 2.32588 13.3141 3.00088C13.9891 3.67588 14.5234 4.46963 14.9172 5.38213C15.3109 6.29463 15.5078 7.26963 15.5078 8.30713C15.5078 9.34463 15.3109 10.3196 14.9172 11.2321C14.5234 12.1446 13.9891 12.9384 13.3141 13.6134C12.6391 14.2884 11.8453 14.8228 10.9328 15.2165C10.0203 15.6103 9.04531 15.8071 8.00781 15.8071ZM8.00781 14.3071C9.68281 14.3071 11.1016 13.7259 12.2641 12.5634C13.4266 11.4009 14.0078 9.98213 14.0078 8.30713C14.0078 6.63213 13.4266 5.21338 12.2641 4.05088C11.1016 2.88838 9.68281 2.30713 8.00781 2.30713C6.33281 2.30713 4.91406 2.88838 3.75156 4.05088C2.58906 5.21338 2.00781 6.63213 2.00781 8.30713C2.00781 9.98213 2.58906 11.4009 3.75156 12.5634C4.91406 13.7259 6.33281 14.3071 8.00781 14.3071Z" fill="#FF5E14"/>
</svg>
