<svg width="70" height="62" viewBox="0 0 70 62" fill="none" xmlns="http://www.w3.org/2000/svg">
<path fill-rule="evenodd" clip-rule="evenodd" d="M52.5 23.545V37.4166C52.5 36.7723 51.9777 36.25 51.3333 36.25H37.3333C36.689 36.25 36.1667 36.7723 36.1667 37.4166V43.25C36.1667 43.8943 36.689 44.4166 37.3333 44.4166H29.1667C28.5223 44.4166 28 44.939 28 45.5833V51.4166C28 52.061 28.5223 52.5833 29.1667 52.5833H5.83333C4.54626 52.5795 3.50384 51.5371 3.5 50.25V23.545C6.65 25.05 13.09 27.395 23.3333 27.955V30.4166C23.3333 31.061 23.8557 31.5833 24.5 31.5833V35.0833C24.5038 36.3704 25.5463 37.4128 26.8333 37.4166H29.1667C30.4537 37.4128 31.4962 36.3704 31.5 35.0833V31.5833C32.1443 31.5833 32.6667 31.061 32.6667 30.4166V27.955C42.91 27.395 49.35 25.05 52.5 23.545Z" fill="#1F0E14"/>
<path fill-rule="evenodd" clip-rule="evenodd" d="M54.8334 12.9166L54.8101 20.9433C54.8082 21.7942 54.3432 22.5766 53.5967 22.985C53.2934 23.1483 52.9318 23.335 52.5001 23.545C49.3501 25.05 42.9101 27.395 32.6667 27.955V25.75C32.6667 25.1056 32.1444 24.5833 31.5001 24.5833H24.5001C23.8558 24.5833 23.3334 25.1056 23.3334 25.75V27.955C13.0901 27.395 6.65008 25.05 3.50008 23.545C3.06841 23.335 2.70675 23.1483 2.40341 22.985C1.65696 22.5766 1.19201 21.7942 1.19008 20.9433L1.16675 12.9166C1.17059 11.6296 2.21301 10.5872 3.50008 10.5833H52.5001C53.7872 10.5872 54.8296 11.6296 54.8334 12.9166Z" fill="#1F0E14"/>
<path fill-rule="evenodd" clip-rule="evenodd" d="M19.8335 25.75V27.682C20.9477 27.7986 22.112 27.8885 23.3335 27.955V25.75C23.3335 25.1056 23.8558 24.5833 24.5002 24.5833H21.0002C20.3558 24.5833 19.8335 25.1056 19.8335 25.75Z" fill="#1F0E14"/>
<path fill-rule="evenodd" clip-rule="evenodd" d="M52.5001 10.5833H49.0001C50.2872 10.5872 51.3296 11.6296 51.3334 12.9166L51.3101 20.9433C51.3082 21.7942 50.8432 22.5766 50.0967 22.985C49.7934 23.1483 49.4317 23.335 49.0001 23.545C43.8303 25.842 38.3067 27.2411 32.6667 27.682V27.955C42.9101 27.395 49.3501 25.05 52.5001 23.545C52.9317 23.335 53.2934 23.1483 53.5967 22.985C54.3432 22.5766 54.8082 21.7942 54.8101 20.9433L54.8334 12.9166C54.8296 11.6296 53.7872 10.5872 52.5001 10.5833Z" fill="#1F0E14"/>
<path d="M31.5002 24.5833H24.5002C23.8558 24.5833 23.3335 25.1056 23.3335 25.75V30.4166C23.3335 31.061 23.8558 31.5833 24.5002 31.5833H31.5002C32.1445 31.5833 32.6668 31.061 32.6668 30.4166V25.75C32.6668 25.1056 32.1445 24.5833 31.5002 24.5833Z" fill="#1F0E14"/>
<path fill-rule="evenodd" clip-rule="evenodd" d="M31.5 24.5833H28C28.6443 24.5833 29.1667 25.1056 29.1667 25.75V30.4166C29.1667 31.061 28.6443 31.5833 28 31.5833H31.5C32.1443 31.5833 32.6667 31.061 32.6667 30.4166V25.75C32.6667 25.1056 32.1443 24.5833 31.5 24.5833Z" fill="#1F0E14"/>
<path fill-rule="evenodd" clip-rule="evenodd" d="M31.5 31.5833V35.0833C31.4962 36.3704 30.4537 37.4128 29.1667 37.4166H26.8333C25.5463 37.4128 24.5038 36.3704 24.5 35.0833V31.5833H31.5Z" fill="#1F0E14"/>
<path fill-rule="evenodd" clip-rule="evenodd" d="M42 4.75V10.5833H37.3333V5.91667H18.6667V10.5833H14V4.75C14 2.817 15.567 1.25 17.5 1.25H38.5C40.433 1.25 42 2.817 42 4.75Z" fill="#1F0E14"/>
<path fill-rule="evenodd" clip-rule="evenodd" d="M38.5 1.25H35C36.933 1.25 38.5 2.817 38.5 4.75V10.5833H42V4.75C42 2.817 40.433 1.25 38.5 1.25Z" fill="#F5A29C"/>
<path d="M59.5002 44.4167H45.5002C44.8558 44.4167 44.3335 44.939 44.3335 45.5834V51.4167C44.3335 52.061 44.8558 52.5834 45.5002 52.5834H59.5002C60.1445 52.5834 60.6668 52.061 60.6668 51.4167V45.5834C60.6668 44.939 60.1445 44.4167 59.5002 44.4167Z" fill="#1F0E14"/>
<path fill-rule="evenodd" clip-rule="evenodd" d="M59.5 44.4167H56C56.6443 44.4167 57.1667 44.939 57.1667 45.5834V51.4167C57.1667 52.061 56.6443 52.5834 56 52.5834H59.5C60.1443 52.5834 60.6667 52.061 60.6667 51.4167V45.5834C60.6667 44.939 60.1443 44.4167 59.5 44.4167Z" fill="#1F0E14"/>
<path d="M51.3334 52.5833H37.3334C36.6891 52.5833 36.1667 53.1056 36.1667 53.75V59.5833C36.1667 60.2276 36.6891 60.75 37.3334 60.75H51.3334C51.9777 60.75 52.5001 60.2276 52.5001 59.5833V53.75C52.5001 53.1056 51.9777 52.5833 51.3334 52.5833Z" fill="#1F0E14"/>
<path d="M43.1667 44.4167H29.1667C28.5223 44.4167 28 44.939 28 45.5834V51.4167C28 52.061 28.5223 52.5834 29.1667 52.5834H43.1667C43.811 52.5834 44.3333 52.061 44.3333 51.4167V45.5834C44.3333 44.939 43.811 44.4167 43.1667 44.4167Z" fill="#1F0E14"/>
<path d="M51.3334 36.25H37.3334C36.6891 36.25 36.1667 36.7723 36.1667 37.4167V43.25C36.1667 43.8943 36.6891 44.4167 37.3334 44.4167H51.3334C51.9777 44.4167 52.5001 43.8943 52.5001 43.25V37.4167C52.5001 36.7723 51.9777 36.25 51.3334 36.25Z" fill="#1F0E14"/>
<path fill-rule="evenodd" clip-rule="evenodd" d="M51.3335 36.25H47.8335C48.4778 36.25 49.0002 36.7723 49.0002 37.4167V43.25C49.0002 43.8943 48.4778 44.4167 47.8335 44.4167H51.3335C51.9778 44.4167 52.5002 43.8943 52.5002 43.25V37.4167C52.5002 36.7723 51.9778 36.25 51.3335 36.25Z" fill="#1F0E14"/>
<path d="M35.0002 52.5833H21.0002C20.3558 52.5833 19.8335 53.1056 19.8335 53.75V59.5833C19.8335 60.2276 20.3558 60.75 21.0002 60.75H35.0002C35.6445 60.75 36.1668 60.2276 36.1668 59.5833V53.75C36.1668 53.1056 35.6445 52.5833 35.0002 52.5833Z" fill="#1F0E14"/>
<path d="M67.6667 52.5833H53.6667C53.0223 52.5833 52.5 53.1056 52.5 53.75V59.5833C52.5 60.2276 53.0223 60.75 53.6667 60.75H67.6667C68.311 60.75 68.8333 60.2276 68.8333 59.5833V53.75C68.8333 53.1056 68.311 52.5833 67.6667 52.5833Z" fill="#1F0E14"/>
<path fill-rule="evenodd" clip-rule="evenodd" d="M67.6667 52.5833H64.1667C64.8111 52.5833 65.3334 53.1056 65.3334 53.75V59.5833C65.3334 60.2276 64.8111 60.75 64.1667 60.75H67.6667C68.3111 60.75 68.8334 60.2276 68.8334 59.5833V53.75C68.8334 53.1056 68.3111 52.5833 67.6667 52.5833Z" fill="#1F0E14"/>
<path fill-rule="evenodd" clip-rule="evenodd" d="M47.8334 51.4167C47.8334 52.061 47.3111 52.5834 46.6667 52.5834H49.0001C48.3557 52.5834 47.8334 52.061 47.8334 51.4167Z" fill="#1F0E14"/>
<path fill-rule="evenodd" clip-rule="evenodd" d="M19.8335 53.75V59.5833C19.8335 60.2276 20.3558 60.75 21.0002 60.75H24.5002C23.8558 60.75 23.3335 60.2276 23.3335 59.5833V53.75C23.3335 53.1056 23.8558 52.5833 24.5002 52.5833H21.0002C20.3558 52.5833 19.8335 53.1056 19.8335 53.75Z" fill="#1F0E14"/>
<path fill-rule="evenodd" clip-rule="evenodd" d="M47.8334 45.5834C47.8334 44.939 48.3557 44.4167 49.0001 44.4167H46.6667C47.3111 44.4167 47.8334 44.939 47.8334 45.5834Z" fill="#1F0E14"/>
<path fill-rule="evenodd" clip-rule="evenodd" d="M17.5 4.75C17.5 2.817 19.067 1.25 21 1.25H17.5C15.567 1.25 14 2.817 14 4.75V10.5833H17.5V4.75Z" fill="#1F0E14"/>
<path fill-rule="evenodd" clip-rule="evenodd" d="M2.40341 22.985C2.70675 23.1483 3.06841 23.335 3.50008 23.545V50.25C3.50393 51.5371 4.54635 52.5795 5.83342 52.5833H9.33342C8.04635 52.5795 7.00393 51.5371 7.00008 50.25V23.545C6.56842 23.335 6.20675 23.1483 5.90342 22.985C5.15696 22.5766 4.69201 21.7942 4.69008 20.9433L4.66675 12.9166C4.67059 11.6296 5.71301 10.5872 7.00008 10.5833H3.50008C2.21301 10.5872 1.17059 11.6296 1.16675 12.9166L1.19008 20.9433C1.19201 21.7942 1.65696 22.5766 2.40341 22.985Z" fill="#1F0E14"/>
<path fill-rule="evenodd" clip-rule="evenodd" d="M2.33325 40.9166H4.66659V50.25H2.33325V40.9166Z" fill="#1F0E14"/>
<path d="M3.49992 46.75C4.14425 46.75 4.66659 46.2276 4.66659 45.5833C4.66659 44.939 4.14425 44.4166 3.49992 44.4166C2.85559 44.4166 2.33325 44.939 2.33325 45.5833C2.33325 46.2276 2.85559 46.75 3.49992 46.75Z" fill="#F5A29C"/>
<path d="M67.6667 51.4166H61.8333V45.5833C61.8333 44.2947 60.7887 43.25 59.5 43.25H53.6667V24.2648C53.8452 24.1738 54.0097 24.0875 54.1567 24.0081C55.2771 23.3968 55.9749 22.2231 55.9767 20.9468L56 12.9166C56 10.9837 54.433 9.41665 52.5 9.41665H43.1667V4.74998C43.1667 2.17265 41.0773 0.083313 38.5 0.083313H17.5C14.9227 0.083313 12.8333 2.17265 12.8333 4.74998V9.41665H3.5C1.567 9.41665 0 10.9837 0 12.9166L0.0233333 20.9433C0.0250356 22.2227 0.724689 23.3992 1.848 24.0116C1.99267 24.0898 2.156 24.175 2.33333 24.2648V40.9166C2.33333 41.561 2.85567 42.0833 3.5 42.0833C4.14433 42.0833 4.66667 41.561 4.66667 40.9166V25.3253C10.2672 27.4805 16.1737 28.7354 22.1667 29.0435V30.4166C22.1692 31.2465 22.6138 32.0122 23.3333 32.4256V35.0833C23.3333 37.0163 24.9003 38.5833 26.8333 38.5833H29.1667C31.0997 38.5833 32.6667 37.0163 32.6667 35.0833V32.4256C33.3862 32.0122 33.8308 31.2465 33.8333 30.4166V29.0435C39.8264 28.7355 45.7328 27.4806 51.3333 25.3253V35.0833H37.3333C36.0447 35.0833 35 36.128 35 37.4166V43.25H29.1667C27.878 43.25 26.8333 44.2947 26.8333 45.5833V51.4166H5.83333C5.189 51.4166 4.66667 50.8943 4.66667 50.25C4.66667 49.6057 4.14433 49.0833 3.5 49.0833C2.85567 49.0833 2.33333 49.6057 2.33333 50.25C2.33333 52.183 3.90034 53.75 5.83333 53.75H18.6667V59.5833C18.6667 60.872 19.7113 61.9166 21 61.9166H35C35.4108 61.9143 35.8136 61.8024 36.1667 61.5923C36.5198 61.8024 36.9225 61.9143 37.3333 61.9166H51.3333C51.7442 61.9143 52.1469 61.8024 52.5 61.5923C52.8531 61.8024 53.2558 61.9143 53.6667 61.9166H67.6667C68.9553 61.9166 70 60.872 70 59.5833V53.75C70 52.4613 68.9553 51.4166 67.6667 51.4166ZM15.1667 4.74998C15.1667 3.46132 16.2113 2.41665 17.5 2.41665H38.5C39.7887 2.41665 40.8333 3.46132 40.8333 4.74998V9.41665H38.5V5.91665C38.5 5.27231 37.9777 4.74998 37.3333 4.74998H18.6667C18.0223 4.74998 17.5 5.27231 17.5 5.91665V9.41665H15.1667V4.74998ZM36.1667 9.41665H19.8333V7.08331H36.1667V9.41665ZM31.5 30.4166H24.5V25.75H31.5V30.4166ZM30.3333 35.0833C30.3333 35.7276 29.811 36.25 29.1667 36.25H26.8333C26.189 36.25 25.6667 35.7276 25.6667 35.0833V32.75H30.3333V35.0833ZM31.5 23.4166H24.5C23.2113 23.4166 22.1667 24.4613 22.1667 25.75V26.7055C11.3738 25.932 5.16833 23.153 2.96333 21.9606C2.59011 21.7564 2.35763 21.3653 2.35667 20.9398L2.33333 12.9166C2.33333 12.2723 2.85567 11.75 3.5 11.75H52.5C53.1443 11.75 53.6667 12.2723 53.6667 12.9166L53.6433 20.9468C53.6432 21.3697 53.4124 21.7589 53.0413 21.9618C52.7753 22.1053 52.4452 22.2745 52.0613 22.4588L52.0205 22.4786C49.2077 23.8191 43.2763 26.0288 33.8333 26.7055V25.75C33.8333 24.4613 32.7887 23.4166 31.5 23.4166ZM59.5 45.5833V51.4166H45.5V45.5833H59.5ZM37.3333 37.4166H51.3333V43.25H37.3333V37.4166ZM29.1667 45.5833H43.1667V51.4166H29.1667V45.5833ZM21 59.5833V53.75H35V59.5833H21ZM37.3333 59.5833V53.75H51.3333V59.5833H37.3333ZM53.6667 59.5833V53.75H67.6667V59.5833H53.6667Z" fill="#F5A29C"/>
<path fill-rule="evenodd" clip-rule="evenodd" d="M8.16667 43.25C7.52233 43.25 7 43.7723 7 44.4167V47.9167C7 48.561 7.52233 49.0833 8.16667 49.0833H11.6667C12.311 49.0833 12.8333 48.561 12.8333 47.9167C12.8333 47.2723 12.311 46.75 11.6667 46.75H9.33333V44.4167C9.33333 43.7723 8.811 43.25 8.16667 43.25Z" fill="#F5A29C"/>
</svg>
