<svg width="29" height="29" viewBox="0 0 29 29" fill="none" xmlns="http://www.w3.org/2000/svg">
<g clip-path="url(#clip0_296_3758)">
<path d="M27.9459 2.48411C28.2093 2.48411 28.4228 2.27055 28.4228 2.00718V0.505737C28.4228 0.242363 28.2093 0.0288086 27.9459 0.0288086H6.36365C6.10027 0.0288086 5.88672 0.242363 5.88672 0.505737V22.0878C5.88672 22.3512 6.10027 22.5648 6.36365 22.5648H27.9458C28.2092 22.5648 28.4227 22.3512 28.4227 22.0878V3.59689C28.4227 3.33351 28.2092 3.11996 27.9458 3.11996C27.6823 3.11996 27.4688 3.33351 27.4688 3.59689V11.7681H25.5748C25.3114 11.7681 25.0979 11.9816 25.0979 12.245C25.0979 12.5084 25.3113 12.7219 25.5748 12.7219H27.4688V21.611H13.8427V19.3033C13.8427 19.04 13.6291 18.8264 13.3658 18.8264C13.1024 18.8264 12.8888 19.04 12.8888 19.3033V21.611H6.84058V0.982666H12.8889V15.8696C12.8889 16.1329 13.1024 16.3465 13.3658 16.3465C13.6292 16.3465 13.8428 16.1329 13.8428 15.8696V12.7219H22.3318C22.5952 12.7219 22.8088 12.5084 22.8088 12.245C22.8088 11.9816 22.5953 11.7681 22.3318 11.7681H13.8427V0.982666H27.4689V2.00718C27.4689 2.27055 27.6824 2.48411 27.9459 2.48411Z" fill="#FF5E14"/>
<path d="M4.45117 2.78128L2.87743 0.253683C2.79037 0.113847 2.63725 0.0288086 2.47258 0.0288086C2.30786 0.0288086 2.15479 0.113847 2.06773 0.253683L0.493938 2.78128C0.402392 2.92833 0.397743 3.11345 0.481852 3.26488C0.565962 3.41631 0.725594 3.51026 0.898789 3.51026H1.99565V5.5046C1.99565 5.76798 2.20921 5.98153 2.47258 5.98153C2.73596 5.98153 2.94951 5.76798 2.94951 5.5046V3.51026H4.04638C4.21957 3.51026 4.3792 3.41636 4.46331 3.26488C4.54742 3.1134 4.54277 2.92828 4.45117 2.78128ZM1.75755 2.55641L2.47253 1.40808L3.18751 2.55641H1.75755Z" fill="#FF5E14"/>
<path d="M4.46326 19.3286C4.37915 19.1772 4.21952 19.0833 4.04632 19.0833H2.94946V6.77625C2.94946 6.51287 2.7359 6.29932 2.47253 6.29932C2.20915 6.29932 1.9956 6.51287 1.9956 6.77625V19.0833H0.898789C0.725594 19.0833 0.565962 19.1772 0.481852 19.3286C0.397743 19.4801 0.402392 19.6652 0.493938 19.8122L2.06768 22.3398C2.15474 22.4797 2.30781 22.5647 2.47253 22.5647C2.6373 22.5647 2.79037 22.4797 2.87738 22.3398L4.45112 19.8122C4.54277 19.6651 4.54742 19.4801 4.46326 19.3286ZM2.47258 21.1855L1.75755 20.0372H3.18751L2.47258 21.1855Z" fill="#FF5E14"/>
<path d="M28.1979 25.5733L25.6703 23.9995C25.5233 23.908 25.3382 23.9034 25.1867 23.9874C25.0353 24.0716 24.9414 24.2312 24.9414 24.4044V25.5012H9.36817V24.4044C9.36817 24.2312 9.27428 24.0716 9.12285 23.9874C8.97142 23.9034 8.78635 23.908 8.63919 23.9995L6.11159 25.5733C5.97176 25.6603 5.88672 25.8134 5.88672 25.9781C5.88672 26.1428 5.97176 26.2959 6.11159 26.383L8.63919 27.9567C8.71619 28.0047 8.80369 28.0287 8.89124 28.0287C8.97092 28.0287 9.05066 28.0088 9.12279 27.9688C9.27427 27.8847 9.36817 27.7251 9.36817 27.5519V26.455H24.9413V27.5519C24.9413 27.7251 25.0353 27.8847 25.1867 27.9688C25.2589 28.0089 25.3386 28.0287 25.4183 28.0287C25.5058 28.0287 25.5933 28.0046 25.6703 27.9567L28.1979 26.383C28.3378 26.2959 28.4228 26.1428 28.4228 25.9781C28.4228 25.8133 28.3378 25.6603 28.1979 25.5733ZM8.41432 26.6931L7.26599 25.9781L8.41432 25.2631V26.6931ZM25.8952 26.6931V25.2631L27.0436 25.9781L25.8952 26.6931Z" fill="#FF5E14"/>
</g>
<defs>
<clipPath id="clip0_296_3758">
<rect width="28" height="28" fill="white" transform="translate(0.421875 0.0288086)"/>
</clipPath>
</defs>
</svg>
