<svg width="40" height="40" viewBox="0 0 40 40" fill="none" xmlns="http://www.w3.org/2000/svg">
<g clip-path="url(#clip0_65_188)">
<path d="M26.9806 8.83649V8.63712C26.9799 7.34806 26.579 6.09103 25.8333 5.03957C25.0875 3.98811 24.0338 3.19409 22.8175 2.76712V5.01712H21.5675V2.46274H21.5625V0.843994H18.2037V2.46274V5.01587H16.9537V2.74712C15.7288 3.16702 14.6672 3.96197 13.9195 5.0192C13.1717 6.07643 12.7759 7.34226 12.7881 8.63712V8.83649H11.5V10.9915H28.2663V8.83649H26.9806ZM23.6725 8.83649H16.0963V7.58649H23.6725V8.83649Z" fill="#FF5E14"/>
<path d="M12.8125 12.2415C13.0331 16.5965 16.1112 20.0508 19.8875 20.0508C23.6637 20.0508 26.7381 16.5946 26.9587 12.2415H12.8125Z" fill="#FF5E14"/>
<path d="M28.2669 31.949C28.7487 31.9483 29.2106 31.7566 29.5513 31.4159C29.892 31.0752 30.0837 30.6133 30.0844 30.1315V19.2883H26.4487V30.1315C26.4494 30.6134 26.6412 31.0754 26.982 31.4161C27.3229 31.7568 27.7849 31.9485 28.2669 31.949Z" fill="#FF5E14"/>
<path d="M14.57 29.4577H25.1987V20.1165H24.1656C24.1549 21.0988 23.7577 22.0374 23.0599 22.7289C22.362 23.4204 21.4199 23.8091 20.4375 23.8108H19.3325C18.3498 23.8096 17.4072 23.4211 16.7089 22.7295C16.0107 22.038 15.6132 21.0991 15.6025 20.1165H14.57V29.4577Z" fill="#FF5E14"/>
<path d="M20.4375 22.5608C21.0883 22.5593 21.7124 22.3022 22.1755 21.8451C22.6387 21.3879 22.9038 20.7671 22.9137 20.1165H16.8544C16.865 20.767 17.1307 21.3874 17.5941 21.8441C18.0576 22.3008 18.6818 22.5573 19.3325 22.5583L20.4375 22.5608Z" fill="#FF5E14"/>
<path d="M31.3344 30.1315V31.064H36.3431V25.2315C36.3427 23.8941 35.818 22.6101 34.8815 21.6551C33.9451 20.7002 32.6716 20.1505 31.3344 20.124V30.1315Z" fill="#FF5E14"/>
<path d="M3.69375 32.314H8.43437V39.2883H3.69375V32.314Z" fill="#FF5E14"/>
<path d="M31.3344 32.314H36.3431V39.2883H31.3344V32.314Z" fill="#FF5E14"/>
<path d="M11.5 31.949C11.9819 31.9485 12.444 31.7568 12.7848 31.4161C13.1257 31.0754 13.3175 30.6134 13.3181 30.1315V19.2883H9.6875V30.1315C9.68816 30.6124 9.87917 31.0736 10.2188 31.4141C10.5584 31.7547 11.019 31.947 11.5 31.949Z" fill="#FF5E14"/>
<path d="M8.4375 31.0639V20.1377C7.14995 20.2307 5.94536 20.8077 5.06589 21.7527C4.18643 22.6977 3.69731 23.9405 3.69688 25.2314V31.0639H8.4375Z" fill="#FF5E14"/>
<path d="M30.0844 36.4622H24.4863V35.2122H30.0844V32.5872C29.5603 32.9816 28.9227 33.1958 28.2669 33.1978C27.554 33.1966 26.8638 32.9473 26.3147 32.4928C25.7655 32.0382 25.3918 31.4066 25.2575 30.7065H14.5113C14.3772 31.4072 14.0032 32.0393 13.4537 32.4941C12.9042 32.949 12.2134 33.1982 11.5 33.199C10.8441 33.1971 10.2065 32.9829 9.6825 32.5884V35.2134H15.2156V36.4634H9.6875V39.2897H30.0875L30.0844 36.4622Z" fill="#FF5E14"/>
</g>
<defs>
<clipPath id="clip0_65_188">
<rect width="40" height="40" fill="white" transform="translate(0 -0.00854492)"/>
</clipPath>
</defs>
</svg>
