<svg width="28" height="27" viewBox="0 0 28 27" fill="none" xmlns="http://www.w3.org/2000/svg">
<g clip-path="url(#clip0_138_387)">
<path d="M11.2609 13.3303C9.7505 13.3303 8.52173 14.4713 8.52173 15.8738C8.52173 17.2763 9.7505 18.4173 11.2609 18.4173C12.7712 18.4173 14 17.2763 14 15.8738C14 14.4713 12.7712 13.3303 11.2609 13.3303ZM11.2609 16.7216C10.7574 16.7216 10.3478 16.3412 10.3478 15.8738C10.3478 15.4063 10.7574 15.0259 11.2609 15.0259C11.7643 15.0259 12.1739 15.4063 12.1739 15.8738C12.1739 16.3412 11.7643 16.7216 11.2609 16.7216Z" fill="black"/>
<path d="M11.2608 20.1128C10.7566 20.1128 10.3478 20.4924 10.3478 20.9606V22.6563C10.3478 23.1245 10.7566 23.5041 11.2608 23.5041C11.7651 23.5041 12.1739 23.1245 12.1739 22.6563V20.9606C12.1739 20.4924 11.7651 20.1128 11.2608 20.1128Z" fill="black"/>
<path d="M24.5761 21.8085H22.2174V6.40639C22.2174 3.36764 19.5551 0.895508 16.2826 0.895508C13.0101 0.895508 10.3478 3.36764 10.3478 6.40639V6.69356C9.28505 7.04359 8.52172 7.9862 8.52172 9.09247C8.52172 9.09247 8.52265 9.66365 8.52445 10.4333C5.8487 11.4409 3.95652 13.8798 3.95652 16.7216V18.4173H3.04345C1.53309 18.4173 0.304321 19.5583 0.304321 20.9608V24.3521C0.304321 25.7545 1.53309 26.8955 3.04345 26.8955C3.12991 26.8955 26.5601 26.8955 26.7826 26.8955C27.2868 26.8955 27.6956 26.5159 27.6956 26.0477V24.7053C27.6956 23.108 26.2962 21.8085 24.5761 21.8085ZM3.95652 25.1999H3.04345C2.54 25.1999 2.13039 24.8195 2.13039 24.352V20.9607C2.13039 20.4932 2.54 20.1129 3.04345 20.1129H3.95652V25.1999ZM12.1739 6.40639C12.1739 4.30268 14.017 2.5912 16.2826 2.5912C18.5481 2.5912 20.3913 4.30268 20.3913 6.40639V18.5625C20.1056 18.4685 19.7982 18.4172 19.4782 18.4172H18.5651V16.7216C18.5651 13.8797 16.6729 11.4409 13.9972 10.4332C13.999 9.66355 13.9999 9.09216 13.9999 9.09114C13.9999 7.98584 13.2365 7.04349 12.1739 6.69351L12.1739 6.40639ZM20.3913 20.9607V21.8085H18.5652V20.1129H19.4783C19.9817 20.1129 20.3913 20.4932 20.3913 20.9607ZM11.2609 8.24335C11.7643 8.24335 12.1739 8.6237 12.1739 9.08993C12.1739 9.09003 12.1733 9.45388 12.1722 9.99175C11.8735 9.95707 11.5695 9.93904 11.2609 9.93904C10.9524 9.93904 10.6482 9.95707 10.3496 9.99175C10.3485 9.45459 10.3479 9.0912 10.3479 9.0912C10.3478 8.62365 10.7574 8.24335 11.2609 8.24335ZM14.913 24.7053V25.1999H5.78259V19.2651V16.7216C5.78259 13.9166 8.24013 11.6346 11.2609 11.6346C14.2816 11.6346 16.7391 13.9166 16.7391 16.7216V22.0704C15.6629 22.5277 14.913 23.5364 14.913 24.7053ZM25.8695 25.1999H16.7391V24.7053C16.7391 24.043 17.3193 23.5042 18.0326 23.5042H24.5761C25.2893 23.5042 25.8695 24.0431 25.8695 24.7053V25.1999Z" fill="black"/>
</g>
<defs>
<clipPath id="clip0_138_387">
<rect width="28" height="26" fill="white" transform="translate(0 0.895508)"/>
</clipPath>
</defs>
</svg>
