<svg width="37" height="34" viewBox="0 0 37 34" fill="none" xmlns="http://www.w3.org/2000/svg">
<path d="M29.3575 29.3664C29.3576 29.2488 29.391 29.1336 29.4537 29.0341C29.5164 28.9346 29.6058 28.8548 29.7118 28.8039C30.4078 28.4701 31.0132 27.9739 31.4771 27.357C31.9409 26.7401 32.2496 26.0207 32.3771 25.2595C32.5045 24.4982 32.447 23.7175 32.2094 22.9832C31.9718 22.2488 31.5611 21.5824 31.0119 21.0402V24.1789C31.012 24.29 30.9825 24.3991 30.9265 24.495C30.8705 24.5909 30.7899 24.6701 30.6931 24.7245L27.9375 26.2702C27.8441 26.3225 27.7389 26.35 27.6318 26.35C27.5248 26.35 27.4196 26.3225 27.3262 26.2702L24.5712 24.7239C24.474 24.6699 24.393 24.5909 24.3366 24.4951C24.2801 24.3992 24.2502 24.2901 24.25 24.1789V21.0352C23.3397 21.9446 22.8249 23.1765 22.8175 24.4633C22.8089 25.3705 23.0606 26.2613 23.5428 27.0298C24.025 27.7984 24.7175 28.4126 25.5381 28.7995C25.6472 28.8493 25.7396 28.9294 25.8045 29.0302C25.8693 29.131 25.9037 29.2484 25.9037 29.3683V33.1302C27.0432 33.3585 28.2167 33.3585 29.3562 33.1302L29.3575 29.3664Z" fill="#FF5E14"/>
<path d="M27.6312 15.6001C25.5461 15.5988 23.5276 16.3341 21.9319 17.6762C20.3362 19.0184 19.2659 20.8811 18.9099 22.9356C18.5539 24.9901 18.9352 27.1043 19.9863 28.905C21.0375 30.7058 22.691 32.0773 24.655 32.7776V29.7538C23.7139 29.2292 22.9309 28.4615 22.388 27.5308C21.8451 26.6001 21.5622 25.5407 21.5687 24.4632C21.5733 23.4072 21.8515 22.3704 22.3762 21.4539C22.9009 20.5374 23.6542 19.7725 24.5625 19.2339C24.6576 19.179 24.7654 19.1501 24.8752 19.1501C24.9849 19.1501 25.0927 19.1791 25.1878 19.234C25.2828 19.2889 25.3617 19.3679 25.4165 19.463C25.4713 19.5581 25.5001 19.666 25.5 19.7757V23.8126L27.63 25.0089L29.7606 23.8126V19.7757C29.7607 19.6655 29.7898 19.5573 29.8452 19.4621C29.9005 19.3668 29.98 19.2878 30.0757 19.2332C30.1714 19.1786 30.2798 19.1502 30.39 19.151C30.5002 19.1517 30.6082 19.1816 30.7031 19.2376C31.622 19.7776 32.3823 20.5502 32.9073 21.4777C33.4324 22.4051 33.7037 23.4546 33.6938 24.5203C33.684 25.586 33.3934 26.6303 32.8514 27.5479C32.3093 28.4655 31.5349 29.224 30.6062 29.747V32.7776C32.5702 32.0774 34.2236 30.7059 35.2748 28.9053C36.3259 27.1047 36.7073 24.9906 36.3514 22.9362C35.9956 20.8818 34.9256 19.0191 33.3301 17.6768C31.7346 16.3346 29.7162 15.5991 27.6312 15.6001Z" fill="#FF5E14"/>
<path d="M10.5087 14.2446C10.4213 14.2445 10.3358 14.2703 10.263 14.3188C10.1902 14.3673 10.1335 14.4364 10.1 14.5171C10.0665 14.5979 10.0577 14.6868 10.0747 14.7726C10.0917 14.8583 10.1338 14.9371 10.1956 14.999C10.2575 15.0608 10.3363 15.1029 10.422 15.1199C10.5078 15.1369 10.5967 15.1281 10.6775 15.0946C10.7583 15.0611 10.8273 15.0044 10.8758 14.9316C10.9243 14.8588 10.9501 14.7733 10.95 14.6859C10.95 14.5689 10.9035 14.4566 10.8207 14.3739C10.738 14.2911 10.6257 14.2446 10.5087 14.2446Z" fill="#FF5E14"/>
<path d="M24.4506 4.36084H5.24438C5.05298 4.36117 4.86953 4.43744 4.73431 4.5729C4.59908 4.70836 4.52313 4.89194 4.52313 5.08334V24.289C4.52313 24.4803 4.5991 24.6638 4.73434 24.7992C4.86959 24.9345 5.05304 25.0107 5.24438 25.0108H17.5625C17.5525 24.8233 17.5344 24.6402 17.5344 24.4483C17.5344 24.1127 17.5525 23.7808 17.585 23.4533C15.737 24.0287 13.7546 24.0058 11.9204 23.3878C10.0862 22.7699 8.49406 21.5885 7.37103 20.0121C6.248 18.4358 5.65147 16.5451 5.66654 14.6097C5.68161 12.6743 6.30751 10.793 7.45495 9.23439C8.60239 7.67573 10.2128 6.51926 12.0563 5.92994C13.8999 5.34063 15.8825 5.34858 17.7213 5.95266C19.5601 6.55673 21.1611 7.72609 22.296 9.29389C23.4309 10.8617 24.0417 12.7479 24.0413 14.6833C24.0413 14.7971 24.0344 14.9102 24.03 15.024C24.4044 14.8809 24.7869 14.7603 25.1756 14.6627V5.08334C25.1756 4.98827 25.1567 4.89416 25.1202 4.80637C25.0837 4.71859 25.0303 4.63886 24.9629 4.57176C24.8956 4.50465 24.8157 4.45148 24.7278 4.41529C24.6399 4.3791 24.5457 4.3606 24.4506 4.36084Z" fill="#FF5E14"/>
<path d="M17.7025 26.2609H5.2444C4.72169 26.2602 4.22058 26.0522 3.85103 25.6826C3.48147 25.3129 3.27365 24.8117 3.27315 24.289V5.08339C3.27348 4.56057 3.48123 4.05924 3.8508 3.68943C4.22038 3.31962 4.72158 3.11155 5.2444 3.11089H24.4506C24.9736 3.11139 25.4749 3.31938 25.8447 3.68921C26.2144 4.05903 26.4222 4.56046 26.4225 5.08339V14.429C27.3937 14.3017 28.3788 14.3277 29.3419 14.5059V1.47589C29.3417 1.13536 29.2063 0.808834 28.9655 0.568102C28.7246 0.327371 28.3981 0.192139 28.0575 0.192139H1.63752C1.297 0.192139 0.970404 0.327371 0.729555 0.568102C0.488706 0.808834 0.353315 1.13536 0.353149 1.47589V27.8959C0.353481 28.2363 0.488945 28.5627 0.729776 28.8033C0.970607 29.0439 1.2971 29.179 1.63752 29.179H18.7132C18.2274 28.2644 17.8865 27.28 17.7025 26.2609Z" fill="#FF5E14"/>
<path d="M19.1875 14.2446C19.1 14.2445 19.0145 14.2703 18.9418 14.3188C18.869 14.3673 18.8123 14.4364 18.7788 14.5171C18.7452 14.5979 18.7364 14.6868 18.7535 14.7726C18.7705 14.8583 18.8126 14.9371 18.8744 14.999C18.9363 15.0608 19.015 15.1029 19.1008 15.1199C19.1866 15.1369 19.2755 15.1281 19.3563 15.0946C19.437 15.0611 19.506 15.0044 19.5545 14.9316C19.603 14.8588 19.6289 14.7733 19.6287 14.6859C19.6286 14.5689 19.582 14.4568 19.4993 14.3741C19.4166 14.2913 19.3045 14.2448 19.1875 14.2446Z" fill="#FF5E14"/>
<path d="M22.7262 15.629C22.7655 15.3161 22.7864 15.0012 22.7887 14.6858C22.7863 12.8736 22.1648 11.1166 21.0272 9.7059C19.8896 8.2952 18.3043 7.31545 16.5337 6.92896V8.69145C16.499 9.10581 16.3024 9.48979 15.9865 9.76024C15.6707 10.0307 15.261 10.1659 14.8462 10.1365C14.4315 10.1659 14.0218 10.0307 13.706 9.76024C13.3901 9.48979 13.1935 9.10581 13.1587 8.69145V6.92896C11.3883 7.31428 9.80289 8.29376 8.66603 9.70466C7.52917 11.1156 6.90924 12.873 6.90924 14.6849C6.90924 16.4968 7.52917 18.2542 8.66603 19.6651C9.80289 21.076 11.3883 22.0555 13.1587 22.4408V20.679C13.1935 20.2646 13.3901 19.8806 13.706 19.6102C14.0218 19.3397 14.4315 19.2046 14.8462 19.234C15.261 19.2046 15.6707 19.3397 15.9865 19.6102C16.3024 19.8806 16.499 20.2646 16.5337 20.679V22.4415C16.9777 22.3445 17.4126 22.2098 17.8337 22.039C18.1669 20.6924 18.773 19.4287 19.6146 18.3261C20.4562 17.2235 21.5153 16.3054 22.7262 15.629ZM10.5087 16.379C10.1741 16.3791 9.84693 16.28 9.56862 16.0941C9.29031 15.9083 9.07336 15.6441 8.94521 15.335C8.81706 15.0258 8.78346 14.6856 8.84867 14.3574C8.91389 14.0292 9.07497 13.7276 9.31156 13.491C9.54815 13.2543 9.84961 13.0931 10.1778 13.0278C10.506 12.9624 10.8462 12.9959 11.1554 13.1239C11.4646 13.252 11.7289 13.4688 11.9148 13.7471C12.1007 14.0253 12.2 14.3524 12.2 14.6871C12.1993 15.1354 12.0209 15.5651 11.7039 15.882C11.3868 16.199 10.957 16.3772 10.5087 16.3777V16.379ZM19.1862 16.379C18.8515 16.3796 18.5242 16.2809 18.2456 16.0954C17.967 15.91 17.7496 15.646 17.621 15.337C17.4925 15.028 17.4585 14.6878 17.5233 14.3594C17.5881 14.031 17.7489 13.7293 17.9852 13.4923C18.2216 13.2553 18.5229 13.0938 18.8511 13.0281C19.1793 12.9624 19.5196 12.9956 19.829 13.1233C20.1383 13.2511 20.4028 13.4678 20.589 13.7459C20.7752 14.024 20.8747 14.3511 20.875 14.6858C20.8745 15.1336 20.6967 15.563 20.3805 15.8801C20.0642 16.1971 19.6353 16.3761 19.1875 16.3777L19.1862 16.379Z" fill="#FF5E14"/>
<path d="M14.4113 20.6789V22.6026C14.5563 22.6101 14.7 22.6245 14.8488 22.6245C14.9975 22.6245 15.14 22.6176 15.2863 22.6101V20.6789C15.2863 20.6308 15.1313 20.4839 14.8488 20.4839C14.5663 20.4839 14.4113 20.6326 14.4113 20.6789Z" fill="#FF5E14"/>
</svg>
