<svg width="38" height="35" viewBox="0 0 38 35" fill="none" xmlns="http://www.w3.org/2000/svg">
<path d="M20.2669 29.2189C18.6943 30.0682 16.943 30.5334 15.1563 30.5764C13.6395 30.6145 12.1305 30.3467 10.7195 29.789C9.30841 29.2313 8.02411 28.3952 6.94315 27.3305C5.8622 26.2657 5.00674 24.9942 4.42779 23.5918C3.84884 22.1893 3.55825 20.6846 3.57337 19.1674C3.58848 17.6502 3.90899 16.1516 4.51576 14.7609C5.12254 13.3703 6.00316 12.1161 7.10511 11.0731C8.20707 10.0301 9.50777 9.21972 10.9297 8.69027C12.3516 8.16081 13.8655 7.92314 15.3813 7.99141L15.525 7.64141L15.8438 6.88516L11.875 5.19141C9.92461 5.60693 8.08195 6.42357 6.46411 7.58945C4.84626 8.75534 3.48859 10.245 2.47736 11.9637C1.46612 13.6825 0.823425 15.5928 0.590098 17.5732C0.35677 19.5537 0.537913 21.5611 1.12202 23.4678C1.70612 25.3745 2.68042 27.1389 3.98302 28.6488C5.28561 30.1588 6.88802 31.3813 8.68845 32.2387C10.4889 33.0961 12.448 33.5697 14.4412 33.6293C16.4345 33.689 18.4184 33.3334 20.2669 32.5852V29.2189Z" fill="#FF5E14"/>
<path d="M26.0363 17.4252L26.4331 17.084C26.7865 16.7771 27.2141 16.5682 27.6733 16.478C28.1326 16.3877 28.6074 16.4193 29.0506 16.5696C28.7258 14.8425 28.0857 13.1899 27.1625 11.6946L25.7 11.0696L22.9 9.88208L22.4688 10.8883C24.3596 12.6038 25.6165 14.9069 26.0363 17.4252Z" fill="#FF5E14"/>
<path d="M34.895 22.952V18.6239H32.2144V20.6501L29.1656 18.0326C28.8987 17.8033 28.5584 17.6772 28.2066 17.6772C27.8547 17.6772 27.5144 17.8033 27.2475 18.0326L18.7306 25.3451L20.6487 27.5795L28.2062 21.0907L35.7637 27.5782L37.6819 25.3439L34.895 22.952Z" fill="#FF5E14"/>
<path d="M26.0169 28.0283H30.3963V34.2946H26.0169V28.0283Z" fill="#FF5E14"/>
<path d="M21.5175 28.4808V34.2933H24.7675V27.4033C24.7675 27.2375 24.8333 27.0785 24.9506 26.9613C25.0678 26.8441 25.2267 26.7783 25.3925 26.7783H31.0213C31.187 26.7783 31.346 26.8441 31.4632 26.9613C31.5804 27.0785 31.6463 27.2375 31.6463 27.4033V34.2951H34.8963V28.4826L28.2088 22.7395L21.5175 28.4808Z" fill="#FF5E14"/>
<path d="M19.5562 0.741455L15.4062 1.57895C14.8059 1.69946 14.244 1.96449 13.7692 2.3511C13.2943 2.73771 12.9209 3.23425 12.6812 3.7977L12.5437 4.11646L16.5437 5.8227L17.4875 6.22271L16.675 8.1227L16.6606 8.15646L21.4137 10.179L21.4562 10.0796L22.2375 8.24208L22.7562 8.46708L23.0562 8.59208L26.4875 10.0483L28.7812 4.66083L19.5562 0.741455Z" fill="#FF5E14"/>
<path d="M31.165 5.67456L30.685 6.80394L29.45 6.27831L28.1175 9.40769L29.3531 9.93394L28.8731 11.0627L31.445 12.1571L33.7375 6.76894L31.165 5.67456Z" fill="#FF5E14"/>
<path d="M8.08 26.6471C8.83944 27.3503 9.70402 27.9307 10.6425 28.3671L14.0856 20.279C14.4468 19.3996 15.1011 18.6722 15.9375 18.2202C16.3203 18.0079 16.7452 17.8825 17.182 17.8531C17.6187 17.8237 18.0566 17.891 18.4644 18.0502L20.95 11.3377L16.1538 9.29712L8.08 26.6471Z" fill="#FF5E14"/>
</svg>
