<svg width="40" height="40" viewBox="0 0 40 40" fill="none" xmlns="http://www.w3.org/2000/svg">
<path d="M33.9281 10.8345H3.57188C2.49941 10.8345 1.63 11.7039 1.63 12.7763V13.8582C1.63 14.9307 2.49941 15.8001 3.57188 15.8001H33.9281C35.0006 15.8001 35.87 14.9307 35.87 13.8582V12.7763C35.87 11.7039 35.0006 10.8345 33.9281 10.8345Z" fill="#FF5E14"/>
<path d="M14.8875 2.4353H22.6131V5.80593H14.8875V2.4353Z" fill="#FF5E14"/>
<path d="M15.4913 34.679V35.4602C15.4913 36.3245 15.8346 37.1534 16.4457 37.7645C17.0569 38.3756 17.8857 38.719 18.75 38.719C19.6143 38.719 20.4432 38.3756 21.0543 37.7645C21.6654 37.1534 22.0088 36.3245 22.0088 35.4602V34.679H15.4913Z" fill="#FF5E14"/>
<path d="M16.1781 7.05591H21.3219V9.58466H16.1781V7.05591Z" fill="#FF5E14"/>
<path d="M21.6419 30.692H11.7825C11.5875 30.692 11.3975 30.6745 11.2056 30.6626V31.7101C11.2056 32.1659 11.3867 32.6031 11.709 32.9254C12.0314 33.2478 12.4685 33.4288 12.9244 33.4288H23.2256C22.5478 32.6119 22.0124 31.6867 21.6419 30.692Z" fill="#FF5E14"/>
<path d="M21.0312 27.379C21.028 25.8381 21.4018 24.3197 22.1201 22.9564C22.8384 21.593 23.8793 20.4261 25.1521 19.5574C26.4248 18.6887 27.8908 18.1446 29.4222 17.9726C30.9535 17.8005 32.5037 18.0057 33.9375 18.5703V17.0503H3.5625V21.224C3.5625 22.3034 3.77511 23.3721 4.18819 24.3693C4.60126 25.3664 5.20672 26.2724 5.96997 27.0356C6.73323 27.7987 7.63934 28.404 8.63655 28.817C9.63376 29.2299 10.7025 29.4423 11.7819 29.4422H21.265C21.1114 28.7652 21.033 28.0733 21.0312 27.379ZM11.3019 26.0722C10.1447 26.0694 9.03575 25.6082 8.21779 24.7897C7.39983 23.9711 6.93948 22.8619 6.9375 21.7047V19.7965H8.1875V21.7047C8.18849 22.5312 8.51726 23.3235 9.10169 23.908C9.68612 24.4924 10.4785 24.8212 11.305 24.8222L11.3019 26.0722Z" fill="#FF5E14"/>
<path d="M30.5 19.1633C28.5683 19.161 26.6976 19.8398 25.2169 21.0804C23.7363 22.321 22.7404 24.044 22.4045 25.9463C22.0686 27.8485 22.4142 29.8083 23.3805 31.481C24.3467 33.1537 25.8718 34.4321 27.6875 35.0915V32.3208C26.8233 31.8281 26.1039 31.1167 25.6014 30.2582C25.0989 29.3996 24.8311 28.424 24.8248 27.4292C24.8184 26.4344 25.0738 25.4554 25.5653 24.5905C26.0568 23.7256 26.7671 23.0052 27.625 22.5015C27.7199 22.4455 27.8279 22.4156 27.9381 22.4148C28.0483 22.414 28.1567 22.4424 28.2524 22.497C28.3481 22.5517 28.4276 22.6306 28.4829 22.7259C28.5383 22.8212 28.5674 22.9294 28.5675 23.0396V26.7608L30.5 27.8452L32.4331 26.7602V23.0396C32.433 22.9298 32.4618 22.822 32.5166 22.7269C32.5714 22.6318 32.6503 22.5528 32.7453 22.4979C32.8404 22.4429 32.9482 22.414 33.058 22.414C33.1677 22.414 33.2755 22.4428 33.3706 22.4977C34.2208 23.0016 34.926 23.7172 35.4172 24.5747C35.9085 25.4323 36.1691 26.4025 36.1737 27.3908C36.1796 28.3945 35.9171 29.3815 35.4134 30.2496C34.9097 31.1177 34.183 31.8354 33.3087 32.3283V35.0915C35.1241 34.4322 36.649 33.1541 37.6153 31.4818C38.5816 29.8095 38.9274 27.8501 38.592 25.9481C38.2566 24.0461 37.2614 22.3232 35.7814 21.0822C34.3014 19.8413 32.4314 19.1619 30.5 19.1633Z" fill="#FF5E14"/>
<path d="M32.0544 31.9434C32.0544 31.8235 32.0888 31.7061 32.1536 31.6053C32.2185 31.5044 32.3109 31.4244 32.42 31.3746C33.174 31.0192 33.8103 30.4549 34.2534 29.7489C34.6965 29.0428 34.9279 28.2244 34.92 27.3909C34.9133 26.2462 34.47 25.1473 33.6806 24.3184V27.1265C33.6806 27.2375 33.651 27.3465 33.5949 27.4423C33.5387 27.5381 33.4581 27.6172 33.3613 27.6715L30.8031 29.109C30.7098 29.1613 30.6045 29.1888 30.4975 29.1888C30.3905 29.1888 30.2852 29.1613 30.1919 29.109L27.6344 27.6715C27.5375 27.6172 27.4569 27.5381 27.4008 27.4423C27.3446 27.3465 27.315 27.2375 27.315 27.1265V24.324C26.8287 24.8277 26.4691 25.4397 26.2657 26.1096C26.0622 26.7795 26.0208 27.4882 26.1449 28.1772C26.269 28.8662 26.555 29.516 26.9793 30.0728C27.4036 30.6297 27.9542 31.0778 28.5856 31.3802C28.6918 31.4311 28.7814 31.5108 28.8442 31.6103C28.907 31.7098 28.9404 31.8251 28.9406 31.9427V35.4427C29.9689 35.6452 31.0268 35.6452 32.055 35.4427L32.0544 31.9434Z" fill="#FF5E14"/>
</svg>
