<svg width="19" height="19" viewBox="0 0 19 19" fill="none" xmlns="http://www.w3.org/2000/svg">
<path d="M16.0977 9.03369C16.0977 7.08369 15.4185 5.42952 14.0602 4.07119C12.7018 2.71286 11.0477 2.03369 9.09766 2.03369V0.0336914C10.3477 0.0336914 11.5185 0.271191 12.6102 0.746191C13.7018 1.22119 14.6518 1.86286 15.4602 2.67119C16.2685 3.47952 16.9102 4.42952 17.3852 5.52119C17.8602 6.61286 18.0977 7.78369 18.0977 9.03369H16.0977ZM12.0977 9.03369C12.0977 8.20036 11.806 7.49202 11.2227 6.90869C10.6393 6.32536 9.93099 6.03369 9.09766 6.03369V4.03369C10.481 4.03369 11.6602 4.52119 12.6352 5.49619C13.6102 6.47119 14.0977 7.65036 14.0977 9.03369H12.0977ZM17.0477 18.0337C14.9643 18.0337 12.906 17.5795 10.8727 16.6712C8.83932 15.7629 6.98932 14.4754 5.32266 12.8087C3.65599 11.142 2.36849 9.29202 1.46016 7.25869C0.551823 5.22536 0.0976562 3.16702 0.0976562 1.08369C0.0976562 0.783691 0.197656 0.533691 0.397656 0.333691C0.597656 0.133691 0.847656 0.0336914 1.14766 0.0336914H5.19766C5.43099 0.0336914 5.63932 0.112858 5.82266 0.271191C6.00599 0.429525 6.11432 0.617025 6.14766 0.833691L6.79766 4.33369C6.83099 4.60036 6.82266 4.82536 6.77266 5.00869C6.72266 5.19202 6.63099 5.35036 6.49766 5.48369L4.07266 7.93369C4.40599 8.55036 4.80182 9.14619 5.26016 9.72119C5.71849 10.2962 6.22266 10.8504 6.77266 11.3837C7.28932 11.9004 7.83099 12.3795 8.39766 12.8212C8.96432 13.2629 9.56432 13.667 10.1977 14.0337L12.5477 11.6837C12.6977 11.5337 12.8935 11.4212 13.1352 11.3462C13.3768 11.2712 13.6143 11.2504 13.8477 11.2837L17.2977 11.9837C17.531 12.0504 17.7227 12.1712 17.8727 12.3462C18.0227 12.5212 18.0977 12.717 18.0977 12.9337V16.9837C18.0977 17.2837 17.9977 17.5337 17.7977 17.7337C17.5977 17.9337 17.3477 18.0337 17.0477 18.0337ZM3.12266 6.03369L4.77266 4.38369L4.34766 2.03369H2.12266C2.20599 2.71702 2.32266 3.39202 2.47266 4.05869C2.62266 4.72536 2.83932 5.38369 3.12266 6.03369ZM12.0727 14.9837C12.7227 15.267 13.3852 15.492 14.0602 15.6587C14.7352 15.8254 15.4143 15.9337 16.0977 15.9837V13.7837L13.7477 13.3087L12.0727 14.9837Z" fill="black"/>
</svg>
