<svg width="18" height="19" viewBox="0 0 18 19" fill="none" xmlns="http://www.w3.org/2000/svg">
<path d="M16 9.31836C16 7.36836 15.3208 5.71419 13.9625 4.35586C12.6042 2.99753 10.95 2.31836 9 2.31836V0.318359C10.25 0.318359 11.4208 0.555859 12.5125 1.03086C13.6042 1.50586 14.5542 2.14753 15.3625 2.95586C16.1708 3.76419 16.8125 4.71419 17.2875 5.80586C17.7625 6.89753 18 8.06836 18 9.31836H16ZM12 9.31836C12 8.48503 11.7083 7.77669 11.125 7.19336C10.5417 6.61003 9.83333 6.31836 9 6.31836V4.31836C10.3833 4.31836 11.5625 4.80586 12.5375 5.78086C13.5125 6.75586 14 7.93503 14 9.31836H12ZM16.95 18.3184C14.8667 18.3184 12.8083 17.8642 10.775 16.9559C8.74167 16.0475 6.89167 14.76 5.225 13.0934C3.55833 11.4267 2.27083 9.57669 1.3625 7.54336C0.454167 5.51003 0 3.45169 0 1.36836C0 1.06836 0.1 0.818359 0.3 0.618359C0.5 0.418359 0.75 0.318359 1.05 0.318359H5.1C5.33333 0.318359 5.54167 0.397526 5.725 0.555859C5.90833 0.714193 6.01667 0.901693 6.05 1.11836L6.7 4.61836C6.73333 4.88503 6.725 5.11003 6.675 5.29336C6.625 5.47669 6.53333 5.63503 6.4 5.76836L3.975 8.21836C4.30833 8.83503 4.70417 9.43086 5.1625 10.0059C5.62083 10.5809 6.125 11.135 6.675 11.6684C7.19167 12.185 7.73333 12.6642 8.3 13.1059C8.86667 13.5475 9.46667 13.9517 10.1 14.3184L12.45 11.9684C12.6 11.8184 12.7958 11.7059 13.0375 11.6309C13.2792 11.5559 13.5167 11.535 13.75 11.5684L17.2 12.2684C17.4333 12.335 17.625 12.4559 17.775 12.6309C17.925 12.8059 18 13.0017 18 13.2184V17.2684C18 17.5684 17.9 17.8184 17.7 18.0184C17.5 18.2184 17.25 18.3184 16.95 18.3184ZM3.025 6.31836L4.675 4.66836L4.25 2.31836H2.025C2.10833 3.00169 2.225 3.67669 2.375 4.34336C2.525 5.01003 2.74167 5.66836 3.025 6.31836ZM11.975 15.2684C12.625 15.5517 13.2875 15.7767 13.9625 15.9434C14.6375 16.11 15.3167 16.2184 16 16.2684V14.0684L13.65 13.5934L11.975 15.2684Z" fill="#FF5E14"/>
</svg>
