<svg width="15" height="18" viewBox="0 0 15 18" fill="none" xmlns="http://www.w3.org/2000/svg">
<path d="M7.56315 8.82625C8.02148 8.82625 8.41385 8.66306 8.74023 8.33667C9.06662 8.01028 9.22982 7.61792 9.22982 7.15959C9.22982 6.70125 9.06662 6.30889 8.74023 5.9825C8.41385 5.65611 8.02148 5.49292 7.56315 5.49292C7.10482 5.49292 6.71246 5.65611 6.38607 5.9825C6.05968 6.30889 5.89648 6.70125 5.89648 7.15959C5.89648 7.61792 6.05968 8.01028 6.38607 8.33667C6.71246 8.66306 7.10482 8.82625 7.56315 8.82625ZM7.56315 14.9513C9.2576 13.3957 10.5145 11.9825 11.334 10.7117C12.1534 9.44084 12.5632 8.31236 12.5632 7.32625C12.5632 5.81236 12.0805 4.57278 11.1152 3.6075C10.15 2.64223 8.96593 2.15959 7.56315 2.15959C6.16037 2.15959 4.97635 2.64223 4.01107 3.6075C3.04579 4.57278 2.56315 5.81236 2.56315 7.32625C2.56315 8.31236 2.97287 9.44084 3.79232 10.7117C4.61176 11.9825 5.86871 13.3957 7.56315 14.9513ZM7.56315 17.1596C5.32704 15.2568 3.6569 13.4894 2.55273 11.8575C1.44857 10.2256 0.896484 8.71514 0.896484 7.32625C0.896484 5.24292 1.56662 3.5832 2.9069 2.34709C4.24718 1.11098 5.79926 0.49292 7.56315 0.49292C9.32704 0.49292 10.8791 1.11098 12.2194 2.34709C13.5597 3.5832 14.2298 5.24292 14.2298 7.32625C14.2298 8.71514 13.6777 10.2256 12.5736 11.8575C11.4694 13.4894 9.79926 15.2568 7.56315 17.1596Z" fill="#FF5E14"/>
</svg>
