<svg width="17" height="21" viewBox="0 0 17 21" fill="none" xmlns="http://www.w3.org/2000/svg">
<path d="M8.38989 10.6264C8.93989 10.6264 9.41073 10.4306 9.80239 10.0389C10.1941 9.64724 10.3899 9.1764 10.3899 8.6264C10.3899 8.0764 10.1941 7.60557 9.80239 7.2139C9.41073 6.82224 8.93989 6.6264 8.38989 6.6264C7.83989 6.6264 7.36906 6.82224 6.97739 7.2139C6.58573 7.60557 6.38989 8.0764 6.38989 8.6264C6.38989 9.1764 6.58573 9.64724 6.97739 10.0389C7.36906 10.4306 7.83989 10.6264 8.38989 10.6264ZM8.38989 17.9764C10.4232 16.1097 11.9316 14.4139 12.9149 12.8889C13.8982 11.3639 14.3899 10.0097 14.3899 8.8264C14.3899 7.00974 13.8107 5.52224 12.6524 4.3639C11.4941 3.20557 10.0732 2.6264 8.38989 2.6264C6.70656 2.6264 5.28573 3.20557 4.12739 4.3639C2.96906 5.52224 2.38989 7.00974 2.38989 8.8264C2.38989 10.0097 2.88156 11.3639 3.86489 12.8889C4.84823 14.4139 6.35656 16.1097 8.38989 17.9764ZM8.38989 20.6264C5.70656 18.3431 3.70239 16.2222 2.37739 14.2639C1.05239 12.3056 0.389893 10.4931 0.389893 8.8264C0.389893 6.3264 1.19406 4.33474 2.80239 2.8514C4.41073 1.36807 6.27323 0.626404 8.38989 0.626404C10.5066 0.626404 12.3691 1.36807 13.9774 2.8514C15.5857 4.33474 16.3899 6.3264 16.3899 8.8264C16.3899 10.4931 15.7274 12.3056 14.4024 14.2639C13.0774 16.2222 11.0732 18.3431 8.38989 20.6264Z" fill="#F5A29C"/>
</svg>
