<svg width="62" height="63" viewBox="0 0 62 63" fill="none" xmlns="http://www.w3.org/2000/svg">
<path fill-rule="evenodd" clip-rule="evenodd" d="M28.6625 30.5504C29.0616 31.7831 29.5334 32.9902 30.0753 34.1652H18.8035C18.2422 34.1652 17.7871 33.7028 17.7871 33.1324V26.9357C17.7871 26.3653 18.2422 25.9029 18.8035 25.9029H33.033C33.3786 25.9035 33.7002 26.0824 33.8868 26.378L30.1769 27.576C29.5857 27.7631 29.0928 28.1829 28.8082 28.7418C28.5237 29.3006 28.4712 29.952 28.6625 30.5504Z" fill="#1F0E14"/>
<path fill-rule="evenodd" clip-rule="evenodd" d="M30.1769 27.576L33.8867 26.378C33.7001 26.0824 33.3785 25.9035 33.033 25.9029H29.9838C30.3294 25.9035 30.651 26.0824 30.8376 26.378L27.1277 27.576C26.5365 27.7631 26.0436 28.1829 25.759 28.7418C25.4745 29.3006 25.422 29.952 25.6133 30.5504C26.0124 31.7831 26.4842 32.9902 27.0261 34.1652H30.0753C29.5334 32.9902 29.0616 31.7831 28.6625 30.5504C28.4712 29.952 28.5237 29.3006 28.8082 28.7418C29.0928 28.1829 29.5857 27.7631 30.1769 27.576Z" fill="#1F0E14"/>
<path d="M24.9022 17.6406H10.6726C10.1113 17.6406 9.65625 18.103 9.65625 18.6734V24.8701C9.65625 25.4405 10.1113 25.9029 10.6726 25.9029H24.9022C25.4635 25.9029 25.9185 25.4405 25.9185 24.8701V18.6734C25.9185 18.103 25.4635 17.6406 24.9022 17.6406Z" fill="#1F0E14"/>
<path d="M8.63966 17.6406H2.5413C1.97996 17.6406 1.5249 18.103 1.5249 18.6734V24.8701C1.5249 25.4405 1.97996 25.9029 2.5413 25.9029H8.63966C9.20099 25.9029 9.65605 25.4405 9.65605 24.8701V18.6734C9.65605 18.103 9.20099 17.6406 8.63966 17.6406Z" fill="#1F0E14"/>
<path fill-rule="evenodd" clip-rule="evenodd" d="M50.3118 18.6734V21.0901L42.1807 23.7031V18.6734C42.1807 18.103 42.6357 17.6406 43.1971 17.6406H49.2954C49.8568 17.6406 50.3118 18.103 50.3118 18.6734Z" fill="#1F0E14"/>
<path fill-rule="evenodd" clip-rule="evenodd" d="M49.2954 17.6406H46.2462C46.8076 17.6406 47.2626 18.103 47.2626 18.6734V21.0901L42.1807 22.723V23.7031L50.3118 21.0901V18.6734C50.3118 18.103 49.8568 17.6406 49.2954 17.6406Z" fill="#1F0E14"/>
<path d="M24.9022 1.11603H10.6726C10.1113 1.11603 9.65625 1.57842 9.65625 2.14881V8.34554C9.65625 8.91593 10.1113 9.37832 10.6726 9.37832H24.9022C25.4635 9.37832 25.9185 8.91593 25.9185 8.34554V2.14881C25.9185 1.57842 25.4635 1.11603 24.9022 1.11603Z" fill="#1F0E14"/>
<path d="M8.63966 1.11603H2.5413C1.97996 1.11603 1.5249 1.57842 1.5249 2.14881V8.34554C1.5249 8.91593 1.97996 9.37832 2.5413 9.37832H8.63966C9.20099 9.37832 9.65605 8.91593 9.65605 8.34554V2.14881C9.65605 1.57842 9.20099 1.11603 8.63966 1.11603Z" fill="#1F0E14"/>
<path d="M33.033 9.3783H18.8035C18.2422 9.3783 17.7871 9.84069 17.7871 10.4111V16.6078C17.7871 17.1782 18.2422 17.6406 18.8035 17.6406H33.033C33.5943 17.6406 34.0494 17.1782 34.0494 16.6078V10.4111C34.0494 9.84069 33.5943 9.3783 33.033 9.3783Z" fill="#1F0E14"/>
<path d="M49.2952 9.3783H35.0657C34.5044 9.3783 34.0493 9.84069 34.0493 10.4111V16.6078C34.0493 17.1782 34.5044 17.6406 35.0657 17.6406H49.2952C49.8566 17.6406 50.3116 17.1782 50.3116 16.6078V10.4111C50.3116 9.84069 49.8566 9.3783 49.2952 9.3783Z" fill="#1F0E14"/>
<path fill-rule="evenodd" clip-rule="evenodd" d="M49.2953 9.3783H46.2461C46.8074 9.3783 47.2625 9.84069 47.2625 10.4111V16.6078C47.2625 17.1782 46.8074 17.6406 46.2461 17.6406H49.2953C49.8566 17.6406 50.3117 17.1782 50.3117 16.6078V10.4111C50.3117 9.84069 49.8566 9.3783 49.2953 9.3783Z" fill="#1F0E14"/>
<path d="M16.7708 9.3783H2.5413C1.97996 9.3783 1.5249 9.84069 1.5249 10.4111V16.6078C1.5249 17.1782 1.97996 17.6406 2.5413 17.6406H16.7708C17.3321 17.6406 17.7872 17.1782 17.7872 16.6078V10.4111C17.7872 9.84069 17.3321 9.3783 16.7708 9.3783Z" fill="#1F0E14"/>
<path d="M16.7708 25.9029H2.5413C1.97996 25.9029 1.5249 26.3653 1.5249 26.9357V33.1324C1.5249 33.7028 1.97996 34.1652 2.5413 34.1652H16.7708C17.3321 34.1652 17.7872 33.7028 17.7872 33.1324V26.9357C17.7872 26.3653 17.3321 25.9029 16.7708 25.9029Z" fill="#1F0E14"/>
<path fill-rule="evenodd" clip-rule="evenodd" d="M42.1808 18.6734V23.7031L35.3709 25.9029H26.9247C26.3673 25.8973 25.9184 25.4365 25.9185 24.8701V18.6734C25.9185 18.103 26.3735 17.6406 26.9349 17.6406H41.1644C41.7257 17.6406 42.1808 18.103 42.1808 18.6734Z" fill="#1F0E14"/>
<path fill-rule="evenodd" clip-rule="evenodd" d="M60.3639 21.7511L51.7144 49.4608C51.5303 50.0616 51.1172 50.5624 50.5672 50.8516C50.0172 51.1407 49.3762 51.194 48.7872 50.9996C44.8316 49.6742 41.1587 47.5996 37.9626 44.8855L44.6708 38.0691C45.0525 37.6817 45.267 37.156 45.267 36.6078C45.267 36.0595 45.0525 35.5338 44.6708 35.1464L44.2643 34.7332C43.883 34.3454 43.3656 34.1274 42.8261 34.1274C42.2865 34.1274 41.7692 34.3454 41.3879 34.7332L34.6797 41.5496C32.9764 39.4934 31.529 37.2318 30.3702 34.8159C29.7079 33.4344 29.1374 32.0094 28.6626 30.5505C28.4713 29.952 28.5238 29.3006 28.8083 28.7418C29.0929 28.1829 29.5858 27.7631 30.177 27.576L35.3708 25.9029L44.2033 23.0524L57.4469 18.787C58.2734 18.5261 59.1742 18.7522 59.7862 19.374C60.3982 19.9959 60.6207 20.9112 60.3639 21.7511Z" fill="#1F0E14"/>
<path fill-rule="evenodd" clip-rule="evenodd" d="M41.2149 34.7332C40.8337 34.3454 40.3163 34.1274 39.7767 34.1274C39.2372 34.1274 38.7198 34.3454 38.3385 34.7332L33.3379 39.8166C33.7546 40.396 34.2018 40.9754 34.6816 41.5496L41.3034 34.821L41.2149 34.7332Z" fill="#F5A29C"/>
<path fill-rule="evenodd" clip-rule="evenodd" d="M57.4467 18.787L56.41 19.1206C57.2482 19.6998 57.6147 20.768 57.3126 21.7511L48.6651 49.4608C48.5155 49.9409 48.218 50.3595 47.8164 50.6547C48.161 50.7828 48.4882 50.8995 48.7871 50.9996C49.376 51.194 50.017 51.1407 50.567 50.8516C51.117 50.5624 51.5302 50.0616 51.7143 49.4608L60.3638 21.7511C60.6205 20.9112 60.3981 19.9959 59.7861 19.374C59.1741 18.7522 58.2733 18.5261 57.4467 18.787Z" fill="#F5A29C"/>
<path fill-rule="evenodd" clip-rule="evenodd" d="M34.7104 49.8636L24.4448 60.2947C23.2543 61.5029 21.3257 61.5029 20.1353 60.2947L19.5153 59.6647C18.3263 58.4551 18.3263 56.4954 19.5153 55.2857L29.7809 44.8546C30.1803 44.4518 30.8247 44.4518 31.2241 44.8546L34.6087 48.2937L34.7104 48.397C35.1067 48.8029 35.1067 49.4577 34.7104 49.8636Z" fill="#1F0E14"/>
<path fill-rule="evenodd" clip-rule="evenodd" d="M34.7101 48.397L34.6084 48.2937L31.2238 44.8546C30.8244 44.4518 30.18 44.4518 29.7805 44.8546L28.9776 45.6705L31.5592 48.2937L31.6609 48.397C32.0572 48.8029 32.0572 49.4577 31.6609 49.8636L21.3953 60.2947C21.2066 60.4813 20.9947 60.642 20.7651 60.7729C21.9564 61.48 23.4667 61.2837 24.4445 60.2947L34.7101 49.8636C35.1064 49.4577 35.1064 48.8029 34.7101 48.397Z" fill="#1F0E14"/>
<path fill-rule="evenodd" clip-rule="evenodd" d="M44.6709 38.0691L34.6086 48.2937L31.3257 44.9578L34.6798 41.5496L41.388 34.7332C41.7693 34.3454 42.2867 34.1274 42.8262 34.1274C43.3657 34.1274 43.8831 34.3454 44.2644 34.7332L44.6709 35.1464C45.0526 35.5338 45.2671 36.0595 45.2671 36.6078C45.2671 37.156 45.0526 37.6817 44.6709 38.0691Z" fill="#1F0E14"/>
<path fill-rule="evenodd" clip-rule="evenodd" d="M4.57408 33.1324V26.9357C4.57408 26.3653 5.02914 25.9029 5.59048 25.9029C5.02914 25.9029 4.57408 25.4405 4.57408 24.8701V18.6734C4.57408 18.103 5.02914 17.6406 5.59048 17.6406C5.02914 17.6406 4.57408 17.1782 4.57408 16.6078V10.4111C4.57408 9.84072 5.02914 9.37832 5.59048 9.37832C5.02914 9.37832 4.57408 8.91593 4.57408 8.34554V2.14881C4.57408 1.57842 5.02914 1.11603 5.59048 1.11603H2.5413C1.97996 1.11603 1.5249 1.57842 1.5249 2.14881V8.34554C1.5249 8.91593 1.97996 9.37832 2.5413 9.37832C1.97996 9.37832 1.5249 9.84072 1.5249 10.4111V16.6078C1.5249 17.1782 1.97996 17.6406 2.5413 17.6406C1.97996 17.6406 1.5249 18.103 1.5249 18.6734V24.8701C1.5249 25.4405 1.97996 25.9029 2.5413 25.9029C1.97996 25.9029 1.5249 26.3653 1.5249 26.9357V33.1324C1.5249 33.7028 1.97996 34.1652 2.5413 34.1652H5.59048C5.02914 34.1652 4.57408 33.7028 4.57408 33.1324Z" fill="#1F0E14"/>
<path fill-rule="evenodd" clip-rule="evenodd" d="M18.7896 54.5525L24.5383 48.711L25.9755 50.1714L20.2267 56.0129L18.7896 54.5525Z" fill="#1F0E14"/>
<path d="M57.1356 17.7986L51.328 19.6721V18.6734C51.3259 18.3097 51.2284 17.9532 51.0454 17.6406C51.2284 17.3281 51.3259 16.9715 51.328 16.6078V10.4111C51.328 9.27034 50.4179 8.34555 49.2952 8.34555H35.0657C34.7078 8.34761 34.3569 8.44673 34.0493 8.63266C33.7417 8.44673 33.3908 8.34761 33.0329 8.34555H26.9345V2.14883C26.9345 1.00804 26.0244 0.083252 24.9017 0.083252H10.6722C10.3143 0.0853174 9.96345 0.184435 9.65584 0.370367C9.34824 0.184435 8.99736 0.0853174 8.63945 0.083252H2.54109C1.41841 0.083252 0.508301 1.00804 0.508301 2.14883V8.34555C0.510333 8.70923 0.607878 9.06577 0.790858 9.37833C0.607878 9.6909 0.510333 10.0474 0.508301 10.4111V16.6078C0.510333 16.9715 0.607878 17.3281 0.790858 17.6406C0.607878 17.9532 0.510333 18.3097 0.508301 18.6734V24.8701C0.510333 25.2338 0.607878 25.5904 0.790858 25.9029C0.607878 26.2155 0.510333 26.572 0.508301 26.9357V33.1324C0.508301 34.2732 1.41841 35.198 2.54109 35.198H16.7706C17.1285 35.1959 17.4794 35.0968 17.787 34.9109C18.0946 35.0968 18.4455 35.1959 18.8034 35.198H29.4399C30.5035 37.4262 31.8034 39.5297 33.3165 41.4712L31.182 43.64C30.4451 43.3734 29.623 43.5602 29.0679 44.1203L24.5501 48.711C24.1738 49.1169 24.1826 49.7531 24.57 50.1481C24.9574 50.5431 25.5834 50.5543 25.9842 50.1734L30.5021 45.5837L33.9924 49.1303L23.7268 59.5614C22.9227 60.342 21.6566 60.342 20.8524 59.5614L20.2355 58.9345C19.4419 58.1279 19.4419 56.8204 20.2355 56.0138C20.6207 55.6086 20.6152 54.9644 20.2231 54.566C19.831 54.1677 19.1971 54.1621 18.7983 54.5535C17.2112 56.1667 17.2112 58.7817 18.7983 60.3949L19.4153 61.0218C21.0029 62.6345 23.5764 62.6345 25.164 61.0218L35.4295 50.5907C35.9807 50.0266 36.1645 49.1913 35.9022 48.4425L38.0366 46.2736C41.1654 48.771 44.6935 50.7029 48.4668 51.9849C49.3128 52.2638 50.2334 52.1878 51.0239 51.7738C51.8145 51.3597 52.4095 50.6419 52.6767 49.7799L61.3364 22.0651C61.7057 20.8556 61.3846 19.5378 60.5026 18.6432C59.6207 17.7485 58.3232 17.4244 57.1336 17.8017L57.1356 17.7986ZM43.1968 22.2954V18.6734H49.2952V20.3259L43.1968 22.2954ZM18.8034 24.8701H10.6722V18.6734H24.9017V24.8701H18.8034ZM2.54109 18.6734H8.63945V24.8701H2.54109V18.6734ZM2.54109 10.4111H16.7706V16.6078H2.54109V10.4111ZM35.2141 24.8701H26.9874C26.9691 24.8701 26.9538 24.8598 26.9345 24.8598V18.6734H41.164V22.9512L35.2141 24.8701ZM49.2952 10.4111V16.6078H35.0657V10.4111H49.2952ZM33.0329 10.4111V16.6078H18.8034V10.4111H33.0329ZM24.9017 2.14883V8.34555H10.6722V2.14883H24.9017ZM2.54109 2.14883H8.63945V8.34555H2.54109V2.14883ZM2.54109 33.1324V26.9357H16.7706V33.1324H2.54109ZM18.8034 33.1324V26.9357H29.1482C27.8164 27.7409 27.2128 29.3774 27.6958 30.8737C27.8991 31.4934 28.1694 32.2608 28.5211 33.1324H18.8034ZM42.1042 35.4634C42.5011 35.0602 43.1445 35.0602 43.5414 35.4634L43.9479 35.8765C44.3447 36.2799 44.3447 36.9336 43.9479 37.3369L34.6053 46.8313L32.7564 44.9527L42.1042 35.4634ZM59.3981 21.4423L50.7405 49.1541C50.6357 49.4943 50.4 49.777 50.087 49.9379C49.7835 50.0986 49.4292 50.128 49.1041 50.0195C45.6325 48.8412 42.3807 47.0777 39.485 44.8029L45.3892 38.8035C46.5795 37.5936 46.5795 35.6323 45.3892 34.4224L44.9826 34.0093C43.7919 32.7997 41.8618 32.7997 40.6711 34.0093L34.7608 40.0025C32.5216 37.06 30.7855 33.7559 29.6249 30.2282C29.5176 29.898 29.5465 29.5377 29.7052 29.2295C29.8642 28.9109 30.1431 28.671 30.4787 28.5644L50.6927 22.0444H50.709L57.7434 19.7723C58.2101 19.6267 58.7177 19.7544 59.0636 20.1043C59.4096 20.4543 59.5374 20.9696 59.3961 21.4444L59.3981 21.4423Z" fill="#F5A29C"/>
<path fill-rule="evenodd" clip-rule="evenodd" d="M22.4106 53.3978C21.8493 53.4006 21.392 52.9406 21.3892 52.3702C21.3864 51.7998 21.8391 51.3351 22.4005 51.3322H22.4106C22.972 51.3322 23.427 51.7946 23.427 52.365C23.427 52.9354 22.972 53.3978 22.4106 53.3978Z" fill="#F5A29C"/>
</svg>
