<svg width="62" height="63" viewBox="0 0 62 63" fill="none" xmlns="http://www.w3.org/2000/svg">
<g clip-path="url(#clip0_174_261)">
<path fill-rule="evenodd" clip-rule="evenodd" d="M38.2304 4.01674V47.5924L33.0555 42.3431C32.6781 41.9515 32.1614 41.7308 31.622 41.7308C31.0827 41.7308 30.566 41.9515 30.1885 42.3431L24.18 48.4501H3.6637C2.54212 48.4467 1.63372 47.5234 1.63037 46.3834V9.18341H6.71371C7.83529 9.18 8.74369 8.25672 8.74704 7.11674V1.95007H36.197C37.3186 1.95348 38.227 2.87676 38.2304 4.01674Z" fill="#1F0E14"/>
<path fill-rule="evenodd" clip-rule="evenodd" d="M30.0054 42.3431C29.6279 41.9515 29.1112 41.7308 28.5719 41.7308C28.0325 41.7308 27.5159 41.9515 27.1384 42.3431L21.1299 48.4501H24.1799L30.0969 42.4361L30.0054 42.3431Z" fill="#1F0E14"/>
<path fill-rule="evenodd" clip-rule="evenodd" d="M36.197 1.95007H33.147C34.2686 1.95348 35.177 2.87676 35.1803 4.01674V44.4986L38.2303 47.5924V4.01674C38.227 2.87676 37.3186 1.95348 36.197 1.95007Z" fill="#1F0E14"/>
<path fill-rule="evenodd" clip-rule="evenodd" d="M29.0803 19.2171V29.8501C29.0769 30.9901 28.1685 31.9134 27.0469 31.9168H12.8136C11.692 31.9134 10.7836 30.9901 10.7803 29.8501V19.2171L19.9303 11.8494L29.0803 19.2171Z" fill="#1F0E14"/>
<path fill-rule="evenodd" clip-rule="evenodd" d="M31.8967 17.5431L30.5954 19.1344C30.2349 19.5773 29.5904 19.6419 29.1517 19.2791L29.0806 19.217L19.9305 11.8494L10.7805 19.217L10.7094 19.2791C10.2707 19.6419 9.62622 19.5773 9.26572 19.1344L7.96438 17.5431C7.79053 17.3318 7.70765 17.0583 7.73443 16.7842C7.76121 16.5101 7.89538 16.2585 8.10671 16.0861L19.2799 6.89972C19.6601 6.58982 20.201 6.58982 20.5812 6.89972L25.0139 10.5474L29.0806 13.8851L31.7544 16.0861C31.9657 16.2585 32.0999 16.5101 32.1267 16.7842C32.1534 17.0583 32.0706 17.3318 31.8967 17.5431Z" fill="#1F0E14"/>
<path fill-rule="evenodd" clip-rule="evenodd" d="M29.0803 8.15009V13.8851L25.0137 10.5474V8.15009C25.0137 7.5794 25.4688 7.11676 26.0303 7.11676H28.0637C28.6252 7.11676 29.0803 7.5794 29.0803 8.15009Z" fill="#1F0E14"/>
<path fill-rule="evenodd" clip-rule="evenodd" d="M18.9137 23.6501H20.947C22.07 23.6501 22.9804 24.5754 22.9804 25.7168V31.9168H16.8804V25.7168C16.8804 24.5754 17.7907 23.6501 18.9137 23.6501Z" fill="#1F0E14"/>
<path fill-rule="evenodd" clip-rule="evenodd" d="M8.74704 1.95007V7.11674C8.74369 8.25672 7.83529 9.18 6.7137 9.18341H1.63037L8.74704 1.95007Z" fill="#1F0E14"/>
<path fill-rule="evenodd" clip-rule="evenodd" d="M60.5665 32.2784L58.7264 39.7597C58.6292 40.1535 58.3316 40.464 57.9468 40.573C57.5621 40.682 57.1494 40.5727 56.8659 40.2867L55.5442 38.9434L55.4222 39.0571L41.1889 53.5238C40.8114 53.9153 40.2947 54.136 39.7554 54.136C39.216 54.136 38.6993 53.9153 38.3219 53.5238L31.622 46.7244L17.2972 61.2738C16.5055 62.0784 15.2219 62.0784 14.4302 61.2738C13.6385 60.4691 13.6385 59.1644 14.4302 58.3598L30.1885 42.3431C30.566 41.9515 31.0827 41.7308 31.622 41.7308C32.1614 41.7308 32.6781 41.9515 33.0555 42.3431L38.2304 47.5924L39.7554 49.1424L52.667 36.0191L51.3454 34.6757C51.064 34.3876 50.9565 33.9681 51.0638 33.577C51.171 33.186 51.4765 32.8835 51.8639 32.7847L59.2245 30.9144C59.6013 30.8208 59.9988 30.9339 60.2731 31.2127C60.5474 31.4914 60.6586 31.8955 60.5665 32.2784Z" fill="#1F0E14"/>
<path fill-rule="evenodd" clip-rule="evenodd" d="M55.5138 39.1501V61.8834H15.8638C16.4023 61.8819 16.9181 61.6625 17.2973 61.2737L31.6221 46.7244L38.3219 53.5237C38.6994 53.9153 39.2161 54.136 39.7554 54.136C40.2948 54.136 40.8115 53.9153 41.1889 53.5237L55.4223 39.0571L55.5138 39.1501Z" fill="#1F0E14"/>
<path fill-rule="evenodd" clip-rule="evenodd" d="M35.272 53.5238C35.6495 53.9153 36.1661 54.136 36.7055 54.136C37.2449 54.136 37.7615 53.9153 38.139 53.5238L38.2305 53.4308L31.6222 46.7244L30.0972 48.2744L35.272 53.5238Z" fill="#1F0E14"/>
<path fill-rule="evenodd" clip-rule="evenodd" d="M55.4224 39.0571L52.4639 42.0641V61.8834H55.5139V39.1501L55.4224 39.0571Z" fill="#1F0E14"/>
<path fill-rule="evenodd" clip-rule="evenodd" d="M3.6637 48.4501H6.7137C5.59212 48.4467 4.68372 47.5234 4.68037 46.3834V9.18341L11.797 1.95007H8.74704L1.63037 9.18341V46.3834C1.63372 47.5234 2.54212 48.4467 3.6637 48.4501Z" fill="#1F0E14"/>
<path fill-rule="evenodd" clip-rule="evenodd" d="M0.61377 9.18341H2.6471V17.4501H0.61377V9.18341Z" fill="#1F0E14"/>
<path d="M1.63044 14.3501C2.19193 14.3501 2.6471 13.8874 2.6471 13.3167C2.6471 12.746 2.19193 12.2834 1.63044 12.2834C1.06895 12.2834 0.61377 12.746 0.61377 13.3167C0.61377 13.8874 1.06895 14.3501 1.63044 14.3501Z" fill="#F5A29C"/>
<path d="M28.0637 6.0834H26.0303C24.9073 6.0834 23.997 7.00868 23.997 8.15006V8.38153L21.2215 6.09993C20.4672 5.48459 19.3935 5.48459 18.6392 6.09993L7.46904 15.2801C7.04687 15.6257 6.77857 16.1288 6.72412 16.677C6.66967 17.2252 6.83361 17.7727 7.17929 18.1972L8.48266 19.7968C8.80674 20.1909 9.26324 20.4486 9.76366 20.5201V29.8501C9.76366 31.5621 11.1292 32.9501 12.8137 32.9501H27.047C28.7315 32.9501 30.097 31.5621 30.097 29.8501V20.5191C30.5976 20.4482 31.0543 20.1903 31.378 19.7957L32.6814 18.1961C33.0269 17.7717 33.1908 17.2244 33.1366 16.6763C33.0823 16.1282 32.8144 15.625 32.3926 15.279L30.097 13.3942V8.15006C30.097 7.00868 29.1866 6.0834 28.0637 6.0834ZM26.0303 8.15006H28.0637V11.7233L26.0303 10.0524V8.15006ZM21.9637 30.8834H17.897V25.7167C17.897 25.146 18.3522 24.6834 18.9137 24.6834H20.947C21.5085 24.6834 21.9637 25.146 21.9637 25.7167V30.8834ZM28.0637 29.8501C28.0637 30.4208 27.6085 30.8834 27.047 30.8834H23.997V25.7167C23.997 24.0047 22.6315 22.6167 20.947 22.6167H18.9137C17.2292 22.6167 15.8637 24.0047 15.8637 25.7167V30.8834H12.8137C12.2522 30.8834 11.797 30.4208 11.797 29.8501V19.7234L19.9303 13.1669L28.0637 19.7234V29.8501ZM31.1137 16.8797L29.8123 18.4834C29.8055 18.4877 29.7968 18.4877 29.79 18.4834L29.7747 18.4731L20.5627 11.0434C20.1924 10.7444 19.6682 10.7444 19.298 11.0434L10.0493 18.4834L8.74699 16.8879L19.9425 7.70676L31.1137 16.8797Z" fill="#F5A29C"/>
<path fill-rule="evenodd" clip-rule="evenodd" d="M4.68066 36.0501C4.68066 36.6208 5.13584 37.0834 5.69733 37.0834H17.8973C18.4588 37.0834 18.914 36.6208 18.914 36.0501C18.914 35.4794 18.4588 35.0167 17.8973 35.0167H5.69733C5.13584 35.0167 4.68066 35.4794 4.68066 36.0501Z" fill="#F5A29C"/>
<path fill-rule="evenodd" clip-rule="evenodd" d="M5.69733 41.2168H17.8973C18.4588 41.2168 18.914 40.7541 18.914 40.1834C18.914 39.6127 18.4588 39.1501 17.8973 39.1501H5.69733C5.13584 39.1501 4.68066 39.6127 4.68066 40.1834C4.68066 40.7541 5.13584 41.2168 5.69733 41.2168Z" fill="#F5A29C"/>
<path fill-rule="evenodd" clip-rule="evenodd" d="M5.69733 45.3501H17.8973C18.4588 45.3501 18.914 44.8875 18.914 44.3168C18.914 43.7461 18.4588 43.2834 17.8973 43.2834H5.69733C5.13584 43.2834 4.68066 43.7461 4.68066 44.3168C4.68066 44.8875 5.13584 45.3501 5.69733 45.3501Z" fill="#F5A29C"/>
<path fill-rule="evenodd" clip-rule="evenodd" d="M35.0078 36.0501C35.0078 35.4794 34.5526 35.0167 33.9911 35.0167H21.9639C21.4024 35.0167 20.9473 35.4794 20.9473 36.0501C20.9473 36.6208 21.4024 37.0834 21.9639 37.0834H33.9911C34.5526 37.0834 35.0078 36.6208 35.0078 36.0501Z" fill="#F5A29C"/>
<path fill-rule="evenodd" clip-rule="evenodd" d="M21.9639 39.1501C21.4024 39.1501 20.9473 39.6127 20.9473 40.1834C20.9473 40.7541 21.4024 41.2168 21.9639 41.2168H27.0473C27.6088 41.2168 28.0639 40.7541 28.0639 40.1834C28.0639 39.6127 27.6088 39.1501 27.0473 39.1501H21.9639Z" fill="#F5A29C"/>
<path d="M58.9776 29.9121L51.6118 31.7834C50.8687 31.9776 50.2846 32.561 50.0807 33.3128C49.8746 34.0596 50.0837 34.8613 50.6267 35.4063L51.2295 36.0191L39.7554 47.6813L39.2471 47.1646V4.01675C39.2471 2.30467 37.8816 0.916748 36.1971 0.916748H8.7471C8.72474 0.916748 8.70644 0.928115 8.68509 0.929148C8.59255 0.935254 8.50124 0.954023 8.41364 0.984948C8.38219 0.994942 8.35131 1.00667 8.32112 1.02008C8.21313 1.0687 8.11437 1.1362 8.02934 1.21951L0.91267 8.45285C0.622127 8.74824 0.535123 9.19237 0.692185 9.57835C0.849248 9.96433 1.21949 10.2162 1.63044 10.2167H6.71377C8.39824 10.2167 9.76377 8.82883 9.76377 7.11675V2.98341H36.1971C36.7586 2.98341 37.2138 3.44605 37.2138 4.01675V45.1031L33.7795 41.6166C32.5779 40.4357 30.6714 40.4357 29.4698 41.6166L23.7592 47.4167H3.66377C3.10228 47.4167 2.6471 46.9541 2.6471 46.3834V17.4501C2.6471 16.8794 2.19193 16.4167 1.63044 16.4167C1.06895 16.4167 0.61377 16.8794 0.61377 17.4501V46.3834C0.61377 48.0955 1.9793 49.4834 3.66377 49.4834H21.7259L13.7156 57.624C12.8438 58.5094 12.582 59.841 13.052 60.999C13.522 62.1569 14.6314 62.9136 15.8638 62.9167H55.5138C56.0753 62.9167 56.5304 62.4541 56.5304 61.8834V41.3201C57.0287 41.6421 57.6377 41.7348 58.2069 41.5753C58.9482 41.3673 59.5228 40.7714 59.7126 40.0139L61.5518 32.5336C61.7315 31.7984 61.5193 31.0212 60.9925 30.4853C60.4656 29.9493 59.7011 29.733 58.9776 29.9152V29.9121ZM7.73044 7.11675C7.73044 7.68744 7.27526 8.15008 6.71377 8.15008H4.08467L7.73044 4.44455V7.11675ZM21.9638 60.8501H19.1537L21.9638 57.996V60.8501ZM26.0304 60.8501H23.9971V55.9304L26.0304 53.8637V60.8501ZM30.0971 60.8501H28.0638V51.8001L30.0971 49.7335V60.8501ZM34.1638 60.8501H32.1304V48.7001L34.1638 50.7668V60.8501ZM38.2304 60.8501H36.1971V52.8273L37.5981 54.2502C37.7864 54.4371 37.9992 54.5967 38.2304 54.7245V60.8501ZM42.2971 60.8501H40.2638V55.0903C40.8853 54.9971 41.4613 54.7046 41.9077 54.2553L42.2971 53.8596V60.8501ZM46.3638 60.8501H44.3304V51.7939L46.3638 49.7273V60.8501ZM50.4304 60.8501H48.3971V47.6637L50.4304 45.597V60.8501ZM54.4971 60.8501H52.4638V43.5335L54.4971 41.4668V60.8501ZM59.5804 32.0201L57.7413 39.4962C57.7413 39.5117 57.7332 39.551 57.5847 39.549L56.2631 38.2056C55.8661 37.8022 55.2225 37.8022 54.8255 38.2056L40.4671 52.7983C40.0718 53.1922 39.4391 53.1922 39.0438 52.7983L32.345 45.999C31.9479 45.5956 31.3044 45.5956 30.9074 45.999L16.5754 60.5401C16.1787 60.9421 15.5367 60.9421 15.1399 60.5401C14.948 60.3496 14.8402 60.0883 14.8412 59.8157C14.8422 59.543 14.9518 59.2825 15.145 59.0934L30.9033 43.0767C31.0904 42.8818 31.347 42.7719 31.615 42.7719C31.8829 42.7719 32.1395 42.8818 32.3267 43.0767L39.0255 49.8761C39.4225 50.2795 40.066 50.2795 40.463 49.8761L53.3747 36.7527C53.7716 36.3492 53.7716 35.6951 53.3747 35.2916L52.0307 33.8615C52.0383 33.8262 52.0652 33.7985 52.0998 33.7902L59.5428 31.9467C59.5684 31.9616 59.5831 31.9902 59.5804 32.0201Z" fill="#F5A29C"/>
</g>
<defs>
<clipPath id="clip0_174_261">
<rect width="61" height="62" fill="white" transform="translate(0.61377 0.916748)"/>
</clipPath>
</defs>
</svg>
