<svg width="21" height="21" viewBox="0 0 21 21" fill="none" xmlns="http://www.w3.org/2000/svg">
<path fill-rule="evenodd" clip-rule="evenodd" d="M2.40552 9.38989C2.40552 5.5239 5.53953 2.38989 9.40552 2.38989C13.2715 2.38989 16.4055 5.5239 16.4055 9.38989C16.4055 13.2559 13.2715 16.3899 9.40552 16.3899C5.53953 16.3899 2.40552 13.2559 2.40552 9.38989ZM9.40552 0.389893C4.43496 0.389893 0.405518 4.41933 0.405518 9.38989C0.405518 14.3605 4.43496 18.3899 9.40552 18.3899C11.5305 18.3899 13.4835 17.6534 15.0232 16.4218L18.6984 20.097C19.0889 20.4875 19.7221 20.4875 20.1126 20.097C20.5031 19.7065 20.5031 19.0733 20.1126 18.6828L16.4374 15.0076C17.669 13.4679 18.4055 11.5149 18.4055 9.38989C18.4055 4.41933 14.3761 0.389893 9.40552 0.389893Z" fill="#555555"/>
</svg>
