<svg width="26" height="27" viewBox="0 0 26 27" fill="none" xmlns="http://www.w3.org/2000/svg">
<g clip-path="url(#clip0_138_521)">
<path d="M25.1522 25.1999H20.3478V6.54766H21.1956C21.6638 6.54766 22.0435 6.16807 22.0435 5.69982C22.0435 5.23157 21.6639 4.85198 21.1956 4.85198C20.4016 4.85198 19.4488 4.85198 18.6522 4.85198V2.59114H19.5C19.9682 2.59114 20.3478 2.21155 20.3478 1.7433C20.3478 1.27505 19.9682 0.895508 19.5 0.895508C19.3801 0.895508 6.06435 0.895508 5.9348 0.895508C5.4666 0.895508 5.08696 1.2751 5.08696 1.74335C5.08696 2.21161 5.46655 2.5912 5.9348 2.5912H6.78265V4.85208C5.98574 4.85208 5.03262 4.85208 4.23917 4.85208C3.77096 4.85208 3.39132 5.23167 3.39132 5.69992C3.39132 6.16818 3.77091 6.54777 4.23917 6.54777H5.08701V25.1999H0.847844C0.37959 25.1999 0 25.5795 0 26.0477C0 26.5159 0.37959 26.8955 0.847844 26.8955C1.08352 26.8955 24.9423 26.8955 25.1522 26.8955C25.6204 26.8955 26 26.5159 26 26.0477C26 25.5794 25.6204 25.1999 25.1522 25.1999ZM8.47828 2.59114H16.9565V4.85203H8.47828V2.59114ZM18.6522 25.1999H6.7826V6.54766C7.04138 6.54766 18.2782 6.54766 18.6522 6.54766V25.1999Z" fill="black"/>
<path d="M10.1739 11.6345H8.47827V13.3302H10.1739V11.6345Z" fill="black"/>
<path d="M10.1739 15.0259H8.47827V16.7215H10.1739V15.0259Z" fill="black"/>
<path d="M10.1739 18.4172H8.47827V20.1129H10.1739V18.4172Z" fill="black"/>
<path d="M10.1739 21.8086H8.47827V23.5042H10.1739V21.8086Z" fill="black"/>
<path d="M13.5651 11.6345H11.8695V13.3302H13.5651V11.6345Z" fill="black"/>
<path d="M13.5651 15.0259H11.8695V16.7215H13.5651V15.0259Z" fill="black"/>
<path d="M13.5651 18.4172H11.8695V20.1129H13.5651V18.4172Z" fill="black"/>
<path d="M13.5651 21.8086H11.8695V23.5042H13.5651V21.8086Z" fill="black"/>
<path d="M16.9565 11.6345H15.2609V13.3302H16.9565V11.6345Z" fill="black"/>
<path d="M10.1739 8.24341H8.47827V9.93905H10.1739V8.24341Z" fill="black"/>
<path d="M13.5651 8.24341H11.8695V9.93905H13.5651V8.24341Z" fill="black"/>
<path d="M16.9565 8.24341H15.2609V9.93905H16.9565V8.24341Z" fill="black"/>
<path d="M16.9565 15.0259H15.2609V16.7215H16.9565V15.0259Z" fill="black"/>
<path d="M16.9565 18.4172H15.2609V20.1129H16.9565V18.4172Z" fill="black"/>
<path d="M16.9565 21.8086H15.2609V23.5042H16.9565V21.8086Z" fill="black"/>
</g>
<defs>
<clipPath id="clip0_138_521">
<rect width="26" height="26" fill="white" transform="translate(0 0.895508)"/>
</clipPath>
</defs>
</svg>
