<svg width="220" height="220" viewBox="0 0 220 220" fill="none" xmlns="http://www.w3.org/2000/svg">
<path d="M86.5589 13.1078L86.8086 14.1726L82.4717 15.1896L82.222 14.1247L86.5589 13.1078Z" fill="white"/>
<path d="M55.0543 32.8268C54.4769 33.2035 53.8807 33.3967 53.2656 33.4062C52.6533 33.414 52.0638 33.2505 51.4971 32.9158C50.9332 32.5793 50.4358 32.0807 50.0047 31.4201C49.57 30.7539 49.3113 30.0936 49.2286 29.4392C49.1486 28.783 49.2355 28.1762 49.4892 27.6188C49.7457 27.0597 50.1626 26.5917 50.74 26.215C51.3173 25.8382 51.9122 25.646 52.5245 25.6383C53.1396 25.6287 53.73 25.7935 54.2957 26.1328C54.8641 26.4703 55.3657 26.9721 55.8004 27.6383C56.2315 28.2989 56.4861 28.956 56.5642 29.6094C56.6451 30.2611 56.5573 30.8665 56.3009 31.4257C56.0472 31.983 55.6316 32.45 55.0543 32.8268ZM54.4783 31.9441C54.9169 31.6579 55.2044 31.31 55.3408 30.9005C55.4772 30.4909 55.4939 30.0585 55.3908 29.6034C55.2877 29.1482 55.0967 28.7069 54.8178 28.2795C54.5389 27.852 54.211 27.4981 53.8341 27.2176C53.4572 26.9372 53.0529 26.7756 52.6212 26.7327C52.1896 26.6898 51.7545 26.8115 51.3159 27.0977C50.8774 27.3838 50.5908 27.7331 50.4562 28.1455C50.3216 28.5578 50.3067 28.9929 50.4116 29.4509C50.5165 29.9088 50.7084 30.3515 50.9873 30.7789C51.2662 31.2064 51.5932 31.559 51.9683 31.8366C52.3434 32.1143 52.7459 32.2731 53.1757 32.3132C53.6055 32.3533 54.0397 32.2303 54.4783 31.9441Z" fill="white"/>
<path d="M41.7734 44.2522C41.2434 44.7626 40.6736 45.0859 40.0639 45.2221C39.4543 45.3536 38.8422 45.3081 38.2276 45.0856C37.613 44.8583 37.0345 44.463 36.4919 43.8996C35.9493 43.3362 35.5738 42.7407 35.3652 42.1133C35.1568 41.4812 35.1215 40.8664 35.2593 40.2689C35.3973 39.6667 35.7145 39.1265 36.2111 38.6483C36.4976 38.3724 36.8264 38.1477 37.1977 37.9742C37.569 37.8007 37.9727 37.7111 38.4088 37.7052C38.8426 37.697 39.2965 37.8028 39.7706 38.0227C40.2446 38.2426 40.7288 38.6092 41.2231 39.1225L41.5679 39.4806L37.328 43.5637L36.6245 42.8332L40.005 39.5777C39.7061 39.2673 39.3773 39.0502 39.0187 38.9262C38.6624 38.8 38.3031 38.7756 37.9406 38.8532C37.5806 38.9284 37.2478 39.1132 36.9422 39.4075C36.6056 39.7317 36.3948 40.0957 36.3098 40.4996C36.2249 40.8989 36.2444 41.2942 36.3683 41.6857C36.4922 42.0771 36.7002 42.4244 36.9922 42.7276L37.4612 43.2146C37.8612 43.63 38.2719 43.9132 38.6934 44.0641C39.1149 44.2104 39.527 44.2345 39.9297 44.1366C40.33 44.0363 40.7009 43.8218 41.0423 43.493C41.2643 43.2792 41.435 43.0551 41.5543 42.8206C41.6736 42.5814 41.738 42.3353 41.7475 42.0823C41.7546 41.827 41.7021 41.5693 41.5898 41.3093L42.6269 40.7522C42.8077 41.1119 42.8978 41.4945 42.8972 41.9C42.8943 42.3032 42.7999 42.7069 42.6142 43.1113C42.4261 43.5132 42.1459 43.8936 41.7734 44.2522Z" fill="white"/>
<path d="M30.1289 58.9193C29.7624 59.4395 29.3074 59.8062 28.764 60.0193C28.2179 60.2305 27.6244 60.2786 26.9837 60.1637C26.3403 60.0469 25.688 59.7556 25.0269 59.2898C24.3712 58.8278 23.8815 58.3145 23.5576 57.7498C23.2338 57.1852 23.0817 56.6097 23.1014 56.0236C23.1211 55.4374 23.3162 54.8815 23.6865 54.3559C23.9728 53.9495 24.2668 53.6761 24.5683 53.5358C24.8691 53.3909 25.1487 53.3163 25.4072 53.3119C25.6649 53.303 25.8728 53.3014 26.0308 53.3073L26.0881 53.226L23.0156 51.0613L23.6913 50.1021L32.0147 55.9665L31.3619 56.8931L30.4027 56.2173L30.3226 56.3311C30.3867 56.4817 30.4597 56.6832 30.5415 56.9354C30.6205 57.1857 30.6429 57.4792 30.6084 57.8158C30.5713 58.1504 30.4115 58.5183 30.1289 58.9193ZM29.359 58.1822C29.63 57.7974 29.7589 57.4017 29.7454 56.9949C29.7293 56.5862 29.5911 56.1867 29.3308 55.7966C29.0678 55.4045 28.7006 55.0424 28.2292 54.7102C27.7631 54.3819 27.3076 54.1623 26.8627 54.0515C26.415 53.9389 26.0001 53.9465 25.6179 54.0746C25.233 54.2008 24.9032 54.459 24.6283 54.8491C24.3419 55.2555 24.2076 55.6677 24.2254 56.0857C24.2423 56.499 24.3805 56.8984 24.64 57.2839C24.8987 57.6649 25.2475 58.01 25.6864 58.3192C26.1308 58.6323 26.5822 58.849 27.0407 58.9693C27.4984 59.085 27.9288 59.0842 28.3318 58.9667C28.7341 58.8447 29.0764 58.5832 29.359 58.1822Z" fill="white"/>
<path d="M24.6864 68.3878L17.9048 64.8773L18.4442 63.8353L25.2258 67.3459L24.6864 68.3878ZM17.0488 63.7624C16.9436 63.9655 16.7838 64.1048 16.5693 64.1804C16.3563 64.253 16.1526 64.239 15.9584 64.1385C15.7641 64.0379 15.6351 63.8797 15.5715 63.6639C15.5093 63.4451 15.5308 63.2341 15.6359 63.031C15.7411 62.8279 15.9001 62.6901 16.1131 62.6175C16.3277 62.5419 16.532 62.5544 16.7263 62.655C16.9206 62.7555 17.0488 62.9152 17.1109 63.134C17.1746 63.3498 17.1539 63.5593 17.0488 63.7624Z" fill="white"/>
<path d="M8.09596 83.1922L17.1839 83.1022L17.2225 82.9893L10.0886 77.3584L10.5065 76.1352L18.9332 82.9643L18.5218 84.1687L7.67814 84.4155L8.09596 83.1922Z" fill="white"/>
<path d="M17.7496 111.998C17.7416 112.196 17.718 112.373 17.6786 112.527C17.6426 112.682 17.6084 112.788 17.5762 112.846L16.5549 112.507C16.6392 112.225 16.6758 111.974 16.6647 111.755C16.6536 111.536 16.5637 111.338 16.395 111.162C16.2297 110.983 15.9561 110.814 15.5744 110.656L14.987 110.414L7.20383 112.928L7.25487 111.656L13.4197 109.794L13.4229 109.714L7.42713 107.364L7.47817 106.092L16.0911 109.682C16.4794 109.844 16.7983 110.037 17.048 110.263C17.301 110.489 17.4847 110.746 17.5991 111.036C17.7137 111.323 17.7638 111.643 17.7496 111.998Z" fill="white"/>
<path d="M16.6873 127.266C16.7542 127.745 16.7248 128.193 16.5988 128.608C16.4696 129.025 16.2487 129.372 15.9362 129.65C15.6203 129.928 15.2162 130.102 14.7239 130.171C14.2906 130.231 13.9274 130.195 13.6344 130.062C13.3381 129.929 13.0929 129.731 12.8987 129.467C12.7045 129.203 12.5455 128.904 12.4219 128.57C12.2945 128.233 12.1832 127.892 12.0882 127.547C11.9649 127.096 11.8685 126.73 11.799 126.448C11.7258 126.164 11.6423 125.961 11.5485 125.841C11.4542 125.717 11.3134 125.668 11.1263 125.694L11.087 125.699C10.6011 125.767 10.2422 125.953 10.0102 126.256C9.77778 126.557 9.69894 126.974 9.77372 127.509C9.85126 128.064 10.0335 128.482 10.3204 128.763C10.6074 129.044 10.8977 129.23 11.1913 129.319L10.9516 130.477C10.4645 130.344 10.07 130.132 9.76807 129.839C9.46242 129.544 9.23142 129.208 9.07506 128.832C8.91497 128.453 8.80831 128.073 8.75509 127.692C8.72114 127.449 8.71169 127.166 8.72673 126.842C8.73803 126.516 8.81166 126.193 8.94762 125.873C9.08313 125.549 9.31601 125.264 9.64628 125.017C9.97654 124.77 10.442 124.605 11.0427 124.521L16.0255 123.824L16.1879 124.986L15.1638 125.129L15.1721 125.189C15.3472 125.244 15.5412 125.351 15.754 125.509C15.9668 125.666 16.1601 125.889 16.3341 126.176C16.5081 126.463 16.6258 126.826 16.6873 127.266ZM15.6187 127.234C15.5544 126.775 15.41 126.4 15.1854 126.11C14.9604 125.817 14.6939 125.61 14.3858 125.489C14.0773 125.365 13.7655 125.325 13.4503 125.369L12.3868 125.518C12.4528 125.559 12.5221 125.659 12.5947 125.82C12.6636 125.978 12.7313 126.162 12.7976 126.374C12.8603 126.583 12.919 126.787 12.9737 126.987C13.0246 127.184 13.067 127.343 13.1009 127.466C13.1825 127.762 13.286 128.036 13.4113 128.286C13.5329 128.533 13.6919 128.725 13.8883 128.862C14.0811 128.996 14.3251 129.042 14.6205 129C15.0243 128.944 15.3087 128.752 15.4737 128.424C15.635 128.094 15.6833 127.697 15.6187 127.234Z" fill="white"/>
<path d="M8.81847 138.746L18.6399 136.061L18.9493 137.193L9.12788 139.878L8.81847 138.746Z" fill="white"/>
<path d="M25.6288 154.289L16.2794 158.322L14.917 155.163C14.6007 154.429 14.4745 153.772 14.5384 153.193C14.598 152.611 14.8029 152.111 15.1532 151.693C15.5034 151.275 15.954 150.947 16.5049 150.709C17.0557 150.472 17.6049 150.368 18.1525 150.399C18.6987 150.427 19.2062 150.616 19.6748 150.966C20.1404 151.318 20.5301 151.857 20.8438 152.585L21.8203 154.849L20.816 155.282L19.8552 153.054C19.6386 152.552 19.378 152.186 19.0732 151.957C18.7685 151.727 18.439 151.608 18.0847 151.598C17.7261 151.587 17.3596 151.662 16.9853 151.823C16.6109 151.985 16.3063 152.199 16.0715 152.466C15.8354 152.731 15.6999 153.053 15.6651 153.432C15.6272 153.813 15.7179 154.258 15.9371 154.766L16.7955 156.756L25.1405 153.157L25.6288 154.289Z" fill="white"/>
<path d="M38.0806 179.412L38.8724 178.658L41.9453 181.883L41.1534 182.637L38.0806 179.412Z" fill="white"/>
<path d="M71.0364 196.595C71.6536 196.903 72.1221 197.319 72.4417 197.845C72.7585 198.369 72.916 198.96 72.9143 199.618C72.9096 200.275 72.7315 200.956 72.3801 201.662C72.0257 202.374 71.5873 202.932 71.0648 203.334C70.5394 203.736 69.9722 203.968 69.3631 204.031C68.751 204.093 68.1364 203.971 67.5192 203.664C66.902 203.356 66.435 202.941 66.1183 202.417C65.7986 201.891 65.6419 201.299 65.648 200.639C65.6512 199.978 65.83 199.291 66.1844 198.579C66.5358 197.873 66.9735 197.321 67.4974 196.922C68.0184 196.523 68.5849 196.292 69.197 196.23C69.8061 196.167 70.4192 196.288 71.0364 196.595ZM70.5669 197.539C70.098 197.306 69.6525 197.234 69.2302 197.324C68.8079 197.413 68.4266 197.618 68.0863 197.937C67.746 198.257 67.4622 198.645 67.2348 199.102C67.0074 199.559 66.8682 200.021 66.8172 200.488C66.7662 200.955 66.8315 201.385 67.0131 201.779C67.1947 202.173 67.5199 202.487 67.9888 202.72C68.4576 202.953 68.9039 203.024 69.3276 202.931C69.7514 202.838 70.1341 202.631 70.4759 202.308C70.8177 201.986 71.1023 201.596 71.3297 201.139C71.5571 200.683 71.6955 200.222 71.745 199.758C71.7945 199.294 71.7278 198.866 71.5447 198.475C71.3616 198.085 71.0357 197.772 70.5669 197.539Z" fill="white"/>
<path d="M87.6137 202.263C88.3222 202.462 88.8895 202.79 89.3156 203.247C89.7377 203.706 90.0084 204.257 90.1277 204.899C90.2429 205.544 90.1949 206.243 89.9838 206.996C89.7726 207.75 89.4493 208.375 89.0138 208.872C88.5743 209.372 88.062 209.714 87.4769 209.898C86.8878 210.084 86.2614 210.084 85.5976 209.897C85.2146 209.79 84.8543 209.62 84.5167 209.388C84.1791 209.156 83.8974 208.853 83.6715 208.48C83.4448 208.11 83.3062 207.665 83.2558 207.145C83.2054 206.625 83.2764 206.021 83.4687 205.335L83.6029 204.857L89.2708 206.445L88.9971 207.422L84.4781 206.155C84.3618 206.57 84.341 206.964 84.4157 207.336C84.4872 207.707 84.6481 208.029 84.8985 208.302C85.1457 208.575 85.4736 208.768 85.8821 208.883C86.3321 209.009 86.7527 209.006 87.1441 208.875C87.5313 208.746 87.8623 208.529 88.1372 208.224C88.412 207.919 88.6062 207.564 88.7198 207.158L88.9023 206.507C89.058 205.952 89.0942 205.455 89.011 205.015C88.9237 204.577 88.7359 204.21 88.4476 203.912C88.1584 203.617 87.7856 203.406 87.3292 203.278C87.0324 203.195 86.7527 203.161 86.4901 203.177C86.2234 203.195 85.9786 203.265 85.7556 203.384C85.5318 203.508 85.3362 203.683 85.1689 203.912L84.1634 203.3C84.382 202.962 84.6664 202.69 85.0164 202.485C85.3655 202.284 85.7614 202.161 86.2041 202.116C86.646 202.075 87.1159 202.124 87.6137 202.263Z" fill="white"/>
<path d="M106.158 204.879C106.792 204.932 107.339 205.138 107.797 205.499C108.256 205.863 108.598 206.35 108.823 206.961C109.048 207.575 109.128 208.285 109.061 209.091C108.994 209.89 108.8 210.573 108.477 211.138C108.154 211.703 107.734 212.125 107.219 212.405C106.703 212.685 106.125 212.798 105.485 212.745C104.989 212.704 104.605 212.589 104.331 212.4C104.054 212.214 103.848 212.01 103.713 211.79C103.575 211.572 103.468 211.394 103.393 211.254L103.294 211.246L102.983 214.992L101.814 214.895L102.657 204.748L103.786 204.842L103.689 206.011L103.828 206.022C103.925 205.891 104.062 205.726 104.238 205.528C104.414 205.333 104.656 205.165 104.963 205.024C105.271 204.887 105.669 204.838 106.158 204.879ZM105.912 205.916C105.443 205.877 105.036 205.966 104.692 206.184C104.348 206.405 104.074 206.726 103.869 207.148C103.664 207.573 103.538 208.074 103.49 208.648C103.443 209.216 103.484 209.72 103.614 210.16C103.743 210.603 103.96 210.957 104.264 211.222C104.568 211.49 104.957 211.644 105.433 211.683C105.929 211.724 106.352 211.631 106.703 211.404C107.051 211.181 107.326 210.859 107.527 210.44C107.724 210.024 107.845 209.549 107.89 209.014C107.935 208.472 107.893 207.973 107.765 207.517C107.633 207.063 107.414 206.693 107.109 206.405C106.8 206.119 106.401 205.957 105.912 205.916Z" fill="white"/>
<path d="M117.079 204.778L117.485 212.403L116.313 212.466L115.907 204.84L117.079 204.778ZM116.957 213.706C117.185 213.694 117.386 213.761 117.56 213.908C117.731 214.055 117.822 214.238 117.833 214.456C117.845 214.674 117.774 214.866 117.62 215.03C117.463 215.194 117.27 215.283 117.042 215.295C116.813 215.307 116.614 215.24 116.443 215.093C116.27 214.946 116.177 214.763 116.165 214.545C116.154 214.326 116.226 214.135 116.384 213.971C116.537 213.806 116.729 213.718 116.957 213.706Z" fill="white"/>
<path d="M138.245 211.589L133.566 203.797L133.449 203.821L132.205 212.824L130.939 213.083L132.561 202.359L133.808 202.104L139.512 211.33L138.245 211.589Z" fill="white"/>
<path d="M158.198 188.679C158.373 188.585 158.537 188.516 158.69 188.472C158.842 188.425 158.951 188.401 159.018 188.399L159.242 189.451C158.956 189.521 158.721 189.617 158.538 189.737C158.354 189.858 158.229 190.036 158.163 190.27C158.092 190.504 158.086 190.825 158.143 191.234L158.231 191.863L164.339 197.302L163.217 197.902L158.49 193.529L158.42 193.566L159.429 199.927L158.306 200.527L157.041 191.282C156.983 190.865 156.989 190.492 157.057 190.162C157.124 189.83 157.253 189.541 157.445 189.296C157.634 189.052 157.885 188.846 158.198 188.679Z" fill="white"/>
<path d="M171.902 181.865C172.281 181.564 172.682 181.363 173.104 181.261C173.529 181.162 173.94 181.176 174.338 181.305C174.738 181.437 175.092 181.697 175.401 182.087C175.672 182.43 175.825 182.761 175.858 183.081C175.894 183.404 175.847 183.716 175.718 184.017C175.589 184.318 175.411 184.607 175.186 184.883C174.96 185.163 174.722 185.431 174.473 185.688C174.146 186.023 173.879 186.291 173.671 186.494C173.463 186.701 173.331 186.876 173.274 187.018C173.215 187.162 173.244 187.308 173.361 187.456L173.386 187.487C173.691 187.872 174.033 188.087 174.412 188.134C174.788 188.182 175.188 188.039 175.612 187.703C176.051 187.355 176.319 186.987 176.416 186.597C176.514 186.207 176.526 185.863 176.455 185.564L177.575 185.185C177.707 185.672 177.723 186.12 177.624 186.528C177.524 186.941 177.352 187.311 177.106 187.636C176.86 187.966 176.587 188.25 176.285 188.489C176.093 188.641 175.853 188.793 175.567 188.944C175.28 189.099 174.964 189.199 174.619 189.244C174.271 189.291 173.908 189.235 173.527 189.075C173.147 188.915 172.769 188.597 172.392 188.122L169.269 184.178L170.189 183.449L170.831 184.26L170.877 184.223C170.837 184.044 170.831 183.822 170.859 183.559C170.887 183.296 170.981 183.016 171.14 182.721C171.3 182.426 171.553 182.14 171.902 181.865ZM172.416 182.802C172.052 183.09 171.802 183.404 171.665 183.745C171.527 184.087 171.483 184.422 171.535 184.749C171.584 185.078 171.707 185.367 171.905 185.616L172.571 186.458C172.573 186.381 172.625 186.27 172.727 186.126C172.828 185.987 172.953 185.835 173.102 185.67C173.25 185.511 173.396 185.357 173.541 185.208C173.685 185.065 173.801 184.947 173.89 184.856C174.104 184.635 174.288 184.408 174.44 184.173C174.592 183.943 174.677 183.709 174.695 183.47C174.713 183.236 174.629 183.002 174.444 182.768C174.191 182.449 173.881 182.301 173.515 182.324C173.148 182.353 172.782 182.512 172.416 182.802Z" fill="white"/>
<path d="M185.786 182.837L178.497 175.727L179.317 174.887L186.605 181.997L185.786 182.837Z" fill="white"/>
<path d="M190.679 160.472L198.89 166.492L196.855 169.267C196.383 169.911 195.881 170.352 195.348 170.591C194.816 170.834 194.282 170.91 193.744 170.82C193.206 170.73 192.695 170.507 192.211 170.152C191.727 169.798 191.36 169.376 191.11 168.888C190.857 168.403 190.763 167.87 190.828 167.288C190.895 166.709 191.163 166.1 191.631 165.461L193.09 163.472L193.972 164.119L192.537 166.076C192.214 166.517 192.03 166.927 191.986 167.306C191.943 167.685 192.007 168.029 192.178 168.34C192.349 168.655 192.6 168.933 192.928 169.174C193.257 169.415 193.596 169.569 193.946 169.636C194.293 169.706 194.639 169.66 194.984 169.498C195.332 169.338 195.669 169.034 195.997 168.588L197.278 166.84L189.95 161.466L190.679 160.472Z" fill="white"/>
<path d="M206.038 137.013L204.987 136.713L206.212 132.43L207.263 132.731L206.038 137.013Z" fill="white"/>
<path d="M204.169 99.8936C204.122 99.2059 204.244 98.5911 204.535 98.0493C204.826 97.5108 205.256 97.0757 205.825 96.744C206.393 96.4155 207.071 96.2241 207.858 96.1695C208.652 96.1145 209.354 96.2104 209.966 96.457C210.578 96.707 211.066 97.0785 211.429 97.5717C211.792 98.0681 211.998 98.6602 212.045 99.3479C212.093 100.036 211.971 100.649 211.679 101.187C211.388 101.729 210.956 102.164 210.384 102.493C209.813 102.825 209.13 103.018 208.337 103.073C207.55 103.128 206.852 103.03 206.243 102.78C205.635 102.533 205.149 102.161 204.785 101.665C204.422 101.172 204.217 100.581 204.169 99.8936ZM205.221 99.8208C205.257 100.343 205.421 100.764 205.712 101.082C206.003 101.401 206.372 101.626 206.82 101.758C207.268 101.89 207.746 101.938 208.255 101.903C208.765 101.868 209.234 101.754 209.662 101.561C210.091 101.369 210.429 101.095 210.677 100.738C210.924 100.382 211.03 99.9432 210.994 99.4208C210.958 98.8984 210.792 98.4779 210.498 98.1594C210.203 97.841 209.831 97.616 209.38 97.4844C208.929 97.3529 208.449 97.3047 207.939 97.34C207.43 97.3753 206.963 97.4891 206.538 97.6813C206.112 97.8736 205.778 98.1476 205.533 98.5034C205.289 98.8593 205.185 99.2984 205.221 99.8208Z" fill="white"/>
<path d="M200.664 82.7287C200.477 82.0172 200.472 81.3621 200.65 80.7633C200.832 80.1669 201.17 79.6546 201.664 79.2263C202.162 78.8004 202.789 78.4878 203.545 78.2885C204.302 78.0892 205.005 78.0514 205.654 78.175C206.308 78.301 206.862 78.5698 207.317 78.9813C207.775 79.3951 208.092 79.9354 208.268 80.602C208.369 80.9867 208.405 81.3833 208.376 81.7921C208.346 82.2009 208.228 82.5971 208.021 82.9808C207.816 83.3636 207.503 83.7084 207.08 84.0152C206.657 84.322 206.101 84.5662 205.412 84.7478L204.931 84.8744L203.431 79.1823L204.412 78.9239L205.608 83.4622C206.024 83.3524 206.374 83.1712 206.657 82.9184C206.941 82.6688 207.137 82.3669 207.246 82.0126C207.356 81.6615 207.357 81.2808 207.249 80.8706C207.13 80.4187 206.914 80.0572 206.603 79.7862C206.296 79.5175 205.941 79.3419 205.539 79.2594C205.137 79.1768 204.732 79.1892 204.325 79.2964L203.671 79.4687C203.114 79.6156 202.666 79.8363 202.329 80.1307C201.996 80.4276 201.774 80.7757 201.663 81.175C201.556 81.5735 201.562 82.0019 201.683 82.4602C201.762 82.7583 201.874 83.0165 202.021 83.235C202.172 83.4557 202.355 83.6319 202.571 83.7634C202.791 83.8941 203.042 83.9737 203.323 84.0023L203.304 85.1795C202.902 85.1621 202.524 85.0543 202.17 84.8562C201.82 84.6572 201.513 84.3781 201.251 84.0189C200.991 83.6588 200.796 83.2287 200.664 82.7287Z" fill="white"/>
<path d="M193.53 65.4133C193.254 64.8397 193.156 64.2638 193.235 63.6854C193.316 63.1055 193.563 62.5638 193.976 62.0603C194.391 61.5554 194.964 61.1277 195.693 60.7774C196.415 60.4299 197.102 60.2524 197.753 60.2447C198.404 60.2371 198.981 60.3847 199.483 60.6875C199.985 60.9904 200.376 61.4315 200.654 62.0111C200.87 62.4591 200.965 62.849 200.941 63.1807C200.921 63.5139 200.85 63.7945 200.727 64.0224C200.61 64.2518 200.51 64.434 200.428 64.5691L200.471 64.6588L203.858 63.0305L204.366 64.088L195.19 68.4989L194.699 67.4773L195.756 66.969L195.696 66.8435C195.533 66.8261 195.322 66.7917 195.061 66.7402C194.804 66.6873 194.537 66.5638 194.26 66.3697C193.986 66.1742 193.743 65.8554 193.53 65.4133ZM194.549 65.1001C194.753 65.5243 195.036 65.8296 195.397 66.0161C195.762 66.2012 196.178 66.2751 196.646 66.2379C197.116 66.1993 197.612 66.0551 198.131 65.8052C198.645 65.5583 199.059 65.2675 199.372 64.9329C199.689 64.5969 199.884 64.2308 199.959 63.8347C200.036 63.4371 199.971 63.0233 199.765 62.5931C199.549 62.145 199.255 61.8269 198.881 61.6387C198.512 61.4521 198.096 61.3782 197.633 61.4169C197.174 61.4572 196.703 61.5936 196.219 61.8262C195.729 62.0617 195.32 62.3503 194.991 62.6921C194.667 63.0354 194.458 63.4117 194.364 63.8208C194.275 64.2315 194.336 64.658 194.549 65.1001Z" fill="white"/>
<path d="M187.914 56.0467L194.284 51.8353L194.931 52.814L188.561 57.0254L187.914 56.0467ZM195.675 51.631C195.548 51.4402 195.505 51.2328 195.543 51.0086C195.584 50.7872 195.695 50.6162 195.877 50.4956C196.06 50.375 196.261 50.3394 196.48 50.389C196.702 50.4413 196.876 50.5629 197.002 50.7536C197.128 50.9444 197.171 51.1505 197.13 51.3719C197.092 51.596 196.981 51.7684 196.799 51.889C196.616 52.0097 196.414 52.0438 196.193 51.9915C195.973 51.9419 195.801 51.8218 195.675 51.631Z" fill="white"/>
<path d="M183.07 34.3456L178.72 42.3255L178.8 42.4142L187.193 38.9283L188.058 39.8892L177.988 43.9203L177.137 42.9742L182.205 33.3846L183.07 34.3456Z" fill="white"/>
<path d="M153.212 28.7393C153.042 28.6355 152.899 28.5288 152.784 28.4192C152.666 28.3125 152.59 28.2308 152.555 28.1742L153.349 27.4478C153.554 27.6588 153.755 27.8129 153.952 27.9101C154.149 28.0073 154.365 28.0251 154.601 27.9635C154.838 27.9064 155.119 27.7497 155.443 27.4933L155.941 27.0985L157.538 19.077L158.624 19.7412L157.246 26.0321L157.314 26.0736L162.288 21.983L163.373 22.6472L156.042 28.4193C155.712 28.6796 155.387 28.8638 155.068 28.9719C154.748 29.0828 154.433 29.1176 154.124 29.0763C153.818 29.0367 153.514 28.9244 153.212 28.7393Z" fill="white"/>
<path d="M140.396 20.3718C139.945 20.1968 139.569 19.953 139.267 19.6404C138.966 19.3247 138.771 18.9627 138.68 18.5543C138.591 18.1428 138.636 17.7054 138.816 17.2419C138.975 16.834 139.183 16.5345 139.442 16.3435C139.702 16.1493 139.995 16.0318 140.32 15.9909C140.645 15.95 140.984 15.9569 141.336 16.0117C141.692 16.0646 142.044 16.1336 142.392 16.2186C142.846 16.3308 143.213 16.4252 143.492 16.5017C143.776 16.5763 143.994 16.602 144.145 16.5789C144.299 16.557 144.41 16.4579 144.479 16.2818L144.493 16.2447C144.671 15.7874 144.683 15.3835 144.531 15.033C144.382 14.6837 144.056 14.4114 143.552 14.216C143.03 14.0134 142.576 13.9689 142.191 14.0824C141.806 14.196 141.503 14.3592 141.281 14.572L140.387 13.7984C140.74 13.4377 141.118 13.1968 141.521 13.0757C141.927 12.9527 142.333 12.9146 142.738 12.9615C143.147 13.0064 143.531 13.0985 143.889 13.2375C144.118 13.3262 144.37 13.4559 144.645 13.6267C144.924 13.7955 145.171 14.0173 145.384 14.292C145.601 14.568 145.736 14.9103 145.791 15.3191C145.846 15.7278 145.763 16.2149 145.544 16.7804L143.724 21.471L142.63 21.0466L143.004 20.0825L142.949 20.0609C142.814 20.1866 142.627 20.304 142.385 20.413C142.144 20.522 141.856 20.5825 141.52 20.5946C141.185 20.6068 140.81 20.5325 140.396 20.3718ZM140.944 19.454C141.377 19.6218 141.775 19.6783 142.137 19.6234C142.503 19.5698 142.813 19.4379 143.069 19.2278C143.328 19.0189 143.515 18.7662 143.63 18.4695L144.018 17.4684C143.95 17.506 143.829 17.5174 143.653 17.5026C143.482 17.486 143.288 17.455 143.071 17.4099C142.858 17.3629 142.651 17.3146 142.45 17.265C142.253 17.2135 142.093 17.1727 141.969 17.1426C141.67 17.0693 141.381 17.0265 141.102 17.014C140.826 16.9997 140.581 17.045 140.366 17.15C140.156 17.2531 139.996 17.4438 139.889 17.7219C139.741 18.1019 139.77 18.4438 139.976 18.7476C140.186 19.0495 140.509 19.2849 140.944 19.454Z" fill="white"/>
<path d="M134.205 7.90646L131.764 17.7913L130.625 17.51L133.066 7.62517L134.205 7.90646Z" fill="white"/>
<path d="M112.441 15.0118L113.475 4.88268L116.898 5.23224C117.693 5.3134 118.327 5.52318 118.803 5.86156C119.281 6.19699 119.618 6.61951 119.813 7.12912C120.007 7.63874 120.074 8.19194 120.013 8.78875C119.952 9.38555 119.775 9.91548 119.481 10.3786C119.19 10.842 118.778 11.193 118.244 11.4316C117.71 11.6669 117.049 11.7444 116.261 11.6639L113.808 11.4133L113.919 10.3252L116.333 10.5718C116.877 10.6273 117.323 10.578 117.672 10.4237C118.021 10.2694 118.286 10.04 118.467 9.73529C118.652 9.42765 118.765 9.07105 118.806 8.66549C118.847 8.25993 118.809 7.88949 118.69 7.55416C118.574 7.21918 118.359 6.944 118.044 6.72864C117.73 6.50998 117.298 6.37253 116.747 6.31629L114.591 6.09605L113.667 15.1371L112.441 15.0118Z" fill="white"/>
</svg>
