<svg width="57" height="40" viewBox="0 0 57 40" fill="none" xmlns="http://www.w3.org/2000/svg">
<g clip-path="url(#clip0_185_1026)">
<path d="M48.1899 36.4915V15.1957L33.5053 29.7844V36.4915H25.4518V21.972L10.7608 7.3833V36.4915H0.431641V39.3176H13.6055V14.1972L15.5904 16.1754V39.6002H18.435V19.0015L22.6072 23.1401V39.3176H36.3436V30.9588L40.7306 26.6004V39.6002H43.569V23.7743L45.3453 22.0096V39.3176H56.5279V36.4915H48.1899Z" fill="#181C21"/>
<path d="M29.4025 4.24316L42.3298 17.086L44.34 15.0889L29.4025 0.249023L18.3779 11.2015L20.3881 13.1986L29.4025 4.24316Z" fill="#181C21"/>
<path d="M28.6189 11.2393H26.103V13.7387H28.6189V11.2393Z" fill="#181C21"/>
<path d="M32.7908 11.2393H30.2749V13.7387H32.7908V11.2393Z" fill="#181C21"/>
<path d="M28.6189 15.1704H26.103V17.6699H28.6189V15.1704Z" fill="#181C21"/>
<path d="M32.7908 15.1704H30.2749V17.6699H32.7908V15.1704Z" fill="#181C21"/>
</g>
<defs>
<clipPath id="clip0_185_1026">
<rect width="56.0962" height="39.3511" fill="white" transform="translate(0.431641 0.249023)"/>
</clipPath>
</defs>
</svg>
