<svg width="144" height="26" viewBox="0 0 144 26" fill="none" xmlns="http://www.w3.org/2000/svg">
<path d="M13.8645 24.7173C11.5605 24.7173 9.51247 24.2373 7.72047 23.2773C5.92847 22.3173 4.53114 20.9626 3.52847 19.2133C2.52581 17.4426 2.02447 15.3946 2.02447 13.0693C2.02447 10.744 2.52581 8.69597 3.52847 6.9253C4.53114 5.15464 5.92847 3.7893 7.72047 2.8293C9.51247 1.8693 11.5605 1.3893 13.8645 1.3893C16.9365 1.3893 19.5071 2.16797 21.5765 3.7253V6.8613C19.7205 5.21864 17.2458 4.3973 14.1525 4.3973C12.4245 4.3973 10.8885 4.7493 9.54447 5.4533C8.22181 6.1573 7.18714 7.17064 6.44047 8.4933C5.69381 9.79464 5.32047 11.32 5.32047 13.0693C5.32047 14.8186 5.69381 16.3546 6.44047 17.6773C7.20847 19 8.25381 20.0133 9.57647 20.7173C10.9205 21.4213 12.4458 21.7733 14.1525 21.7733C15.7311 21.7733 17.1391 21.5706 18.3765 21.1653C19.6351 20.7386 20.7978 20.0666 21.8645 19.1493V22.3173C19.9445 23.9173 17.2778 24.7173 13.8645 24.7173ZM27.2712 5.8693C26.7379 5.8693 26.2899 5.68797 25.9272 5.3253C25.5646 4.96264 25.3832 4.51464 25.3832 3.9813C25.3832 3.44797 25.5646 2.99997 25.9272 2.6373C26.2899 2.27464 26.7379 2.0933 27.2712 2.0933C27.8259 2.0933 28.2846 2.27464 28.6472 2.6373C29.0312 2.99997 29.2232 3.44797 29.2232 3.9813C29.2232 4.51464 29.0312 4.96264 28.6472 5.3253C28.2846 5.68797 27.8259 5.8693 27.2712 5.8693ZM25.6392 8.8773H28.9352V24.2373H25.6392V8.8773ZM42.9192 24.7173C41.5326 24.7173 40.3272 24.504 39.3032 24.0773C38.3006 23.6293 37.3726 22.936 36.5192 21.9973V24.2373H33.3832V0.589304H36.6152V10.9253C37.3192 10.0933 38.2259 9.46397 39.3352 9.0373C40.4446 8.61064 41.6392 8.3973 42.9192 8.3973C44.4552 8.3973 45.8312 8.7493 47.0472 9.4533C48.2846 10.136 49.2446 11.096 49.9272 12.3333C50.6312 13.5706 50.9832 14.9893 50.9832 16.5893C50.9832 18.2106 50.6312 19.64 49.9272 20.8773C49.2446 22.0933 48.2846 23.0426 47.0472 23.7253C45.8312 24.3866 44.4552 24.7173 42.9192 24.7173ZM42.1832 22.1573C43.2286 22.1573 44.1672 21.9333 44.9992 21.4853C45.8526 21.016 46.5139 20.3546 46.9832 19.5013C47.4739 18.648 47.7192 17.6773 47.7192 16.5893C47.7192 15.5013 47.4739 14.5306 46.9832 13.6773C46.5139 12.824 45.8526 12.1626 44.9992 11.6933C44.1672 11.224 43.2286 10.9893 42.1832 10.9893C40.8819 10.9893 39.7192 11.3413 38.6952 12.0453C37.6712 12.7493 36.9779 13.688 36.6152 14.8613V18.3173C37.0206 19.4906 37.7139 20.4293 38.6952 21.1333C39.6979 21.816 40.8606 22.1573 42.1832 22.1573ZM59.1997 24.7173C57.3437 24.7173 55.8504 24.248 54.7197 23.3093C53.6104 22.3493 53.0557 21.0586 53.0557 19.4373C53.0557 17.7306 53.5891 16.4186 54.6557 15.5013C55.7437 14.5626 57.2797 14.0933 59.2637 14.0933C61.3757 14.0933 63.1677 14.52 64.6397 15.3733V14.5733C64.6397 13.3573 64.2664 12.4613 63.5197 11.8853C62.7944 11.288 61.6424 10.9893 60.0637 10.9893C59.1251 10.9893 58.2077 11.0853 57.3117 11.2773C56.4371 11.448 55.6477 11.6933 54.9437 12.0133V9.3893C55.5837 9.09064 56.4157 8.85597 57.4397 8.6853C58.4637 8.4933 59.4557 8.3973 60.4157 8.3973C62.9544 8.3973 64.8317 8.96264 66.0477 10.0933C67.2851 11.2026 67.9037 12.7493 67.9037 14.7333V24.2373H64.8637V22.5093C64.2024 23.2346 63.4131 23.7893 62.4957 24.1733C61.5997 24.536 60.5011 24.7173 59.1997 24.7173ZM59.9997 22.2533C61.0237 22.2533 61.9517 22.0506 62.7837 21.6453C63.6157 21.24 64.2344 20.6746 64.6397 19.9493V17.8693C63.2531 16.9733 61.7064 16.5253 59.9997 16.5253C58.7624 16.5253 57.8344 16.7706 57.2157 17.2613C56.6184 17.7306 56.3197 18.456 56.3197 19.4373C56.3197 21.3146 57.5464 22.2533 59.9997 22.2533ZM77.1097 24.7173C76.0431 24.7173 74.9124 24.5786 73.7177 24.3013C72.5231 24.0453 71.5844 23.6933 70.9017 23.2453V20.4933C71.7337 20.984 72.6937 21.3893 73.7817 21.7093C74.8697 22.008 75.9257 22.1573 76.9497 22.1573C78.1017 22.1573 78.9444 22.0186 79.4777 21.7413C80.0111 21.464 80.2777 21.016 80.2777 20.3973C80.2777 19.928 80.1497 19.5546 79.8937 19.2773C79.6591 18.9786 79.2431 18.712 78.6457 18.4773C78.0697 18.2426 77.1951 17.9653 76.0217 17.6453C74.7631 17.2826 73.7604 16.92 73.0137 16.5573C72.2884 16.1733 71.7337 15.6933 71.3497 15.1173C70.9871 14.5413 70.8057 13.7946 70.8057 12.8773C70.8057 11.4053 71.3817 10.296 72.5337 9.5493C73.7071 8.7813 75.2751 8.3973 77.2377 8.3973C78.2617 8.3973 79.2644 8.4933 80.2457 8.6853C81.2271 8.8773 82.0164 9.14397 82.6137 9.4853V12.1733C81.9951 11.8106 81.2271 11.5226 80.3097 11.3093C79.4137 11.096 78.4964 10.9893 77.5577 10.9893C76.4271 10.9893 75.5631 11.128 74.9657 11.4053C74.3684 11.6826 74.0697 12.1733 74.0697 12.8773C74.0697 13.3253 74.1977 13.688 74.4537 13.9653C74.7097 14.2426 75.1151 14.488 75.6697 14.7013C76.2457 14.8933 77.1524 15.1493 78.3897 15.4693C80.3311 16.0026 81.6751 16.632 82.4217 17.3573C83.1897 18.0826 83.5737 19.0853 83.5737 20.3653C83.5737 21.688 83.0297 22.744 81.9417 23.5333C80.8537 24.3226 79.2431 24.7173 77.1097 24.7173ZM92.5532 24.7173C90.9959 24.7173 89.7906 24.2693 88.9372 23.3733C88.1052 22.4773 87.6892 21.208 87.6892 19.5653V11.3733H85.3532V8.8773H87.6892V4.2693H90.9532V8.8773H94.7292V11.3733H90.9532V19.3413C90.9532 20.3653 91.1452 21.0906 91.5292 21.5173C91.9346 21.944 92.6599 22.1573 93.7052 22.1573C94.3239 22.1573 94.9426 22.0186 95.5612 21.7413V24.3013C94.7506 24.5786 93.7479 24.7173 92.5532 24.7173ZM103.637 24.7173C101.781 24.7173 100.288 24.248 99.1572 23.3093C98.0479 22.3493 97.4932 21.0586 97.4932 19.4373C97.4932 17.7306 98.0266 16.4186 99.0932 15.5013C100.181 14.5626 101.717 14.0933 103.701 14.0933C105.813 14.0933 107.605 14.52 109.077 15.3733V14.5733C109.077 13.3573 108.704 12.4613 107.957 11.8853C107.232 11.288 106.08 10.9893 104.501 10.9893C103.563 10.9893 102.645 11.0853 101.749 11.2773C100.875 11.448 100.085 11.6933 99.3812 12.0133V9.3893C100.021 9.09064 100.853 8.85597 101.877 8.6853C102.901 8.4933 103.893 8.3973 104.853 8.3973C107.392 8.3973 109.269 8.96264 110.485 10.0933C111.723 11.2026 112.341 12.7493 112.341 14.7333V24.2373H109.301V22.5093C108.64 23.2346 107.851 23.7893 106.933 24.1733C106.037 24.536 104.939 24.7173 103.637 24.7173ZM104.437 22.2533C105.461 22.2533 106.389 22.0506 107.221 21.6453C108.053 21.24 108.672 20.6746 109.077 19.9493V17.8693C107.691 16.9733 106.144 16.5253 104.437 16.5253C103.2 16.5253 102.272 16.7706 101.653 17.2613C101.056 17.7306 100.757 18.456 100.757 19.4373C100.757 21.3146 101.984 22.2533 104.437 22.2533ZM116.352 8.8773H119.424V11.0853C120.149 10.1893 120.971 9.5173 121.888 9.0693C122.805 8.6213 123.755 8.3973 124.736 8.3973C125.973 8.3973 126.955 8.61064 127.68 9.0373C128.405 9.44264 128.939 10.072 129.28 10.9253C129.963 10.0933 130.795 9.46397 131.776 9.0373C132.779 8.61064 133.781 8.3973 134.784 8.3973C136.661 8.3973 138.016 8.8773 138.848 9.8373C139.68 10.776 140.096 12.1733 140.096 14.0293V24.2373H136.96V14.4453C136.96 13.1866 136.725 12.3013 136.256 11.7893C135.787 11.256 134.987 10.9893 133.856 10.9893C132.235 10.9893 130.912 11.6933 129.888 13.1013C129.931 13.4213 129.952 13.944 129.952 14.6693V24.2373H126.816V14.4453C126.816 13.1866 126.603 12.3013 126.176 11.7893C125.749 11.256 124.981 10.9893 123.872 10.9893C122.251 10.9893 120.8 11.9066 119.52 13.7413V24.2373H116.352V8.8773Z" fill="black"/>
</svg>
