<svg width="43" height="37" viewBox="0 0 43 37" fill="none" xmlns="http://www.w3.org/2000/svg">
<g clip-path="url(#clip0_185_997)">
<path d="M0.0883789 0.924805V4.74637V28.684V36.9308L21.0915 18.5716L42.0884 36.9308V28.684V4.74637V0.924805H0.0883789ZM39.4314 31.117L21.0915 15.0761L2.74536 31.117V26.3597L21.0915 10.3248L39.4314 26.3597V31.117ZM39.4314 4.74637V6.05041V22.8762L21.6771 7.35445L21.0915 6.84129L20.5058 7.35445L2.74536 22.8701V6.04437V4.74637V3.52685H39.4314V4.74637Z" fill="#181C21"/>
<path d="M20.1851 27.6152H16.7329V30.9961H20.1851V27.6152Z" fill="#181C21"/>
<path d="M25.9246 27.6152H22.4724V30.9961H25.9246V27.6152Z" fill="#181C21"/>
<path d="M20.1851 32.9404H16.7329V36.3213H20.1851V32.9404Z" fill="#181C21"/>
<path d="M25.9246 32.9404H22.4724V36.3213H25.9246V32.9404Z" fill="#181C21"/>
</g>
<defs>
<clipPath id="clip0_185_997">
<rect width="42" height="36" fill="white" transform="translate(0.0883789 0.924805)"/>
</clipPath>
</defs>
</svg>
