<svg width="153" height="26" viewBox="0 0 153 26" fill="none" xmlns="http://www.w3.org/2000/svg">
<path d="M10.3208 22.5568C3.56878 22.5568 1.80878 18.8768 1.80878 15.0688H4.30478C4.30478 18.1088 5.84078 20.2528 10.3208 20.2528C15.1528 20.2528 16.4968 18.3648 16.4968 16.3488C16.4968 15.0048 15.9208 14.2688 14.8328 13.8208C13.6808 13.3408 11.2808 13.0848 9.45678 12.8288C7.28078 12.5728 4.97678 12.0608 3.82478 11.3568C2.60878 10.6208 1.74478 9.21282 1.74478 7.22882C1.74478 3.48482 5.20078 0.860815 10.2248 0.860815C16.1128 0.860815 18.4488 3.58082 18.4488 8.44482H15.9528C15.9528 4.76482 13.9048 3.16482 10.2888 3.16482C6.86478 3.16482 4.43278 4.70082 4.43278 7.00482C4.43278 8.34882 4.94478 9.14882 5.84078 9.59682C6.86478 10.1088 9.39278 10.4928 11.2168 10.7488C13.3288 11.0368 15.5368 11.3888 16.9128 12.0928C18.3208 12.7968 19.1848 14.2688 19.1848 16.1888C19.1848 19.3888 17.2008 22.5568 10.3208 22.5568ZM28.2258 22.4928C24.6418 22.4928 22.3698 20.6688 22.3698 17.6928C22.3698 15.4528 23.9378 13.5328 28.1618 13.5328H34.5938V12.3808C34.5938 9.66082 32.9938 8.34882 29.7618 8.34882C26.8498 8.34882 25.2498 9.43682 25.2498 11.5808C25.2498 11.6768 25.2498 11.9008 25.2818 12.1568H22.9138C22.8818 11.9328 22.8498 11.4848 22.8498 11.1968C22.8498 8.06082 25.5378 6.17282 29.8258 6.17282C34.4658 6.17282 37.1538 8.47682 37.1538 12.6048V22.2368H34.5938C34.6258 21.5008 34.6898 20.0288 34.7218 18.4928H34.6898C34.1458 20.9248 32.1618 22.4928 28.2258 22.4928ZM28.7378 20.3168C32.3218 20.3168 34.5938 18.4928 34.5938 15.6128V15.3888H28.3858C25.7938 15.3888 24.7698 16.1568 24.7698 17.6928C24.7698 19.2928 26.2418 20.3168 28.7378 20.3168ZM41.6385 22.2368V0.0608158H44.1985V22.2368H41.6385ZM57.2205 15.9328C57.1245 15.9328 57.0285 15.9328 56.9325 15.9648V19.1008C56.9965 19.1328 57.1245 19.1328 57.2205 19.1328C58.0525 19.1328 58.2125 18.5248 58.2125 17.5328C58.2125 16.5088 58.0525 15.9328 57.2205 15.9328ZM62.0845 17.0848V17.8528H60.8045V19.0688H62.3085V19.8368H59.8765V15.1968H62.3085V15.9968H60.8045V17.0848H62.0845ZM57.1565 19.9008C56.9005 19.9008 56.4205 19.9008 56.0045 19.8368V15.2608C56.4205 15.1968 56.8685 15.1328 57.1885 15.1328C58.6285 15.1328 59.1405 15.9328 59.1405 17.5328C59.1405 19.1648 58.5965 19.9008 57.1565 19.9008ZM63.1405 15.1968H64.3885L64.9965 17.7568L65.6045 15.1968H66.8845C66.9485 16.3168 67.0125 18.3328 67.0765 19.8368H66.1485C66.1485 18.7488 66.1165 17.5968 66.0525 16.5088L65.4125 19.1328H64.5485L63.9085 16.5088H63.8765C63.8445 17.5968 63.8125 18.7488 63.8125 19.8368H62.9165C62.9485 18.3328 63.0445 16.3168 63.1405 15.1968ZM69.4125 19.9008C68.1325 19.9008 67.7165 19.1648 67.7165 17.5328C67.7165 15.9008 68.1325 15.1328 69.4125 15.1328C70.6925 15.1328 71.1405 15.9008 71.1405 17.5328C71.1405 19.1648 70.6925 19.9008 69.4125 19.9008ZM69.4125 15.9328C68.7725 15.9328 68.6445 16.4768 68.6445 17.5328C68.6445 18.5568 68.7725 19.1328 69.4125 19.1328C70.0845 19.1328 70.2125 18.5568 70.2125 17.5328C70.2125 16.4768 70.0845 15.9328 69.4125 15.9328ZM69.0925 6.36482C70.7565 6.36482 71.0765 7.70882 71.0765 8.38082C71.0765 9.37282 70.0845 9.94882 69.4125 10.0448C67.1085 10.3008 65.4445 11.0368 64.1005 12.3488C64.1005 12.3488 66.4365 6.36482 69.0925 6.36482ZM58.4365 8.02882C61.4445 8.02882 63.4285 14.0128 63.4285 14.0128C62.1165 12.3488 60.4525 11.7088 58.4365 11.7088C57.4445 11.7088 56.4525 11.0368 56.4525 10.0448C56.4525 9.02082 57.1245 8.02882 58.4365 8.02882ZM64.0365 3.26081C66.1805 5.34082 63.4285 11.0368 63.4285 11.0368C63.6525 8.92482 62.9165 7.26082 61.4765 5.88482C60.7725 5.18081 60.5165 4.02882 61.1885 3.29282C61.8925 2.58882 63.0765 2.33282 64.0365 3.26081ZM83.0485 22.2368V1.18081H85.7365V10.1408H98.6645V1.18081H101.353V22.2368H98.6645V12.3808H85.7365V22.2368H83.0485ZM113.526 22.4928C108.63 22.4928 105.526 19.3248 105.526 14.3648C105.526 9.37282 108.63 6.17282 113.526 6.17282C118.422 6.17282 121.526 9.37282 121.526 14.3648C121.526 19.3248 118.422 22.4928 113.526 22.4928ZM113.526 20.1888C116.854 20.1888 118.966 17.9168 118.966 14.3648C118.966 10.7808 116.854 8.47682 113.526 8.47682C110.198 8.47682 108.086 10.7808 108.086 14.3648C108.086 17.9168 110.198 20.1888 113.526 20.1888ZM125.354 22.2368V6.42882H127.914L127.85 10.6208H127.882C128.554 7.90082 130.57 6.17282 133.418 6.17282C136.522 6.17282 138.57 7.80482 138.954 10.3328H138.986C139.53 7.80482 141.578 6.17282 144.554 6.17282C148.138 6.17282 150.218 8.54082 150.218 12.2208V22.2368H147.658V12.7648C147.658 10.1408 146.378 8.47682 143.85 8.47682C140.938 8.47682 139.082 10.6208 139.082 14.2688V22.2368H136.522V12.6688C136.522 10.1088 135.21 8.47682 132.682 8.47682C129.77 8.47682 127.914 10.6528 127.914 14.3968V22.2368H125.354Z" fill="black"/>
</svg>
