<svg width="26" height="27" viewBox="0 0 26 27" fill="none" xmlns="http://www.w3.org/2000/svg">
<g clip-path="url(#clip0_138_487)">
<path d="M23.4565 6.54766H17.4365C17.3264 6.00725 17.1125 5.50426 16.8176 5.05952L19.5343 2.34288C19.8654 2.01178 19.8654 1.47497 19.5343 1.14388C19.2032 0.812785 18.6664 0.812785 18.3353 1.14388L15.6186 3.86052C14.9483 3.41609 14.1454 3.15639 13.2826 3.15639C12.4198 3.15639 11.6169 3.41604 10.9466 3.86052L8.22997 1.14383C7.89892 0.812734 7.36206 0.812734 7.03097 1.14383C6.69987 1.47492 6.69987 2.01173 7.03097 2.34282L9.74761 5.05947C9.45268 5.50426 9.23894 6.00725 9.12879 6.54766H2.54348C1.141 6.54771 0 7.68872 0 9.0912V24.3521C0 25.7546 1.141 26.8956 2.54348 26.8956H23.4565C24.859 26.8956 26 25.7546 26 24.3521V9.09114C26 7.68867 24.859 6.54766 23.4565 6.54766ZM13.2826 4.85198C14.3879 4.85198 15.3302 5.56088 15.6802 6.54761H10.885C11.235 5.56088 12.1774 4.85198 13.2826 4.85198ZM24.3044 24.352C24.3044 24.8195 23.924 25.1998 23.4565 25.1998H2.54348C2.07599 25.1998 1.69564 24.8195 1.69564 24.352V9.09114C1.69564 8.62365 2.07599 8.2433 2.54348 8.2433H23.4565C23.924 8.2433 24.3044 8.62365 24.3044 9.09114V24.352Z" fill="black"/>
<path d="M16.674 9.93896H4.2392C3.771 9.93896 3.39136 10.3186 3.39136 10.7868V22.6564C3.39136 23.1246 3.77095 23.5042 4.2392 23.5042H16.674C17.1422 23.5042 17.5219 23.1246 17.5219 22.6564V10.7868C17.5218 10.3186 17.1422 9.93896 16.674 9.93896ZM15.8261 21.8086H5.08699V11.6347H15.8261V21.8086Z" fill="black"/>
<path d="M20.913 12.4826C21.3813 12.4826 21.7609 12.103 21.7609 11.6347C21.7609 11.1665 21.3813 10.7869 20.913 10.7869C20.4448 10.7869 20.0652 11.1665 20.0652 11.6347C20.0652 12.103 20.4448 12.4826 20.913 12.4826Z" fill="black"/>
<path d="M20.913 15.8737C21.3813 15.8737 21.7609 15.4941 21.7609 15.0258C21.7609 14.5576 21.3813 14.178 20.913 14.178C20.4448 14.178 20.0652 14.5576 20.0652 15.0258C20.0652 15.4941 20.4448 15.8737 20.913 15.8737Z" fill="black"/>
<path d="M21.7609 18.4172H20.0653C19.597 18.4172 19.2174 18.7968 19.2174 19.2651C19.2174 19.7333 19.597 20.1129 20.0653 20.1129H21.7609C22.2291 20.1129 22.6087 19.7333 22.6087 19.2651C22.6087 18.7968 22.2291 18.4172 21.7609 18.4172Z" fill="black"/>
<path d="M21.7609 21.8086H20.0653C19.597 21.8086 19.2174 22.1882 19.2174 22.6564C19.2174 23.1247 19.597 23.5043 20.0653 23.5043H21.7609C22.2291 23.5043 22.6087 23.1247 22.6087 22.6564C22.6087 22.1882 22.2291 21.8086 21.7609 21.8086Z" fill="black"/>
</g>
<defs>
<clipPath id="clip0_138_487">
<rect width="26" height="26" fill="white" transform="translate(0 0.895508)"/>
</clipPath>
</defs>
</svg>
