<svg width="17" height="17" viewBox="0 0 17 17" fill="none" xmlns="http://www.w3.org/2000/svg">
<path d="M1.83854 16.3263C1.38021 16.3263 0.987847 16.1631 0.661458 15.8367C0.335069 15.5103 0.171875 15.1179 0.171875 14.6596V5.49292C0.171875 5.03459 0.335069 4.64223 0.661458 4.31584C0.987847 3.98945 1.38021 3.82625 1.83854 3.82625H5.17187V2.15959C5.17187 1.70125 5.33507 1.30889 5.66146 0.982503C5.98785 0.656114 6.38021 0.49292 6.83854 0.49292H10.1719C10.6302 0.49292 11.0226 0.656114 11.349 0.982503C11.6753 1.30889 11.8385 1.70125 11.8385 2.15959V3.82625H15.1719C15.6302 3.82625 16.0226 3.98945 16.349 4.31584C16.6753 4.64223 16.8385 5.03459 16.8385 5.49292V14.6596C16.8385 15.1179 16.6753 15.5103 16.349 15.8367C16.0226 16.1631 15.6302 16.3263 15.1719 16.3263H1.83854ZM1.83854 14.6596H15.1719V5.49292H1.83854V14.6596ZM6.83854 3.82625H10.1719V2.15959H6.83854V3.82625Z" fill="#FF5E14"/>
</svg>
