<svg width="40" height="33" viewBox="0 0 40 33" fill="none" xmlns="http://www.w3.org/2000/svg">
<path d="M20.4562 7.39893H23.1181V13.3602H20.4562V7.39893Z" fill="#FF5E14"/>
<path d="M22.3019 19.949C22.5328 19.4492 22.8059 18.97 23.1181 18.5165V17.804H20.4562V23.7652H21.4156C21.4496 22.4462 21.7511 21.1479 22.3019 19.949Z" fill="#FF5E14"/>
<path d="M31.2219 14.2258H31.2387V3.26701L27.8012 0.108887L24.3637 3.26701V17.0239C26.1976 15.2329 28.6585 14.2288 31.2219 14.2258ZM26.9275 9.50326C26.9275 9.44581 26.9388 9.38892 26.9608 9.33584C26.9828 9.28276 27.015 9.23453 27.0556 9.1939C27.0963 9.15328 27.1445 9.12105 27.1976 9.09906C27.2506 9.07708 27.3075 9.06576 27.365 9.06576H28.24C28.356 9.06576 28.4673 9.11186 28.5493 9.1939C28.6314 9.27595 28.6775 9.38723 28.6775 9.50326V10.3783C28.6775 10.4943 28.6314 10.6056 28.5493 10.6876C28.4673 10.7697 28.356 10.8158 28.24 10.8158H27.365C27.3075 10.8158 27.2506 10.8044 27.1976 10.7825C27.1445 10.7605 27.0963 10.7282 27.0556 10.6876C27.015 10.647 26.9828 10.5988 26.9608 10.5457C26.9388 10.4926 26.9275 10.4357 26.9275 10.3783V9.50326Z" fill="#FF5E14"/>
<path d="M8.42813 17.8047H11.0856V23.7659H8.42813V17.8047Z" fill="#FF5E14"/>
<path d="M8.42813 7.39893H11.0856V13.3602H8.42813V7.39893Z" fill="#FF5E14"/>
<path d="M0.306885 3.26701V28.2208H7.17813V3.26701L3.74063 0.108887L0.306885 3.26701ZM4.61938 20.7839C4.61938 20.8413 4.60807 20.8982 4.58608 20.9513C4.5641 21.0044 4.53187 21.0526 4.49124 21.0932C4.45062 21.1339 4.40239 21.1661 4.34931 21.1881C4.29623 21.2101 4.23934 21.2214 4.18188 21.2214H3.30688C3.19085 21.2214 3.07957 21.1753 2.99753 21.0932C2.91548 21.0112 2.86938 20.8999 2.86938 20.7839V19.9089C2.86938 19.8514 2.8807 19.7945 2.90269 19.7415C2.92467 19.6884 2.9569 19.6402 2.99753 19.5995C3.03815 19.5589 3.08638 19.5267 3.13946 19.5047C3.19254 19.4827 3.24943 19.4714 3.30688 19.4714H4.18188C4.23934 19.4714 4.29623 19.4827 4.34931 19.5047C4.40239 19.5267 4.45062 19.5589 4.49124 19.5995C4.53187 19.6402 4.5641 19.6884 4.58608 19.7415C4.60807 19.7945 4.61938 19.8514 4.61938 19.9089V20.7839ZM4.61938 9.50326V10.3783C4.61938 10.4357 4.60807 10.4926 4.58608 10.5457C4.5641 10.5988 4.53187 10.647 4.49124 10.6876C4.45062 10.7282 4.40239 10.7605 4.34931 10.7825C4.29623 10.8044 4.23934 10.8158 4.18188 10.8158H3.30688C3.19085 10.8158 3.07957 10.7697 2.99753 10.6876C2.91548 10.6056 2.86938 10.4943 2.86938 10.3783V9.50326C2.86938 9.38723 2.91548 9.27595 2.99753 9.1939C3.07957 9.11185 3.19085 9.06576 3.30688 9.06576H4.18188C4.2977 9.06609 4.40866 9.11233 4.49044 9.19434C4.57221 9.27635 4.61813 9.38744 4.61813 9.50326H4.61938Z" fill="#FF5E14"/>
<path d="M12.335 3.26701V28.2208H19.2062V3.26701L15.7687 0.108887L12.335 3.26701ZM16.6475 20.7839C16.6475 20.8999 16.6014 21.0112 16.5194 21.0932C16.4373 21.1753 16.326 21.2214 16.21 21.2214H15.335C15.219 21.2214 15.1077 21.1753 15.0256 21.0932C14.9436 21.0112 14.8975 20.8999 14.8975 20.7839V19.9089C14.8975 19.8514 14.9088 19.7945 14.9308 19.7415C14.9528 19.6884 14.985 19.6402 15.0256 19.5995C15.0663 19.5589 15.1145 19.5267 15.1676 19.5047C15.2206 19.4827 15.2775 19.4714 15.335 19.4714H16.21C16.326 19.4714 16.4373 19.5175 16.5194 19.5995C16.6014 19.6816 16.6475 19.7929 16.6475 19.9089V20.7839ZM16.6475 9.50326V10.3783C16.6475 10.4943 16.6014 10.6056 16.5194 10.6876C16.4373 10.7697 16.326 10.8158 16.21 10.8158H15.335C15.219 10.8158 15.1077 10.7697 15.0256 10.6876C14.9436 10.6056 14.8975 10.4943 14.8975 10.3783V9.50326C14.8975 9.38723 14.9436 9.27595 15.0256 9.1939C15.1077 9.11185 15.219 9.06576 15.335 9.06576H16.21C16.3259 9.06593 16.437 9.11209 16.5189 9.19412C16.6009 9.27615 16.6475 9.38734 16.6475 9.50326Z" fill="#FF5E14"/>
<path d="M28.9237 20.5401L31.1862 21.5764L31.1875 21.577L33.0894 22.4483L35.3525 23.4851L36.395 21.2108L29.9662 18.2651L28.9237 20.5401Z" fill="#FF5E14"/>
<path d="M31.2344 22.9739L28.535 28.8651L29.3006 29.2151L32 23.3245L31.4644 23.0795L31.2344 22.9739Z" fill="#FF5E14"/>
<path d="M34.7813 16.2558C33.2428 15.5507 31.5299 15.3177 29.859 15.5862C28.1882 15.8546 26.6344 16.6126 25.3943 17.7641C24.1542 18.9156 23.2835 20.409 22.8921 22.0554C22.5008 23.7019 22.6065 25.4274 23.1958 27.0137C23.7851 28.6001 24.8317 29.9761 26.203 30.9676C27.5744 31.9592 29.209 32.5219 30.9001 32.5844C32.5913 32.647 34.263 32.2067 35.7039 31.3191C37.1447 30.4316 38.2901 29.1367 38.995 27.5983C39.4631 26.5768 39.7255 25.4732 39.7671 24.3504C39.8086 23.2275 39.6287 22.1075 39.2374 21.0543C38.8461 20.001 38.2512 19.0351 37.4866 18.2118C36.722 17.3885 35.8027 16.7238 34.7813 16.2558ZM37.7913 21.1639L36.2288 24.5751C36.1945 24.6497 36.146 24.7169 36.0858 24.7727C36.0256 24.8286 35.955 24.872 35.8781 24.9005C35.8011 24.9291 35.7193 24.9422 35.6373 24.9391C35.5552 24.9361 35.4746 24.9169 35.4 24.8826L33.1369 23.8458L30.1769 30.3039C30.1073 30.4541 29.9813 30.5708 29.8263 30.6289C29.7565 30.6549 29.6826 30.6682 29.6081 30.6683C29.5182 30.668 29.4294 30.6486 29.3475 30.6114L27.4456 29.7414C27.371 29.7072 27.3039 29.6586 27.2481 29.5984C27.1922 29.5382 27.1488 29.4677 27.1202 29.3907C27.0917 29.3137 27.0786 29.2319 27.0816 29.1499C27.0847 29.0679 27.1039 28.9872 27.1381 28.9126L30.0981 22.4539L27.835 21.4164C27.7603 21.3822 27.6931 21.3337 27.6372 21.2735C27.5813 21.2134 27.5378 21.1428 27.5092 21.0659C27.4806 20.9889 27.4674 20.907 27.4705 20.825C27.4735 20.7429 27.4927 20.6623 27.5269 20.5876L29.0894 17.1764C29.159 17.026 29.2849 16.9091 29.44 16.8508C29.517 16.8222 29.5988 16.8091 29.6809 16.8123C29.7629 16.8154 29.8435 16.8346 29.9181 16.8689L37.4806 20.3351C37.5555 20.3691 37.623 20.4174 37.6791 20.4775C37.7353 20.5375 37.7791 20.6081 37.8079 20.6851C37.8368 20.762 37.8501 20.844 37.8473 20.9261C37.8444 21.0083 37.8254 21.0891 37.7913 21.1639Z" fill="#FF5E14"/>
</svg>
