<svg width="62" height="62" viewBox="0 0 62 62" fill="none" xmlns="http://www.w3.org/2000/svg">
<path fill-rule="evenodd" clip-rule="evenodd" d="M7.41398 1.76666C8.8177 1.76666 9.95565 2.90461 9.95565 4.30833V55.65H4.87231V4.30833C4.87231 2.90461 6.01026 1.76666 7.41398 1.76666Z" fill="#1F0E14"/>
<path fill-rule="evenodd" clip-rule="evenodd" d="M7.41392 1.76666C6.86247 1.76855 6.32683 1.95103 5.88892 2.28618C6.52716 2.76266 6.90382 3.51184 6.90558 4.30833V55.65H9.95558V4.30833C9.95558 2.90461 8.81764 1.76666 7.41392 1.76666Z" fill="#1F0E14"/>
<path fill-rule="evenodd" clip-rule="evenodd" d="M4.36393 55.65H10.4639C11.138 55.65 11.7845 55.9178 12.2612 56.3945C12.7378 56.8711 13.0056 57.5176 13.0056 58.1917V59.7167C13.0056 60.2782 12.5504 60.7334 11.9889 60.7334H2.83893C2.27744 60.7334 1.82227 60.2782 1.82227 59.7167V58.1917C1.82227 56.788 2.96021 55.65 4.36393 55.65Z" fill="#1F0E14"/>
<path fill-rule="evenodd" clip-rule="evenodd" d="M10.4638 55.65H7.41382C8.81754 55.65 9.95549 56.788 9.95549 58.1917V59.7167C9.95549 60.2782 9.50031 60.7334 8.93882 60.7334H11.9888C12.5503 60.7334 13.0055 60.2782 13.0055 59.7167V58.1917C13.0055 57.5176 12.7377 56.8711 12.261 56.3945C11.7844 55.9178 11.1379 55.65 10.4638 55.65Z" fill="#F5A29C"/>
<path fill-rule="evenodd" clip-rule="evenodd" d="M55.1974 1.76666C56.6012 1.76666 57.7391 2.90461 57.7391 4.30833V55.65H52.6558V4.30833C52.6558 2.90461 53.7937 1.76666 55.1974 1.76666Z" fill="#1F0E14"/>
<path fill-rule="evenodd" clip-rule="evenodd" d="M55.1974 1.76666C54.6459 1.76855 54.1103 1.95103 53.6724 2.28618C54.3106 2.76266 54.6873 3.51184 54.689 4.30833V55.65H57.739V4.30833C57.739 2.90461 56.6011 1.76666 55.1974 1.76666Z" fill="#1F0E14"/>
<path fill-rule="evenodd" clip-rule="evenodd" d="M52.1471 55.65H58.2471C59.6509 55.65 60.7888 56.788 60.7888 58.1917V59.7167C60.7888 60.2782 60.3336 60.7334 59.7721 60.7334H50.6221C50.0606 60.7334 49.6055 60.2782 49.6055 59.7167V58.1917C49.6055 56.788 50.7434 55.65 52.1471 55.65Z" fill="#1F0E14"/>
<path fill-rule="evenodd" clip-rule="evenodd" d="M58.2473 55.65H55.1973C56.601 55.65 57.7389 56.788 57.7389 58.1917V59.7167C57.7389 60.2782 57.2838 60.7334 56.7223 60.7334H59.7723C60.3338 60.7334 60.7889 60.2782 60.7889 59.7167V58.1917C60.7889 56.788 59.651 55.65 58.2473 55.65Z" fill="#F5A29C"/>
<path fill-rule="evenodd" clip-rule="evenodd" d="M24.1889 24.1333L17.0722 33.2833H9.95557L17.0722 24.1333H24.1889Z" fill="#1F0E14"/>
<path fill-rule="evenodd" clip-rule="evenodd" d="M31.3056 24.1333L24.1889 33.2833H17.0723L24.1889 24.1333H31.3056Z" fill="#1F0E14"/>
<path fill-rule="evenodd" clip-rule="evenodd" d="M38.4223 24.1333L31.3056 33.2833H24.189L31.3056 24.1333H38.4223Z" fill="#1F0E14"/>
<path fill-rule="evenodd" clip-rule="evenodd" d="M45.539 24.1333L38.4223 33.2833H31.3057L38.4223 24.1333H45.539Z" fill="#1F0E14"/>
<path fill-rule="evenodd" clip-rule="evenodd" d="M52.6557 24.1333L45.539 33.2833H38.4224L45.539 24.1333H52.6557Z" fill="#1F0E14"/>
<path fill-rule="evenodd" clip-rule="evenodd" d="M52.6557 24.1333V33.2833H45.5391L52.6557 24.1333Z" fill="#1F0E14"/>
<path fill-rule="evenodd" clip-rule="evenodd" d="M17.0722 24.1333L9.95557 33.2833V24.1333H17.0722Z" fill="#1F0E14"/>
<path fill-rule="evenodd" clip-rule="evenodd" d="M52.6557 40.4L45.539 49.55H38.4224L45.539 40.4H52.6557Z" fill="#1F0E14"/>
<path fill-rule="evenodd" clip-rule="evenodd" d="M45.539 40.4L38.4223 49.55H31.3057L38.4223 40.4H45.539Z" fill="#1F0E14"/>
<path fill-rule="evenodd" clip-rule="evenodd" d="M38.4223 40.4L31.3056 49.55H24.189L31.3056 40.4H38.4223Z" fill="#1F0E14"/>
<path fill-rule="evenodd" clip-rule="evenodd" d="M31.3056 40.4L24.1889 49.55H17.0723L24.1889 40.4H31.3056Z" fill="#1F0E14"/>
<path fill-rule="evenodd" clip-rule="evenodd" d="M24.1889 40.4L17.0722 49.55H9.95557L17.0722 40.4H24.1889Z" fill="#1F0E14"/>
<path fill-rule="evenodd" clip-rule="evenodd" d="M17.0722 40.4L9.95557 49.55V40.4H17.0722Z" fill="#1F0E14"/>
<path fill-rule="evenodd" clip-rule="evenodd" d="M52.6557 40.4V49.55H45.5391L52.6557 40.4Z" fill="#1F0E14"/>
<path fill-rule="evenodd" clip-rule="evenodd" d="M52.6557 7.86664L45.539 17.0166H38.4224L45.539 7.86664H52.6557Z" fill="#1F0E14"/>
<path fill-rule="evenodd" clip-rule="evenodd" d="M45.539 7.86664L38.4223 17.0166H31.3057L38.4223 7.86664H45.539Z" fill="#1F0E14"/>
<path fill-rule="evenodd" clip-rule="evenodd" d="M38.4223 7.86664L31.3056 17.0166H24.189L31.3056 7.86664H38.4223Z" fill="#1F0E14"/>
<path fill-rule="evenodd" clip-rule="evenodd" d="M31.3056 7.86664L24.1889 17.0166H17.0723L24.1889 7.86664H31.3056Z" fill="#1F0E14"/>
<path fill-rule="evenodd" clip-rule="evenodd" d="M24.1889 7.86664L17.0722 17.0166H9.95557L17.0722 7.86664H24.1889Z" fill="#1F0E14"/>
<path fill-rule="evenodd" clip-rule="evenodd" d="M17.0722 7.86664L9.95557 17.0166V7.86664H17.0722Z" fill="#1F0E14"/>
<path fill-rule="evenodd" clip-rule="evenodd" d="M52.6557 7.86664V17.0166H45.5391L52.6557 7.86664Z" fill="#1F0E14"/>
<path fill-rule="evenodd" clip-rule="evenodd" d="M2.83893 60.7333H5.88893C5.32744 60.7333 4.87227 60.2782 4.87227 59.7167V58.1917C4.87227 56.7879 6.01021 55.65 7.41393 55.65H7.92227V4.30833C7.92402 3.51184 8.30068 2.76266 8.93893 2.28618C8.50102 1.95103 7.96538 1.76855 7.41393 1.76666C7.25895 1.76767 7.1044 1.78332 6.95237 1.81343C6.88018 1.82665 6.81207 1.84901 6.74192 1.86731C6.67177 1.88561 6.60568 1.90595 6.53858 1.93035C6.44767 1.96467 6.35874 2.00405 6.27222 2.04828L6.17868 2.09911C6.0781 2.15504 5.98131 2.21753 5.88893 2.28618C5.25068 2.76266 4.87402 3.51184 4.87227 4.30833V55.65H4.36393C2.96021 55.65 1.82227 56.7879 1.82227 58.1917V59.7167C1.82227 60.2782 2.27744 60.7333 2.83893 60.7333Z" fill="#1F0E14"/>
<path fill-rule="evenodd" clip-rule="evenodd" d="M3.85571 47.5167H5.88905V55.65H3.85571V47.5167Z" fill="#1F0E14"/>
<path d="M4.87238 52.6C5.43387 52.6 5.88905 52.1448 5.88905 51.5833C5.88905 51.0218 5.43387 50.5667 4.87238 50.5667C4.31089 50.5667 3.85571 51.0218 3.85571 51.5833C3.85571 52.1448 4.31089 52.6 4.87238 52.6Z" fill="#F5A29C"/>
<path d="M58.7557 54.6852V4.30833C58.7557 2.34312 57.1625 0.75 55.1973 0.75C53.2321 0.75 51.639 2.34312 51.639 4.30833V6.85H10.9723V4.30833C10.9723 2.34312 9.37921 0.75 7.414 0.75C5.44878 0.75 3.85566 2.34312 3.85566 4.30833V47.5167C3.85566 48.0782 4.31084 48.5333 4.87233 48.5333C5.43382 48.5333 5.889 48.0782 5.889 47.5167V4.30833C5.889 3.4661 6.57176 2.78333 7.414 2.78333C8.25623 2.78333 8.939 3.4661 8.939 4.30833V54.6333H4.364C2.39878 54.6333 0.805664 56.2265 0.805664 58.1917V59.7167C0.805664 60.8396 1.71602 61.75 2.839 61.75H11.989C13.112 61.75 14.0223 60.8396 14.0223 59.7167V58.1917C14.0173 56.4277 12.7186 54.9346 10.9723 54.6852V50.5667H51.639V54.6852C49.8927 54.9346 48.594 56.4277 48.589 58.1917V59.7167C48.589 60.8396 49.4994 61.75 50.6223 61.75H59.7723C60.8953 61.75 61.8057 60.8396 61.8057 59.7167V58.1917C61.8007 56.4277 60.5019 54.9346 58.7557 54.6852ZM53.6723 4.30833C53.6723 3.4661 54.3551 2.78333 55.1973 2.78333C56.0396 2.78333 56.7223 3.4661 56.7223 4.30833V54.6333H53.6723V4.30833ZM40.5014 48.5333L46.0361 41.4167H50.5766L45.0418 48.5333H40.5014ZM33.3847 48.5333L38.9195 41.4167H43.4599L37.9252 48.5333H33.3847ZM26.2681 48.5333L31.8028 41.4167H36.3433L30.8085 48.5333H26.2681ZM19.1514 48.5333L24.6861 41.4167H29.2266L23.6918 48.5333H19.1514ZM12.0347 48.5333L17.5695 41.4167H22.1099L16.5752 48.5333H12.0347ZM22.1099 8.88333L16.5752 16H12.0347L17.5695 8.88333H22.1099ZM29.2266 8.88333L23.6918 16H19.1514L24.6861 8.88333H29.2266ZM36.3433 8.88333L30.8085 16H26.2681L31.8028 8.88333H36.3433ZM43.4599 8.88333L37.9252 16H33.3847L38.9195 8.88333H43.4599ZM50.5766 8.88333L45.0418 16H40.5014L46.0361 8.88333H50.5766ZM10.9723 39.3833V34.3H51.639V39.3833H10.9723ZM10.9723 18.0333H51.639V23.1167H10.9723V18.0333ZM51.639 32.2667H47.6181L51.639 27.0959V32.2667ZM40.5014 32.2667L46.0361 25.15H50.5766L45.0418 32.2667H40.5014ZM33.3847 32.2667L38.9195 25.15H43.4599L37.9252 32.2667H33.3847ZM26.2681 32.2667L31.8028 25.15H36.3433L30.8085 32.2667H26.2681ZM19.1514 32.2667L24.6861 25.15H29.2266L23.6918 32.2667H19.1514ZM22.1099 25.15L16.5752 32.2667H12.0347L17.5695 25.15H22.1099ZM51.639 16H47.6181L51.639 10.8292V16ZM10.9723 25.15H14.9932L10.9723 30.3208V25.15ZM10.9723 41.4167H14.9932L10.9723 46.5874V41.4167ZM14.9932 8.88333L10.9723 14.0541V8.88333H14.9932ZM11.989 58.1917V59.7167H2.839V58.1917C2.839 57.3494 3.52176 56.6667 4.364 56.6667H10.464C11.3062 56.6667 11.989 57.3494 11.989 58.1917ZM47.6181 48.5333L51.639 43.3626V48.5333H47.6181ZM50.6223 59.7167V58.1917C50.6223 57.3494 51.3051 56.6667 52.1473 56.6667H58.2473C59.0896 56.6667 59.7723 57.3494 59.7723 58.1917V59.7167H50.6223Z" fill="#F5A29C"/>
</svg>
