<svg width="16" height="13" viewBox="0 0 16 13" fill="none" xmlns="http://www.w3.org/2000/svg">
<path d="M1.55762 12.634C1.14512 12.634 0.791992 12.4872 0.498242 12.1934C0.204492 11.8997 0.0576172 11.5465 0.0576172 11.134V2.13403C0.0576172 1.72153 0.204492 1.36841 0.498242 1.07466C0.791992 0.780908 1.14512 0.634033 1.55762 0.634033H13.5576C13.9701 0.634033 14.3232 0.780908 14.617 1.07466C14.9107 1.36841 15.0576 1.72153 15.0576 2.13403V11.134C15.0576 11.5465 14.9107 11.8997 14.617 12.1934C14.3232 12.4872 13.9701 12.634 13.5576 12.634H1.55762ZM7.55762 7.38403L1.55762 3.63403V11.134H13.5576V3.63403L7.55762 7.38403ZM7.55762 5.88403L13.5576 2.13403H1.55762L7.55762 5.88403ZM1.55762 3.63403V2.13403V11.134V3.63403Z" fill="#FF5E14"/>
</svg>
