<svg width="16" height="14" viewBox="0 0 16 14" fill="none" xmlns="http://www.w3.org/2000/svg">
<path d="M2.30762 13.196C1.68262 13.196 1.15137 12.9773 0.713867 12.5398C0.276367 12.1023 0.0576172 11.571 0.0576172 10.946V5.69604C0.0576172 5.07104 0.276367 4.53979 0.713867 4.1023C1.15137 3.66479 1.68262 3.44604 2.30762 3.44604C2.64512 3.44604 2.95449 3.5148 3.23574 3.6523C3.51699 3.7898 3.76387 3.97105 3.97637 4.19605H4.55762V0.446045H12.0576V4.19605H12.8076C13.4326 4.19605 13.9639 4.4148 14.4014 4.85229C14.8389 5.28979 15.0576 5.82104 15.0576 6.44604V12.446H3.97637C3.76387 12.671 3.51699 12.8523 3.23574 12.9898C2.95449 13.1273 2.64512 13.196 2.30762 13.196ZM2.30762 11.696C2.52012 11.696 2.69824 11.6242 2.84199 11.4804C2.98574 11.3367 3.05762 11.1585 3.05762 10.946V5.69604C3.05762 5.48355 2.98574 5.30542 2.84199 5.16167C2.69824 5.01792 2.52012 4.94604 2.30762 4.94604C2.09512 4.94604 1.91699 5.01792 1.77324 5.16167C1.62949 5.30542 1.55762 5.48355 1.55762 5.69604V10.946C1.55762 11.1585 1.62949 11.3367 1.77324 11.4804C1.91699 11.6242 2.09512 11.696 2.30762 11.696ZM6.05762 4.19605H10.5576V1.94604H6.05762V4.19605ZM4.55762 10.946H13.5576V6.44604C13.5576 6.23355 13.4857 6.05542 13.342 5.91167C13.1982 5.76792 13.0201 5.69604 12.8076 5.69604H4.55762V10.946ZM9.80762 7.94605C10.0201 7.94605 10.1982 7.87417 10.342 7.73042C10.4857 7.58667 10.5576 7.40855 10.5576 7.19605C10.5576 6.98355 10.4857 6.80542 10.342 6.66167C10.1982 6.51792 10.0201 6.44604 9.80762 6.44604C9.59512 6.44604 9.41699 6.51792 9.27324 6.66167C9.12949 6.80542 9.05762 6.98355 9.05762 7.19605C9.05762 7.40855 9.12949 7.58667 9.27324 7.73042C9.41699 7.87417 9.59512 7.94605 9.80762 7.94605ZM12.0576 7.94605C12.2701 7.94605 12.4482 7.87417 12.592 7.73042C12.7357 7.58667 12.8076 7.40855 12.8076 7.19605C12.8076 6.98355 12.7357 6.80542 12.592 6.66167C12.4482 6.51792 12.2701 6.44604 12.0576 6.44604C11.8451 6.44604 11.667 6.51792 11.5232 6.66167C11.3795 6.80542 11.3076 6.98355 11.3076 7.19605C11.3076 7.40855 11.3795 7.58667 11.5232 7.73042C11.667 7.87417 11.8451 7.94605 12.0576 7.94605ZM9.80762 10.196C10.0201 10.196 10.1982 10.1242 10.342 9.98042C10.4857 9.83667 10.5576 9.65855 10.5576 9.44604C10.5576 9.23355 10.4857 9.05542 10.342 8.91167C10.1982 8.76792 10.0201 8.69604 9.80762 8.69604C9.59512 8.69604 9.41699 8.76792 9.27324 8.91167C9.12949 9.05542 9.05762 9.23355 9.05762 9.44604C9.05762 9.65855 9.12949 9.83667 9.27324 9.98042C9.41699 10.1242 9.59512 10.196 9.80762 10.196ZM12.0576 10.196C12.2701 10.196 12.4482 10.1242 12.592 9.98042C12.7357 9.83667 12.8076 9.65855 12.8076 9.44604C12.8076 9.23355 12.7357 9.05542 12.592 8.91167C12.4482 8.76792 12.2701 8.69604 12.0576 8.69604C11.8451 8.69604 11.667 8.76792 11.5232 8.91167C11.3795 9.05542 11.3076 9.23355 11.3076 9.44604C11.3076 9.65855 11.3795 9.83667 11.5232 9.98042C11.667 10.1242 11.8451 10.196 12.0576 10.196ZM5.30762 10.196H8.30762V6.44604H5.30762V10.196Z" fill="#FF5E14"/>
</svg>
