<svg width="26" height="27" viewBox="0 0 26 27" fill="none" xmlns="http://www.w3.org/2000/svg">
<path d="M22.321 4.37223C22.357 4.01442 22.1656 3.68369 21.8572 3.52951L16.7704 0.98618C16.2011 0.701856 15.5435 1.12238 15.5435 1.74445V4.28783H9.60894C9.5993 4.28783 9.5899 4.28895 9.58035 4.28925C7.23106 4.30936 5.37739 6.20742 5.37002 8.51319L5.34392 9.37455H2.82659C2.35909 9.37455 1.97879 9.75729 1.97879 10.2223V16.722H1.131C0.662794 16.722 0.283203 17.1016 0.283203 17.5698C0.283203 18.038 0.662794 18.4176 1.131 18.4176C1.69685 18.4176 15.04 18.4176 15.5435 18.4176V26.0477C15.5435 26.5159 15.923 26.8955 16.3913 26.8955H19.7824C20.2506 26.8955 20.6302 26.5159 20.6302 26.0477V18.4176H23.1736C23.1738 18.4176 23.1739 18.4176 23.1741 18.4176C24.7261 18.4171 25.7167 16.5798 25.7168 15.3147L25.717 8.5267C25.7169 6.47798 24.2559 4.76431 22.321 4.37223ZM17.239 3.1162L19.5823 4.28778L17.239 5.45941V3.1162ZM10.5292 11.0701L7.91335 13.1046L5.29746 11.0701H10.5292ZM12.1523 16.7221H3.67433V11.9557L7.3928 14.8479C7.69896 15.086 8.12765 15.086 8.43376 14.8479L12.1522 11.9557L12.1523 16.7221ZM12.1523 9.37455H7.04022C7.04088 9.35347 7.06556 8.54788 7.06556 8.52675C7.06556 7.13763 8.1894 5.9819 9.60818 5.98337C9.60839 5.98337 9.60869 5.98337 9.60889 5.98337H9.62372C11.137 5.99368 12.1523 7.30242 12.1523 8.70814V9.37455ZM18.9346 25.2H17.239V18.4176H18.9346V25.2ZM24.0211 15.3147C24.0211 15.9222 23.4878 16.7221 23.1734 16.7221H13.8479C13.8479 16.5847 13.8479 8.79889 13.8479 8.7082C13.8479 7.69348 13.5124 6.74159 12.948 5.98342H15.5435C15.5435 6.63231 15.5435 11.1876 15.5435 11.9179C15.5435 12.3861 15.923 12.7657 16.3913 12.7657C16.8595 12.7657 17.239 12.3861 17.239 11.9179V7.35513L19.9825 5.98342H21.478C22.8804 5.98342 24.0214 7.12438 24.0214 8.5268L24.0211 15.3147Z" fill="black"/>
</svg>
