<svg width="21" height="17" viewBox="0 0 21 17" fill="none" xmlns="http://www.w3.org/2000/svg">
<path d="M2.09766 16.0337C1.54766 16.0337 1.07682 15.8379 0.685156 15.4462C0.29349 15.0545 0.0976562 14.5837 0.0976562 14.0337V2.03369C0.0976562 1.48369 0.29349 1.01286 0.685156 0.621191C1.07682 0.229525 1.54766 0.0336914 2.09766 0.0336914H18.0977C18.6477 0.0336914 19.1185 0.229525 19.5102 0.621191C19.9018 1.01286 20.0977 1.48369 20.0977 2.03369V14.0337C20.0977 14.5837 19.9018 15.0545 19.5102 15.4462C19.1185 15.8379 18.6477 16.0337 18.0977 16.0337H2.09766ZM10.0977 9.03369L2.09766 4.03369V14.0337H18.0977V4.03369L10.0977 9.03369ZM10.0977 7.03369L18.0977 2.03369H2.09766L10.0977 7.03369ZM2.09766 4.03369V2.03369V14.0337V4.03369Z" fill="black"/>
</svg>
