<svg width="15" height="14" viewBox="0 0 15 14" fill="none" xmlns="http://www.w3.org/2000/svg">
<path d="M12.8076 7.10913C12.8076 5.64663 12.2982 4.40601 11.2795 3.38726C10.2607 2.36851 9.02012 1.85913 7.55762 1.85913V0.359131C8.49512 0.359131 9.37324 0.537256 10.192 0.893506C11.0107 1.24976 11.7232 1.73101 12.3295 2.33726C12.9357 2.94351 13.417 3.65601 13.7732 4.47476C14.1295 5.29351 14.3076 6.17163 14.3076 7.10913H12.8076ZM9.80762 7.10913C9.80762 6.48413 9.58887 5.95288 9.15137 5.51538C8.71387 5.07788 8.18262 4.85913 7.55762 4.85913V3.35913C8.59512 3.35913 9.47949 3.72476 10.2107 4.45601C10.942 5.18726 11.3076 6.07163 11.3076 7.10913H9.80762ZM13.5201 13.8591C11.9576 13.8591 10.4139 13.5185 8.88887 12.8373C7.36387 12.156 5.97637 11.1904 4.72637 9.94038C3.47637 8.69038 2.51074 7.30288 1.82949 5.77788C1.14824 4.25288 0.807617 2.70913 0.807617 1.14663C0.807617 0.921631 0.882617 0.734131 1.03262 0.584131C1.18262 0.434131 1.37012 0.359131 1.59512 0.359131H4.63262C4.80762 0.359131 4.96387 0.418506 5.10137 0.537256C5.23887 0.656006 5.32012 0.796631 5.34512 0.959131L5.83262 3.58413C5.85762 3.78413 5.85137 3.95288 5.81387 4.09038C5.77637 4.22788 5.70762 4.34663 5.60762 4.44663L3.78887 6.28413C4.03887 6.74663 4.33574 7.19351 4.67949 7.62476C5.02324 8.05601 5.40137 8.47163 5.81387 8.87163C6.20137 9.25913 6.60762 9.61851 7.03262 9.94976C7.45762 10.281 7.90762 10.5841 8.38262 10.8591L10.1451 9.09663C10.2576 8.98413 10.4045 8.89976 10.5857 8.84351C10.767 8.78726 10.9451 8.77163 11.1201 8.79663L13.7076 9.32163C13.8826 9.37163 14.0264 9.46226 14.1389 9.59351C14.2514 9.72476 14.3076 9.87163 14.3076 10.0341V13.0716C14.3076 13.2966 14.2326 13.4841 14.0826 13.6341C13.9326 13.7841 13.7451 13.8591 13.5201 13.8591ZM3.07637 4.85913L4.31387 3.62163L3.99512 1.85913H2.32637C2.38887 2.37163 2.47637 2.87788 2.58887 3.37788C2.70137 3.87788 2.86387 4.37163 3.07637 4.85913ZM9.78887 11.5716C10.2764 11.7841 10.7732 11.9529 11.2795 12.0779C11.7857 12.2029 12.2951 12.2841 12.8076 12.3216V10.6716L11.0451 10.3154L9.78887 11.5716Z" fill="#FF5E14"/>
</svg>
