<svg width="17" height="21" viewBox="0 0 17 21" fill="none" xmlns="http://www.w3.org/2000/svg">
<path d="M8.09766 10.0337C8.64766 10.0337 9.11849 9.83786 9.51016 9.44619C9.90182 9.05452 10.0977 8.58369 10.0977 8.03369C10.0977 7.48369 9.90182 7.01286 9.51016 6.62119C9.11849 6.22952 8.64766 6.03369 8.09766 6.03369C7.54766 6.03369 7.07682 6.22952 6.68516 6.62119C6.29349 7.01286 6.09766 7.48369 6.09766 8.03369C6.09766 8.58369 6.29349 9.05452 6.68516 9.44619C7.07682 9.83786 7.54766 10.0337 8.09766 10.0337ZM8.09766 17.3837C10.131 15.517 11.6393 13.8212 12.6227 12.2962C13.606 10.7712 14.0977 9.41702 14.0977 8.23369C14.0977 6.41703 13.5185 4.92952 12.3602 3.77119C11.2018 2.61286 9.78099 2.03369 8.09766 2.03369C6.41432 2.03369 4.99349 2.61286 3.83516 3.77119C2.67682 4.92952 2.09766 6.41703 2.09766 8.23369C2.09766 9.41702 2.58932 10.7712 3.57266 12.2962C4.55599 13.8212 6.06432 15.517 8.09766 17.3837ZM8.09766 20.0337C5.41432 17.7504 3.41016 15.6295 2.08516 13.6712C0.760156 11.7129 0.0976562 9.90036 0.0976562 8.23369C0.0976562 5.73369 0.901823 3.74202 2.51016 2.25869C4.11849 0.775358 5.98099 0.0336914 8.09766 0.0336914C10.2143 0.0336914 12.0768 0.775358 13.6852 2.25869C15.2935 3.74202 16.0977 5.73369 16.0977 8.23369C16.0977 9.90036 15.4352 11.7129 14.1102 13.6712C12.7852 15.6295 10.781 17.7504 8.09766 20.0337Z" fill="black"/>
</svg>
