<svg width="14" height="17" viewBox="0 0 14 17" fill="none" xmlns="http://www.w3.org/2000/svg">
<path d="M6.69206 8.61824C7.15039 8.61824 7.54275 8.45505 7.86914 8.12866C8.19553 7.80227 8.35872 7.40991 8.35872 6.95158C8.35872 6.49325 8.19553 6.10088 7.86914 5.7745C7.54275 5.44811 7.15039 5.28491 6.69206 5.28491C6.23372 5.28491 5.84136 5.44811 5.51497 5.7745C5.18858 6.10088 5.02539 6.49325 5.02539 6.95158C5.02539 7.40991 5.18858 7.80227 5.51497 8.12866C5.84136 8.45505 6.23372 8.61824 6.69206 8.61824ZM6.69206 14.7432C8.3865 13.1877 9.64345 11.7745 10.4629 10.5037C11.2823 9.23283 11.6921 8.10436 11.6921 7.11825C11.6921 5.60436 11.2094 4.36477 10.2441 3.3995C9.27886 2.43422 8.09483 1.95158 6.69206 1.95158C5.28928 1.95158 4.10525 2.43422 3.13997 3.3995C2.1747 4.36477 1.69206 5.60436 1.69206 7.11825C1.69206 8.10436 2.10178 9.23283 2.92122 10.5037C3.74067 11.7745 4.99761 13.1877 6.69206 14.7432ZM6.69206 16.9516C4.45595 15.0488 2.78581 13.2814 1.68164 11.6495C0.577474 10.0176 0.0253906 8.50713 0.0253906 7.11825C0.0253906 5.03491 0.695529 3.37519 2.03581 2.13908C3.37608 0.902968 4.92817 0.284912 6.69206 0.284912C8.45595 0.284912 10.008 0.902968 11.3483 2.13908C12.6886 3.37519 13.3587 5.03491 13.3587 7.11825C13.3587 8.50713 12.8066 10.0176 11.7025 11.6495C10.5983 13.2814 8.92817 15.0488 6.69206 16.9516Z" fill="#FF5E14"/>
</svg>
