<svg width="14" height="17" viewBox="0 0 14 17" fill="none" xmlns="http://www.w3.org/2000/svg">
<path d="M7.00065 8.53743C7.45898 8.53743 7.85135 8.37424 8.17773 8.04785C8.50412 7.72146 8.66732 7.3291 8.66732 6.87077C8.66732 6.41243 8.50412 6.02007 8.17773 5.69368C7.85135 5.3673 7.45898 5.2041 7.00065 5.2041C6.54232 5.2041 6.14996 5.3673 5.82357 5.69368C5.49718 6.02007 5.33398 6.41243 5.33398 6.87077C5.33398 7.3291 5.49718 7.72146 5.82357 8.04785C6.14996 8.37424 6.54232 8.53743 7.00065 8.53743ZM7.00065 14.6624C8.6951 13.1069 9.95204 11.6937 10.7715 10.4229C11.5909 9.15202 12.0007 8.02355 12.0007 7.03743C12.0007 5.52355 11.518 4.28396 10.5527 3.31868C9.58746 2.35341 8.40343 1.87077 7.00065 1.87077C5.59787 1.87077 4.41385 2.35341 3.44857 3.31868C2.48329 4.28396 2.00065 5.52355 2.00065 7.03743C2.00065 8.02355 2.41037 9.15202 3.22982 10.4229C4.04926 11.6937 5.30621 13.1069 7.00065 14.6624ZM7.00065 16.8708C4.76454 14.968 3.0944 13.2006 1.99023 11.5687C0.886068 9.93674 0.333984 8.42632 0.333984 7.03743C0.333984 4.9541 1.00412 3.29438 2.3444 2.05827C3.68468 0.822157 5.23676 0.204102 7.00065 0.204102C8.76454 0.204102 10.3166 0.822157 11.6569 2.05827C12.9972 3.29438 13.6673 4.9541 13.6673 7.03743C13.6673 8.42632 13.1152 9.93674 12.0111 11.5687C10.9069 13.2006 9.23676 14.968 7.00065 16.8708Z" fill="#FF5E14"/>
</svg>
