<svg width="38" height="34" viewBox="0 0 38 34" fill="none" xmlns="http://www.w3.org/2000/svg">
<path d="M11.865 16.1636H3.07129C3.22129 7.40743 4.94629 5.96368 10.3275 2.77618C10.9463 2.40118 11.1525 1.61368 10.7775 0.976179C10.4213 0.357429 9.61504 0.151179 8.99629 0.526179C2.65879 4.27618 0.446289 6.56368 0.446289 17.4574V27.5636C0.446289 30.7699 3.05254 33.3574 6.24004 33.3574H11.865C15.165 33.3574 17.6588 30.8636 17.6588 27.5636V21.9386C17.6588 18.6574 15.165 16.1636 11.865 16.1636Z" fill="black"/>
<path d="M32.1499 16.1636H23.3562C23.5062 7.40743 25.2312 5.96368 30.6124 2.77618C31.2312 2.40118 31.4374 1.61368 31.0624 0.976179C30.6874 0.357429 29.8999 0.151179 29.2624 0.526179C22.9249 4.27618 20.7124 6.56368 20.7124 17.4761V27.5823C20.7124 30.7886 23.3187 33.3761 26.5062 33.3761H32.1311C35.4311 33.3761 37.9249 30.8823 37.9249 27.5823V21.9574C37.9436 18.6574 35.4499 16.1636 32.1499 16.1636Z" fill="black"/>
</svg>
