<svg width="16" height="16" viewBox="0 0 16 16" fill="none" xmlns="http://www.w3.org/2000/svg">
<path d="M14.3333 15.8972L9.08333 10.6472C8.66667 10.9806 8.1875 11.2444 7.64583 11.4389C7.10417 11.6333 6.52778 11.7306 5.91667 11.7306C4.40278 11.7306 3.12153 11.2062 2.07292 10.1576C1.02431 9.10902 0.5 7.82777 0.5 6.31388C0.5 4.79999 1.02431 3.51874 2.07292 2.47013C3.12153 1.42152 4.40278 0.897217 5.91667 0.897217C7.43056 0.897217 8.71181 1.42152 9.76042 2.47013C10.809 3.51874 11.3333 4.79999 11.3333 6.31388C11.3333 6.92499 11.2361 7.50138 11.0417 8.04305C10.8472 8.58472 10.5833 9.06388 10.25 9.48055L15.5 14.7306L14.3333 15.8972ZM5.91667 10.0639C6.95833 10.0639 7.84375 9.6993 8.57292 8.97013C9.30208 8.24097 9.66667 7.35555 9.66667 6.31388C9.66667 5.27222 9.30208 4.3868 8.57292 3.65763C7.84375 2.92847 6.95833 2.56388 5.91667 2.56388C4.875 2.56388 3.98958 2.92847 3.26042 3.65763C2.53125 4.3868 2.16667 5.27222 2.16667 6.31388C2.16667 7.35555 2.53125 8.24097 3.26042 8.97013C3.98958 9.6993 4.875 10.0639 5.91667 10.0639Z" fill="#FF5E14"/>
</svg>
