<svg width="40" height="40" viewBox="0 0 40 40" fill="none" xmlns="http://www.w3.org/2000/svg">
<path d="M6.08313 15.2026H14.5519V19.9614H6.08313V15.2026Z" fill="#FF5E14"/>
<path d="M2.52499 29.9141H37.4556V33.6866H2.52499V29.9141Z" fill="#FF5E14"/>
<path d="M15.8012 18.207V21.2114H8.45499V28.6639H31.525V21.2114H24.1787V18.207H15.8012Z" fill="#FF5E14"/>
<path d="M37.125 10.1016H2.85751C2.27658 10.1214 1.72732 10.3712 1.33048 10.7959C0.933638 11.2207 0.721703 11.7856 0.741264 12.3666V16.9603H4.83314V13.9522H15.8013V16.9572H24.1763V13.9522H35.1469V16.9572H39.2394V12.3666C39.259 11.7859 39.0473 11.2213 38.6508 10.7966C38.2544 10.3719 37.7056 10.1219 37.125 10.1016Z" fill="#FF5E14"/>
<path d="M2.52499 18.207V28.6639H7.20499V21.2114H4.83312V18.207H2.52499Z" fill="#FF5E14"/>
<path d="M35.1469 21.2114H32.775V28.6639H37.455V18.207H35.1469V21.2114Z" fill="#FF5E14"/>
<path d="M33.8969 19.9609H25.4281V15.2022H33.8969V19.9609Z" fill="#FF5E14"/>
<path d="M14.7281 8.85082V6.62957H25.2519V8.85082H28.0906V3.91895H11.8894V8.85082H14.7281Z" fill="#FF5E14"/>
</svg>
