<svg width="15" height="16" viewBox="0 0 15 16" fill="none" xmlns="http://www.w3.org/2000/svg">
<path d="M7.5625 12.9827C6.8625 12.9827 6.19375 13.092 5.55625 13.3108C4.91875 13.5295 4.3375 13.8577 3.8125 14.2952V14.4827H11.3125V14.2952C10.7875 13.8577 10.2063 13.5295 9.56875 13.3108C8.93125 13.092 8.2625 12.9827 7.5625 12.9827ZM2.3125 13.6202C2.9875 12.9577 3.77188 12.4358 4.66563 12.0545C5.55938 11.6733 6.525 11.4827 7.5625 11.4827C8.6 11.4827 9.56563 11.6733 10.4594 12.0545C11.3531 12.4358 12.1375 12.9577 12.8125 13.6202V3.98267H2.3125V13.6202ZM7.5625 9.98267C6.8375 9.98267 6.21875 9.72642 5.70625 9.21392C5.19375 8.70142 4.9375 8.08267 4.9375 7.35767C4.9375 6.63267 5.19375 6.01392 5.70625 5.50142C6.21875 4.98892 6.8375 4.73267 7.5625 4.73267C8.2875 4.73267 8.90625 4.98892 9.41875 5.50142C9.93125 6.01392 10.1875 6.63267 10.1875 7.35767C10.1875 8.08267 9.93125 8.70142 9.41875 9.21392C8.90625 9.72642 8.2875 9.98267 7.5625 9.98267ZM7.5625 8.48267C7.875 8.48267 8.14063 8.37329 8.35938 8.15454C8.57813 7.93579 8.6875 7.67017 8.6875 7.35767C8.6875 7.04517 8.57813 6.77954 8.35938 6.56079C8.14063 6.34204 7.875 6.23267 7.5625 6.23267C7.25 6.23267 6.98438 6.34204 6.76562 6.56079C6.54688 6.77954 6.4375 7.04517 6.4375 7.35767C6.4375 7.67017 6.54688 7.93579 6.76562 8.15454C6.98438 8.37329 7.25 8.48267 7.5625 8.48267ZM2.3125 15.9827C1.9 15.9827 1.54688 15.8358 1.25313 15.542C0.959375 15.2483 0.8125 14.8952 0.8125 14.4827V3.98267C0.8125 3.57017 0.959375 3.21704 1.25313 2.92329C1.54688 2.62954 1.9 2.48267 2.3125 2.48267H3.0625V0.982666H4.5625V2.48267H10.5625V0.982666H12.0625V2.48267H12.8125C13.225 2.48267 13.5781 2.62954 13.8719 2.92329C14.1656 3.21704 14.3125 3.57017 14.3125 3.98267V14.4827C14.3125 14.8952 14.1656 15.2483 13.8719 15.542C13.5781 15.8358 13.225 15.9827 12.8125 15.9827H2.3125ZM7.5625 14.4827H11.3125H3.8125H7.5625Z" fill="#FF5E14"/>
</svg>
